<?xml version="1.0" encoding="utf-8"?>
<!-- Generator: Adobe Illustrator 16.0.0, SVG Export Plug-In . SVG Version: 6.00 Build 0)  -->
<!DOCTYPE svg PUBLIC "-//W3C//DTD SVG 1.1//EN" "http://www.w3.org/Graphics/SVG/1.1/DTD/svg11.dtd">
<svg version="1.1" id="Layer_1" xmlns="http://www.w3.org/2000/svg" xmlns:xlink="http://www.w3.org/1999/xlink" x="0px" y="0px"
	 width="300px" height="300px" viewBox="0 0 300 300" enable-background="new 0 0 300 300" xml:space="preserve">
<g>
	<g>
		<g>
			<g>
				<g>
					<g>
						
							<linearGradient id="SVGID_1_" gradientUnits="userSpaceOnUse" x1="-2600.2891" y1="-116.1968" x2="-2592.0625" y2="-133.3533" gradientTransform="matrix(-0.8596 0.511 0.511 0.8596 -2032.1968 1567.9131)">
							<stop  offset="0" style="stop-color:#2296D2"/>
							<stop  offset="0.0486" style="stop-color:#25A2DB"/>
							<stop  offset="0.0968" style="stop-color:#26A9E0"/>
							<stop  offset="0.6452" style="stop-color:#26A9E0"/>
							<stop  offset="0.871" style="stop-color:#4ED1FF"/>
						</linearGradient>
						<path fill="url(#SVGID_1_)" d="M118.239,145.394c4.198-4.877,13.91-19.627,15.385-25.568
							c0.354-1.423,22.911-3.382,21.664,0.147c-3.234,9.155-22.09,32.361-26.745,35.24
							C125.853,156.876,115.977,148.024,118.239,145.394z"/>
						
							<linearGradient id="SVGID_2_" gradientUnits="userSpaceOnUse" x1="-2063.0991" y1="616.2031" x2="-2068.4011" y2="633.2732" gradientTransform="matrix(-0.7302 0.6832 0.6832 0.7302 -1797.1069 1090.8887)">
							<stop  offset="0.2634" style="stop-color:#26A9E0"/>
							<stop  offset="0.3099" style="stop-color:#25A3DC"/>
							<stop  offset="0.672" style="stop-color:#1B75BB"/>
						</linearGradient>
						<path fill="url(#SVGID_2_)" d="M120.643,148.695c5.765-3.472,18.333-18.957,20.401-27.284
							c0.665-2.677,14.67-3.912,14.244-1.438c-2.008,11.698-14.573,27.87-26.879,35.312
							C126.38,156.518,118.135,150.204,120.643,148.695z"/>
					</g>
					<path fill="#1B75BB" d="M128.403,154.827c-2.668,2.038-11.959-7.483-9.824-9.36
						C120.438,143.83,130.228,153.433,128.403,154.827z"/>
				</g>
				<g>
					
						<linearGradient id="SVGID_3_" gradientUnits="userSpaceOnUse" x1="-1495.6782" y1="635.5576" x2="-1495.6782" y2="617.7549" gradientTransform="matrix(-0.5685 0.8227 0.8227 0.5685 -1236.1685 1018.6914)">
						<stop  offset="0.2527" style="stop-color:#005096"/>
						<stop  offset="0.6806" style="stop-color:#0E63A9"/>
						<stop  offset="1" style="stop-color:#1B75BB"/>
					</linearGradient>
					<path fill="url(#SVGID_3_)" d="M121.209,141.975c-0.021,0.017-0.413-0.438-0.137-0.747c0.166-0.189,0.908-0.1,1.131-0.362
						c1.165-1.377,2.802-3.572,3.239-4.142c2.471-3.21,14.877,9.28,12.19,11.804c-1.296,1.219-3.654,3.531-5.316,4.736
						c-0.392,0.283-0.668-0.31-0.685-0.298C131.758,151.988,123.004,142.304,121.209,141.975z"/>
				</g>
				<g>
					
						<linearGradient id="SVGID_4_" gradientUnits="userSpaceOnUse" x1="-2923.4102" y1="-183.8848" x2="-2931.5295" y2="-167.1454" gradientTransform="matrix(-0.9428 0.3335 0.3335 0.9428 -2572.1221 1286.1406)">
						<stop  offset="0.1613" style="stop-color:#44C7FE"/>
						<stop  offset="0.3548" style="stop-color:#26A9E0"/>
						<stop  offset="0.4166" style="stop-color:#25A3DC"/>
						<stop  offset="0.8978" style="stop-color:#1B75BB"/>
					</linearGradient>
					<path fill="url(#SVGID_4_)" d="M121.072,141.228c0.574-0.512,2.913-3.343,3.522-4.137c1.921-2.497,14.747,10.55,12.64,12.53
						c-1.475,1.385-3.269,2.416-4.918,3.644C132.774,149.704,124.339,141.827,121.072,141.228z"/>
				</g>
				
					<linearGradient id="SVGID_5_" gradientUnits="userSpaceOnUse" x1="-1622.5815" y1="576.5684" x2="-1619.1948" y2="576.5684" gradientTransform="matrix(-0.605 0.7963 0.7963 0.605 -1314.6089 1082.0029)">
					<stop  offset="0" style="stop-color:#0B65AB"/>
					<stop  offset="1" style="stop-color:#1B75BB"/>
				</linearGradient>
				<path fill="url(#SVGID_5_)" d="M124.087,141.48c0.395,0.324,1.196,0.004,1.793-0.718c0.596-0.719,0.762-1.567,0.367-1.892
					c-0.794-0.656-1.209,0.013-1.791,0.716C123.846,140.323,123.293,140.822,124.087,141.48z"/>
				
					<ellipse transform="matrix(-0.6373 0.7706 -0.7706 -0.6373 311.9484 132.8002)" fill="#D0D2D3" cx="124.721" cy="139.815" rx="1.693" ry="0.923"/>
			</g>
			<g>
				
					<linearGradient id="SVGID_6_" gradientUnits="userSpaceOnUse" x1="-1903.8535" y1="68.2607" x2="-1904.8738" y2="87.7291" gradientTransform="matrix(-0.6343 0.7731 0.7731 0.6343 -1154.8833 1582.9443)">
					<stop  offset="0.0968" style="stop-color:#FCDF27"/>
					<stop  offset="0.5161" style="stop-color:#FDEC7C"/>
					<stop  offset="0.7903" style="stop-color:#FCDF27"/>
					<stop  offset="0.914" style="stop-color:#CA8007"/>
					<stop  offset="1" style="stop-color:#DDA413"/>
				</linearGradient>
				<path fill="url(#SVGID_6_)" d="M108.923,174.204c2.346-2.121,6.228-4.334,8.621-6.101c3.558-2.627,5.584-7.906,9.178-9.957
					c2.993-1.711-5.44-12.125-7.777-10.593c-1.084,0.713-3.604,0.683-4.538,0.88c-0.116,0.025-4.185,0.281-4.489,0.436
					c-0.737,0.377-1.023,0.682-1.204,1.125c-1.24,3.017-1.864,4.653-2.044,5.379c-0.267,0.188-3.844,5.548-3.838,5.808
					C102.905,164.006,107.347,175.632,108.923,174.204z"/>
			</g>
		</g>
		<g>
			
				<linearGradient id="SVGID_7_" gradientUnits="userSpaceOnUse" x1="-3974.6863" y1="327.8682" x2="-3944.0356" y2="344.4408" gradientTransform="matrix(-0.236 -0.9717 0.9717 -0.236 -1133.4678 -3659.4316)">
				<stop  offset="0.4785" style="stop-color:#1B75BB"/>
				<stop  offset="1" style="stop-color:#26A9E0"/>
			</linearGradient>
			<path fill="url(#SVGID_7_)" d="M104.164,93.405c-5.705,3.897-6.451,9.656-1.595,16.949c5.284,7.938,33.014,20.546,45.759,21.02
				c2.63,0.098,8.37-7.67,5.111-12.839c-2.878-4.571-19.996-16.546-23.519-21.836C122.686,85.84,114.33,86.532,104.164,93.405z"/>
			<g>
				
					<linearGradient id="SVGID_8_" gradientUnits="userSpaceOnUse" x1="1202.8291" y1="1706.0059" x2="1216.2881" y2="1706.0059" gradientTransform="matrix(0.4335 -0.4389 0.418 0.4127 -1102.8193 -71.7249)">
					<stop  offset="0" style="stop-color:#0B65AB"/>
					<stop  offset="1" style="stop-color:#1B75BB"/>
				</linearGradient>
				<path fill="url(#SVGID_8_)" d="M143.561,104.836c0,0,0.661,1.63,0.498,1.704c-0.689,0.311-3.419,4.328-3.538,4.49
					c0,0-2.369-2.611-5.655-5.401c-4.109-3.491-10.397-8.4-10.397-8.4c0.112-0.149,2.524-3.958,4.152-5.011
					c0.154-0.099,1.689-0.031,1.689-0.031c7.683,6.648,7.63,6.657,9.228,8.267C141.571,102.505,141.369,102.412,143.561,104.836z"/>
				
					<linearGradient id="SVGID_9_" gradientUnits="userSpaceOnUse" x1="1204.8799" y1="1705.8184" x2="1219.2471" y2="1705.8184" gradientTransform="matrix(0.4335 -0.4389 0.418 0.4127 -1102.8193 -71.7249)">
					<stop  offset="0" style="stop-color:#1B75BB"/>
					<stop  offset="0.0921" style="stop-color:#1D7FC2"/>
					<stop  offset="0.2839" style="stop-color:#208CCB"/>
					<stop  offset="0.5285" style="stop-color:#2294D0"/>
					<stop  offset="1" style="stop-color:#2296D2"/>
				</linearGradient>
				<path fill="url(#SVGID_9_)" d="M143.561,104.798c0,0-2.813,3.893-2.932,4.056c0,0-2.548-2.228-5.834-5.018
					c-1.601-1.359-3.284-2.698-4.744-3.825c-0.202-0.159,1.433-1.621,1.239-1.768c-0.604-0.463-4.432-1.06-5.261-1.251
					c0.15-0.197,4.248-4.85,4.248-4.85s2.973,0.306,4.664,1.198c0.222,0.117-0.708,1.887-0.491,2.05
					c1.452,1.087,2.776,2.243,4.777,4.246C145.75,106.166,143.884,105.604,143.561,104.798z"/>
				
					<linearGradient id="SVGID_10_" gradientUnits="userSpaceOnUse" x1="1211.2393" y1="1709.918" x2="1219.6071" y2="1713.6373" gradientTransform="matrix(0.4335 -0.4389 0.418 0.4127 -1102.8193 -71.7249)">
					<stop  offset="0" style="stop-color:#1D80C3;stop-opacity:0"/>
					<stop  offset="0.0299" style="stop-color:#1E83C5;stop-opacity:0.0329"/>
					<stop  offset="0.3701" style="stop-color:#289DD9;stop-opacity:0.4073"/>
					<stop  offset="0.6738" style="stop-color:#2EADE6;stop-opacity:0.7415"/>
					<stop  offset="0.9086" style="stop-color:#30B3EA"/>
				</linearGradient>
				<path fill="url(#SVGID_10_)" d="M143.561,104.798c0,0-2.813,3.893-2.932,4.056c0,0-6.251-13.52-6.179-13.464
					c1.452,1.087,2.776,2.243,4.777,4.246C145.75,106.166,143.884,105.604,143.561,104.798z"/>
				<g>
					
						<linearGradient id="SVGID_11_" gradientUnits="userSpaceOnUse" x1="1727.2461" y1="-2316.9209" x2="1730.5693" y2="-2316.9209" gradientTransform="matrix(0.9075 0.4201 -0.4201 0.9075 -2409.9219 1473.2109)">
						<stop  offset="0" style="stop-color:#0B65AB"/>
						<stop  offset="0.3737" style="stop-color:#126CB2"/>
						<stop  offset="0.672" style="stop-color:#1B75BB"/>
						<stop  offset="0.8212" style="stop-color:#1C79BD"/>
						<stop  offset="0.9546" style="stop-color:#1E83C5"/>
						<stop  offset="1" style="stop-color:#1F89C9"/>
					</linearGradient>
					<path fill="url(#SVGID_11_)" d="M134.84,95.731c-0.204-0.144,0.163-2.175,0.163-2.175c-0.142,0.101-5.6,6.052-5.656,6.13
						c0,0,1.911,1.293,2.014,1.362C131.567,100.742,134.334,96.727,134.84,95.731z"/>
				</g>
			</g>
		</g>
	</g>
	<g>
		<linearGradient id="SVGID_12_" gradientUnits="userSpaceOnUse" x1="241.9102" y1="117.895" x2="234.2811" y2="263.4667">
			<stop  offset="0" style="stop-color:#CA8007"/>
			<stop  offset="1" style="stop-color:#DDA413"/>
		</linearGradient>
		<polygon fill="url(#SVGID_12_)" points="224.889,117.003 259.667,264.216 248.578,264.216 216.479,117.979 		"/>
		<linearGradient id="SVGID_13_" gradientUnits="userSpaceOnUse" x1="247.3438" y1="117.9697" x2="239.7294" y2="263.2606">
			<stop  offset="0" style="stop-color:#B4641E"/>
			<stop  offset="1" style="stop-color:#CA8007"/>
		</linearGradient>
		<polygon fill="url(#SVGID_13_)" points="228.898,117.003 261.186,263.728 257.961,264.216 225.862,117.979 		"/>
		<g>
			<g>
				<path fill="#231F20" d="M205.188,59.402l-3.378-1.671c-7.227,6.75-2.091,20.797-8.257,33.659l10.212,5.475l12.86-26.764
					C211.621,64.488,206.043,59.406,205.188,59.402z"/>
				<path fill="#231F20" d="M233.949,96.991c-2.885-6.977-6.418-13.048-11.027-19.127l-1.843,0.787l6.152,15.18L233.949,96.991z"/>
			</g>
			<g>
				<path fill="#C83214" d="M233.949,96.991l-3.381-1.671c-2.524-0.009-9.558,0.145-17.843,0.355l-14.318,29.184l9.186,47.771
					l-20.689,36.986l16.25-37.537l-10.449-53.894l11.51-22.206l-2.541-0.768c-1.756,3.662-20.283,8.285-23.199,19.562
					c-10.867,42.025-11.017,127.323-11.688,148.25l3.378,1.671l56.808,0.217c7.604-17.066,16.486-73.964,17.298-99.142
					C245.124,139.226,241.131,114.364,233.949,96.991z"/>
			</g>
			<g>
				<g>
					<path fill="#C83214" d="M232.919,105.214c5.929,10.332,8.916,25.224,8.663,42.169c7.676,0.374,15.051,2.719,21.71,6.727
						c1.052,0.634,4.716,2.496,5.625,5.176l3.378,1.672c0.058-0.701,0.104-1.461,0.131-2.309
						C273.3,131.521,258.242,109.022,232.919,105.214z"/>
					<path fill="#C83214" d="M172.992,105.112c-6.285,10.468-9.787,25.433-10.115,42.379c-11.363,0.804-22.224,5.9-31.191,14.261
						l-3.38-1.67C128.362,132.965,147.53,109.486,172.992,105.112z"/>
				</g>
				<g>
					<path fill="#F05A28" d="M229.541,103.542c5.928,10.333,8.915,25.226,8.661,42.17c11.34,0.553,22.028,5.409,30.715,13.573
						c0.056-0.7,0.103-1.459,0.129-2.307C269.922,129.85,254.862,107.353,229.541,103.542z"/>
					<path fill="#F05A28" d="M169.614,103.441c-6.286,10.467-9.789,25.435-10.116,42.379c-11.364,0.805-22.225,5.9-31.192,14.262
						c-0.033-0.699-0.053-1.459-0.053-2.308C128.313,130.657,144.151,107.815,169.614,103.441z"/>
				</g>
			</g>
			<g>
				<path fill="#F05A28" d="M230.568,95.32c0,0-8.052-1.728-16.129-3.136l-16.032,32.675l9.186,47.771l-20.689,36.986l14.785-39.979
					l-11.427-51.94l11.411-22.485c0,0-0.315-4.813-1.278-4.816c-7.643-0.029-29.76,4.697-29.76,4.697
					c-8.302,17.314-13.897,42.141-14.751,68.684c-0.813,25.178,4.398,82.127,10.901,99.247l56.806,0.217
					c7.604-17.066,16.486-73.963,17.3-99.14C241.746,137.556,237.752,112.693,230.568,95.32z"/>
			</g>
			<g>
				<path fill="#B41E00" d="M191.68,124.141c-5.85,2.05-11.01,6.229-14.167,12.126c-6.514,12.167-2.031,27.012,10.012,33.156
					c4.23,2.157,8.829,2.95,13.3,2.55l0.864-2.337L191.68,124.141z"/>
				<path fill="#B41E00" d="M211.112,125.357c-3.712-1.893-7.708-2.735-11.652-2.645l-1.053,2.146l8.786,45.698
					c5.754-2.079,10.817-6.227,13.932-12.044C227.639,146.344,223.156,131.5,211.112,125.357z"/>
			</g>
			<g>
				<path fill="#404041" d="M230.568,95.32c-2.354-5.697-5.795-11.442-9.489-16.669l-8.146,16.603L230.568,95.32z"/>
				<path fill="#404041" d="M201.81,57.731c-1.959-0.007-22.319,18.895-31.175,37.36l31.038,0.119l12.771-25.162
					C208.296,62.712,202.812,57.735,201.81,57.731z"/>
			</g>
		</g>
	</g>
	<g>
		<g>
			
				<linearGradient id="SVGID_14_" gradientUnits="userSpaceOnUse" x1="2889.2725" y1="-477.3594" x2="2952.313" y2="-477.3594" gradientTransform="matrix(1 -0.0066 0.0086 1.29 -2859.3569 734.2275)">
				<stop  offset="0.1989" style="stop-color:#D0D2D3"/>
				<stop  offset="0.6989" style="stop-color:#A6A8AB"/>
				<stop  offset="0.8656" style="stop-color:#808184"/>
			</linearGradient>
			<path fill="url(#SVGID_14_)" d="M69.302,99.912c4.952-13.024,20.604-12.88,19.4-13.393c-13.449-5.75-40.301-4.834-49.003-4.399
				c0.007,0-0.063,0.813,1.074,2.069c3.817,4.212-1.402,2.441,0.439,6.985c0.367,0.906,1.093,3.204,2.797,4.867
				c2.272,2.219,5.857,3.303,6.72,4.78c0.734,1.256-1.083,2.956-1.408,4.731c-0.27,1.479,0.574,3.415,1.417,4.298
				c0.976,1.022,6.053,1.61,6.966,2.419c4.212,3.738,9.436,4.284,9.593,4.22l1.765-7.381l1.872-5.72
				C70.928,103.396,69.181,100.231,69.302,99.912z"/>
		</g>
		<g>
			
				<linearGradient id="SVGID_15_" gradientUnits="userSpaceOnUse" x1="2892.415" y1="-477.4121" x2="2944.5586" y2="-477.4121" gradientTransform="matrix(1 -0.0066 0.0086 1.29 -2859.3569 734.2275)">
				<stop  offset="0" style="stop-color:#D0D2D3"/>
				<stop  offset="0.2258" style="stop-color:#A6A8AB"/>
				<stop  offset="0.7043" style="stop-color:#808184"/>
			</linearGradient>
			<path fill="url(#SVGID_15_)" d="M69.072,96.295c-0.181-0.762,11.841-8.19,11.952-8.166c-5.642-1.288-17.188,0.944-29.212,0.317
				c-4.949-0.258-6.714-0.134-9.246-2.166c-0.667-0.535-0.577-0.976-0.64-1.061c-0.018-0.022-0.423,0.14-0.927,0.593
				c-0.609,0.547-0.6,2.963-0.455,4.405c0.039,0.394,0.646,0.902,0.668,0.956c0.451,1.113,1.38,3.841,3.171,5.282
				c3.625,2.925,5.274,2.527,6.346,4.365c0.76,1.303-1.436,3.395-1.533,5.073c-0.074,1.29,0.735,3.113,1.542,3.957
				c0.057,0.06-0.813-1.185-0.813-1.185s-0.408,1.29,0.523,1.73c1.839,0.87,4.309,2.66,5.702,2.673
				c0.858,0.009,1.774-0.583,2.241-0.566C66.643,112.809,70.584,102.668,69.072,96.295z"/>
		</g>
		<g opacity="0.4">
			
				<radialGradient id="SVGID_16_" cx="-329.9043" cy="-4300.7383" r="6.5711" gradientTransform="matrix(6.0469 0.0122 1.0093 -0.972 6387.8594 -4089.8276)" gradientUnits="userSpaceOnUse">
				<stop  offset="0.1828" style="stop-color:#404041"/>
				<stop  offset="0.5879" style="stop-color:#5E5E60;stop-opacity:0.5043"/>
				<stop  offset="1" style="stop-color:#808184;stop-opacity:0"/>
			</radialGradient>
			<path fill="url(#SVGID_16_)" d="M83.724,87.348c3.442-1.229-14.467-4.702-33.024-4.713c-11.399-0.005-8.275-2.618-9.119-2.695
				c-1.377-0.125-1.908,1.545-1.899,2.32c0.011,0.785,1.807,2.69,2.11,3.219c0.021,0.038-0.225-0.249-1.106,0.591
				c-0.525,0.502-0.441,3.21-0.339,3.902c0.05,0.337,1.032,1.563,1.142,1.593c3.757,1.031,8.676,2.014,12.216,2.038
				C66.691,93.688,66.588,93.458,83.724,87.348z"/>
			
				<radialGradient id="SVGID_17_" cx="-280.2588" cy="-6348.5449" r="7.1159" gradientTransform="matrix(5.0912 -3.2628 0.3225 -1.3636 3540.9766 -9462.7891)" gradientUnits="userSpaceOnUse">
				<stop  offset="0.1828" style="stop-color:#404041"/>
				<stop  offset="0.5879" style="stop-color:#5E5E60;stop-opacity:0.5043"/>
				<stop  offset="1" style="stop-color:#808184;stop-opacity:0"/>
			</radialGradient>
			<path fill="url(#SVGID_17_)" d="M52.512,109.916c-0.127,0.083-1.724,0.511-1.828,0.602c1.476,0.522,3.742,2.306,4.5,2.396
				c1.308,0.153,2.589-0.539,2.836-0.346c5.896,4.583,9.343,3.576,9.358,3.566l2.446-8.076l1.271-4.5
				c0.488-0.661,15.504-10.258,19.542-13.538C84.032,90.413,69.851,98.417,52.512,109.916z"/>
		</g>
		<g opacity="0.7">
			
				<radialGradient id="SVGID_18_" cx="313.8457" cy="-5440.7598" r="6.2334" gradientTransform="matrix(3.1431 -0.8711 0.3225 -1.0973 836.1445 -5598.9365)" gradientUnits="userSpaceOnUse">
				<stop  offset="0.6882" style="stop-color:#404041"/>
				<stop  offset="0.8427" style="stop-color:#5E5E60;stop-opacity:0.5043"/>
				<stop  offset="1" style="stop-color:#808184;stop-opacity:0"/>
			</radialGradient>
			<path opacity="0.7" fill="url(#SVGID_18_)" d="M64.539,105.577c-2.53,0.957-7.486-10.819-4.698-11.68
				c14.303-4.411,23.806-4.529,24.482-0.909C85.301,98.213,73.281,102.272,64.539,105.577z"/>
			<g>
				
					<linearGradient id="SVGID_19_" gradientUnits="userSpaceOnUse" x1="2916.291" y1="-484.3481" x2="2917.2463" y2="-469.1105" gradientTransform="matrix(1 -0.0066 0.0086 1.29 -2859.3569 734.2275)">
					<stop  offset="0.1989" style="stop-color:#98D6F0"/>
					<stop  offset="0.3817" style="stop-color:#26A9E0"/>
					<stop  offset="0.586" style="stop-color:#1B75BB"/>
					<stop  offset="0.7312" style="stop-color:#98D6F0"/>
					<stop  offset="1" style="stop-color:#26A9E0"/>
				</linearGradient>
				<path fill="url(#SVGID_19_)" d="M64.655,99.137c-1.362-3.714-6.833-5.614-10.406-5.653c-8.349-0.093-12.433-0.572-13.066-2.297
					c0.438,1.194,1,3.501,2.907,5.124c2.016,1.714,5.557,2.797,6.493,4.363c0.763,1.276-1.342,3.474-1.353,5.27
					c-0.011,1.498,0.716,3.078,1.508,3.908C51.714,110.874,67.515,106.928,64.655,99.137z"/>
			</g>
			<g>
				
					<radialGradient id="SVGID_20_" cx="1966.0723" cy="1195.2148" r="6.7832" gradientTransform="matrix(0.9387 -0.3447 0.3447 0.9387 -2199.792 -338.9722)" gradientUnits="userSpaceOnUse">
					<stop  offset="0.6667" style="stop-color:#FFFFFF"/>
					<stop  offset="1" style="stop-color:#E6E7E8"/>
				</radialGradient>
				<path fill="url(#SVGID_20_)" d="M49.953,108.67c0.014,0.019-0.679,1.141,0.561,1.757c1.609,0.801,17.458-3.347,14.599-11.137
					c-0.038-0.102-0.079-0.196-0.123-0.291c1.994,7.19-13.374,11.609-14.658,10.428C50.189,109.296,49.931,108.668,49.953,108.67z"
					/>
			</g>
		</g>
		<g>
			
				<linearGradient id="SVGID_21_" gradientUnits="userSpaceOnUse" x1="1959.999" y1="1183.2715" x2="2021.874" y2="1183.2715" gradientTransform="matrix(0.9387 -0.3447 0.3447 0.9387 -2199.792 -338.9722)">
				<stop  offset="0" style="stop-color:#A6A8AB"/>
				<stop  offset="1" style="stop-color:#404041"/>
			</linearGradient>
			<path fill="url(#SVGID_21_)" d="M103.647,85.334c-6.776-2.701-9.49-4.465-23.68-6.563c-22.356-3.308-37.689,0.031-37.689,1.721
				c0.161,5.088,19.604,0.326,44.475,4.996c5.706,1.072,8.085,4.031,13.3,5.141C112.2,93.207,117.036,90.667,103.647,85.334z"/>
			<g>
				
					<linearGradient id="SVGID_22_" gradientUnits="userSpaceOnUse" x1="1502.2998" y1="-5115.0649" x2="1503.476" y2="-5109.7773" gradientTransform="matrix(0.8895 -0.4568 -0.5894 -1.1475 -4289.9438 -5097.1143)">
					<stop  offset="0" style="stop-color:#98D6F0"/>
					<stop  offset="1" style="stop-color:#26A9E0"/>
				</linearGradient>
				<path fill="url(#SVGID_22_)" d="M47.23,81.913c0.003-0.01,2.849-0.534,6.661-0.947c7.091-0.77,17.527-1.161,19.224,2.838
					c0.083,0.197-9.716-1.044-17.304-1.08C50.251,82.696,46.913,83.016,47.23,81.913z"/>
			</g>
			
				<linearGradient id="SVGID_23_" gradientUnits="userSpaceOnUse" x1="-5016.4111" y1="84.9761" x2="-4942.8135" y2="84.9761" gradientTransform="matrix(-1 0 0 1 -4903.1172 0)">
				<stop  offset="0" style="stop-color:#C0C2C4"/>
				<stop  offset="0.4425" style="stop-color:#D3D4D6"/>
				<stop  offset="1" style="stop-color:#E6E7E8"/>
			</linearGradient>
			<path fill="url(#SVGID_23_)" d="M104.883,85.213c-6.93-3.163-14.668-5.742-25.655-7.045c-12.521-1.486-17.663-2.105-25.737-1.032
				c-9.328,1.24-13.899,1.747-13.792,5.135c0.028,0.938,5.453,1.235,13.56,1.444c7.648,0.197,17.437,0.289,26.699,1.862
				c6.277,1.07,6.505,1.597,11.896,3.633c3.014,1.137,6.422,1.952,8.762,2.562C118.165,96.352,115.432,90.026,104.883,85.213z
				 M101.938,89.962c-4.665-0.993-10.979-4.139-16.084-5.096c-1.896-0.357-3.96-1.25-5.924-1.684
				c-7.308-1.615-18.225-1.306-26.299-1.487c-6.059-0.135-10.159-0.292-10.161-0.339c-0.055-1.748,3.382-1.828,10.282-2.637
				c7.649-0.897,14.939-0.402,26.005,1.235c12.692,1.877,14.674,3.289,20.735,5.705C114.07,91.066,114.576,92.647,101.938,89.962z"
				/>
			
				<linearGradient id="SVGID_24_" gradientUnits="userSpaceOnUse" x1="-4947.7427" y1="84.2568" x2="-4946.7573" y2="78.6692" gradientTransform="matrix(-1 0 0 1 -4903.1172 0)">
				<stop  offset="0.172" style="stop-color:#E6E7E8"/>
				<stop  offset="0.3656" style="stop-color:#C0C2C4"/>
				<stop  offset="0.5934" style="stop-color:#CACCCD"/>
				<stop  offset="0.9776" style="stop-color:#E4E5E6"/>
				<stop  offset="1" style="stop-color:#E6E7E8"/>
			</linearGradient>
			<path fill="url(#SVGID_24_)" d="M47.423,78.002c0.014,0.671,0.438,0.85,0.682,1.467c-3.465,0.506-4.671,0.732-4.635,1.887
				c0.002,0.033,2.001,0.119,5.262,0.215c-0.18,0.644-0.247,1.325-0.194,1.996c-5.422-0.213-8.816-0.555-8.839-1.296
				C39.602,79.209,43.606,78.817,47.423,78.002z"/>
		</g>
		
			<radialGradient id="SVGID_25_" cx="1286.2168" cy="-4827.4863" r="9.8539" gradientTransform="matrix(1.9466 -0.2095 0.3475 -1.0077 -777.041 -4495.4121)" gradientUnits="userSpaceOnUse">
			<stop  offset="0.1828" style="stop-color:#1B75BB"/>
			<stop  offset="0.6918" style="stop-color:#2294D1;stop-opacity:0.3771"/>
			<stop  offset="1" style="stop-color:#26A9E0;stop-opacity:0"/>
		</radialGradient>
		<path fill="url(#SVGID_25_)" d="M56.64,108.301c-6.903,1.801-6.372,1.854-7.352-1.866c-0.402-1.521,1.798-4.333,1.394-5.42
			c-0.856-2.284-2.989-1.627-6.298-4.558c-1.556-1.382-1.89-2.794-2.533-3.88c-0.287-0.485-0.5-0.978-0.323-1.043
			c0.568-0.211,0.385,2.005,12.307,2.06c4.646,0.022,9.619,1.952,11.276,6.401C66.073,102.583,61.154,107.124,56.64,108.301z"/>
		
			<radialGradient id="SVGID_26_" cx="1286.2305" cy="-4824.0723" r="8.166" gradientTransform="matrix(1.9466 -0.2095 0.3475 -1.0077 -777.041 -4495.4121)" gradientUnits="userSpaceOnUse">
			<stop  offset="0.1828" style="stop-color:#1B75BB"/>
			<stop  offset="0.6918" style="stop-color:#2294D1;stop-opacity:0.3771"/>
			<stop  offset="1" style="stop-color:#26A9E0;stop-opacity:0"/>
		</radialGradient>
		<path fill="url(#SVGID_26_)" d="M64.621,99.994c-1.239-3.308-6.854-5.724-10.617-5.534c-8.408,0.431-12.086-1.719-12.153-1.834
			c-0.287-0.485-0.5-1.026-0.323-1.092c0.563-0.209,0.258,1.956,12.307,2.012c4.646,0.02,9.619,2,11.276,6.449
			C65.746,101.706,65.027,101.08,64.621,99.994z"/>
		<g>
			
				<linearGradient id="SVGID_27_" gradientUnits="userSpaceOnUse" x1="1909.918" y1="-5514.4971" x2="1906.0774" y2="-5525.0488" gradientTransform="matrix(0.9387 -0.3447 -0.3447 -0.9387 -3637.8599 -4419.8545)">
				<stop  offset="0" style="stop-color:#FFFFFF;stop-opacity:0"/>
				<stop  offset="0.6344" style="stop-color:#FFFFFF"/>
			</linearGradient>
			<path opacity="0.5" fill="url(#SVGID_27_)" d="M59.952,106.652c-1.42,1.356-7.065,2.772-7.319,2.842
				c-2.95-4.034,2.67-6.189,0.184-8.975c-3.067-3.439,4.048-2.554,6.221,0.025C60.581,102.375,58.925,103.604,59.952,106.652z"/>
		</g>
	</g>
	<g>
		<g>
			<polygon fill="#E6E7E8" points="135.381,173.155 141.707,173.647 146.012,167.104 145.289,166.713 140.326,169.455 
				136.697,167.049 137.414,163.048 141.716,160.086 140.991,159.697 133.115,160.945 130.95,168.359 			"/>
			<polygon fill="#BBBDBF" points="135.664,163.02 141.716,160.086 140.991,159.697 133.115,160.945 			"/>
			<polygon fill="#A6A8AB" points="141.707,173.647 146.012,167.104 145.413,166.729 140.326,169.455 			"/>
			<polygon fill="#E6E7E8" points="134.62,172.725 115.478,196.734 112.131,192.41 131.368,169.207 134.015,170.095 			"/>
			<polygon fill="#D0D2D3" points="135.29,173.334 116.147,197.343 112.8,193.019 132.038,169.814 134.685,170.701 			"/>
			<polygon fill="#FFFFFF" points="132.291,170.184 113.052,193.438 112.8,193.019 132.038,169.814 			"/>
			<path fill="#FFFFFF" d="M132.166,172.724c0.718,0.198,1.007,1.324,0.087,2.548c-0.597,0.797-17.155,20.908-17.155,20.908
				l-0.369-0.479c0.629-0.785,16.51-20.059,17.052-20.777C132.45,174.031,132.478,173.191,132.166,172.724z"/>
			<path fill="#A6A8AB" d="M113.333,193.944c0,0,16.603-19.906,17.215-20.631c0.798-0.946,1.604-0.901,1.962-0.363
				c-0.405-0.112-0.948,0.073-1.487,0.711c-0.612,0.726-17.215,20.633-17.215,20.633L113.333,193.944z"/>
			<polygon fill="#A6A8AB" points="135.29,173.334 134.878,173.881 131.455,170.507 132.038,169.814 134.685,170.701 			"/>
			<polygon fill="#D0D2D3" points="136.323,173.822 142.65,174.313 146.872,168.564 146.012,167.104 141.27,170.122 
				137.641,167.717 138.355,163.715 142.345,161.443 141.716,160.086 134.06,161.611 131.894,169.026 			"/>
			<g>
				<polygon fill="#F1F1F2" points="141.224,170.068 145.936,167.068 146.193,167.51 141.688,170.375 				"/>
			</g>
			<polygon fill="#FFFFFF" points="132.354,169.524 134.343,162.068 141.922,160.536 141.716,160.086 134.06,161.611 
				131.894,169.026 			"/>
		</g>
	</g>
	<g>
		<path fill="#5B5B5B" d="M69.161,111.644c-4.083,3.836-12.354,10.226-19.405,19.157c-4.183,5.301-7.102,14.04-3.668,15.569
			c0.415,0.185,1.215-1.381,1.649-1.206c0.369,0.15,0.371,2.042,0.753,2.189c0.52,0.199,1.627-1.451,2.162-1.252
			c0.57,0.21,0.569,2.271,1.146,2.486c0.521,0.197,1.687-1.419,2.179-1.238c0.493,0.181,0.313,2.157,0.822,2.379
			c0.422,0.184,1.242-1.117,1.647-0.942c0.23,0.099,0.043,1.657,0.273,1.776c0.356,0.186,1.115-0.889,1.437-0.699
			c0.32,0.188,0.207,1.64,0.535,1.862c0.304,0.205,1.147-0.906,1.451-0.703c0.305,0.203,0.07,1.721,0.345,1.962
			c0.324,0.286,1.19-0.229,1.485,0.064c0.327,0.327,0.077,1.467,0.359,1.858c0.28,0.39,1.309,0.128,1.537,0.576
			c0.231,0.449-0.34,1.609-0.16,2.059c2.014,5.042,4.73,11.506,8.233,10.482C75.742,166.912,79.026,102.372,69.161,111.644z"/>
		
			<linearGradient id="SVGID_28_" gradientUnits="userSpaceOnUse" x1="1956.0605" y1="1212.1025" x2="1959.7085" y2="1222.1254" gradientTransform="matrix(0.9387 -0.3447 0.3447 0.9387 -2199.792 -338.9722)">
			<stop  offset="0.2258" style="stop-color:#808184"/>
			<stop  offset="0.914" style="stop-color:#58595B"/>
		</linearGradient>
		<path fill="url(#SVGID_28_)" d="M51.737,132.833c7.048-8.932,15.184-15.17,19.267-19.006c0.128-0.122-0.769-2.923-1.986-1.779
			c-4.082,3.837-12.354,10.226-19.402,19.157c-4.063,5.147-7.038,13.976-3.857,14.333C46.777,145.653,47.604,138.066,51.737,132.833
			z"/>
		<g>
			<path fill="#404041" d="M62.84,152.273c-0.187-0.467-1.624,0.268-1.864-0.152c-0.257-0.45,0.215-2.342-0.097-2.743
				c-0.309-0.396-1.308,1.174-1.662,0.822c-0.319-0.319,0.012-2.563-0.339-2.848c-0.379-0.31-1.252,2.185-1.662,1.907
				c-0.3-0.202-0.13-3.182-0.444-3.369c-0.372-0.22-1.364,2.421-1.753,2.218c-0.403-0.211-0.204-3.266-0.621-3.461
				c-0.523-0.244-1.915,2.032-2.453,1.809c-0.532-0.221-0.21-2.941-0.748-3.148c-0.531-0.205-1.925,2.104-2.453,1.908
				c-0.439-0.163-1.902-1.002-2.358-1.179c-0.43-0.167-0.764-1.421-1.179-1.593c-0.539,1.921-0.39,3.415,0.899,3.991
				c0.389,0.172,1.977,0.819,2.379,0.974c0.548,0.209,1.535-0.837,2.1-0.627c0.54,0.2,0.655,1.656,1.203,1.861
				c0.601,0.225,1.632-0.797,2.229-0.559c0.394,0.158,0.354,1.575,0.74,1.743c0.371,0.161,1.171-0.929,1.534-0.757
				c0.289,0.136,0.146,1.529,0.43,1.674c0.318,0.162,1.061-0.926,1.366-0.752c0.348,0.194,0.255,1.651,0.587,1.863
				c0.338,0.218,1.097-0.812,1.416-0.576c0.257,0.189,0.074,1.64,0.316,1.844c0.356,0.3,1.252-0.179,1.573,0.155
				c0.304,0.316,0.034,1.442,0.304,1.792c0.289,0.378,1.183,0.104,1.424,0.526c0.242,0.422-0.17,1.541,0.018,2.011
				c0.066,0.163,0.875-2.167,0.5-3.083c-0.176-0.431-1.478,0.69-1.654,0.258C62.262,154.02,62.893,152.407,62.84,152.273z"/>
		</g>
	</g>
	<g>
		<path fill="#231F20" d="M149.625,260.917c-0.261,3.545-14.83,6.777-25.536,3.601c-5.065-1.501-19.653-2.089-16.943-10.142
			c2.858-8.507,4.343-3.384,19.88-0.569C149.727,257.916,150.29,251.908,149.625,260.917z"/>
		
			<linearGradient id="SVGID_29_" gradientUnits="userSpaceOnUse" x1="2702.7344" y1="-4.1709" x2="2745.71" y2="-4.1709" gradientTransform="matrix(1 0.0082 -0.0082 1 -2595.9556 238.2515)">
			<stop  offset="0" style="stop-color:#404041"/>
			<stop  offset="1" style="stop-color:#58595B"/>
		</linearGradient>
		<path fill="url(#SVGID_29_)" d="M149.636,259.536c-0.261,3.546-14.83,6.777-25.536,3.603c-5.063-1.503-19.651-2.089-16.942-10.142
			c2.858-8.506,4.344-3.385,19.877-0.571C149.739,256.536,150.301,250.528,149.636,259.536z"/>
		<path fill="#231F20" d="M148.416,256.086c-1.008,2.985-13.748,5.94-23.774,2.568c-8.224-2.767-17.744-1.606-15-9.769
			c0.829-2.461,2.749-4.162,2.224-7.834c-0.464-3.233-1.12-6.356-0.892-7.819c0.17-1.095,16.28,2.539,16.344,3.169
			c0.538,5.295,2.61,8.311,4.791,10.117c7.14,5.911,15.709,2.185,16.445,5.57C148.829,253.362,148.879,254.705,148.416,256.086z"/>
		<g>
			
				<linearGradient id="SVGID_30_" gradientUnits="userSpaceOnUse" x1="2703.9775" y1="-5.542" x2="2745.7441" y2="-5.542" gradientTransform="matrix(1 0.0082 -0.0082 1 -2595.9556 238.2515)">
				<stop  offset="0" style="stop-color:#58595B"/>
				<stop  offset="1" style="stop-color:#A6A8AB"/>
			</linearGradient>
			<path fill="url(#SVGID_30_)" d="M148.612,255.677c-1.007,2.985-12.871,6.198-22.897,2.826
				c-2.863-0.963-18.985-0.783-15.874-10.025c0.003-0.011,0.007-0.022,0.011-0.033c-0.674,0.516-1.16,0.784-1.751,2.325
				c0.072,8.281,11.564,7.689,17.596,9.479c12.04,3.571,24.162-1.036,24.127-3.669c-0.02-1.503-0.367-1.503-0.952-2.161
				C148.832,254.956,148.798,255.125,148.612,255.677z"/>
		</g>
		
			<linearGradient id="SVGID_31_" gradientUnits="userSpaceOnUse" x1="2730.7158" y1="-3.4404" x2="2734.2573" y2="-13.1707" gradientTransform="matrix(1 0.0082 -0.0082 1 -2595.9556 238.2515)">
			<stop  offset="0.1935" style="stop-color:#231F20"/>
			<stop  offset="0.7796" style="stop-color:#58595B"/>
		</linearGradient>
		<path fill="url(#SVGID_31_)" d="M143.501,255.48c-1.587,0.581-13.526-0.241-18.091-1.778c-3.274-1.099,4.672-8.88,6.798-7.121
			c7.14,5.911,15.708,2.185,16.445,5.57C148.691,252.332,146.09,254.533,143.501,255.48z"/>
	</g>
	<g>
		<path fill="#231F20" d="M47.89,271.382c0.116,5.121,13.888,6.322,18.267,5.264c5.195-1.257,8.433-3.798,10.942-7.314
			c1.205-1.69,1.919-2.897,1.967-3.887c0.222-4.525-0.042-5.598-19.823-3.05C46.723,264.008,47.728,264.216,47.89,271.382z"/>
		
			<linearGradient id="SVGID_32_" gradientUnits="userSpaceOnUse" x1="-4575.3228" y1="-118.7607" x2="-4544.4238" y2="-118.7607" gradientTransform="matrix(-0.9991 -0.0428 -0.0428 0.9991 -4497.3301 189.9468)">
			<stop  offset="0" style="stop-color:#404041"/>
			<stop  offset="1" style="stop-color:#58595B"/>
		</linearGradient>
		<path fill="url(#SVGID_32_)" d="M47.949,270.003c0.116,5.121,13.83,6.322,18.207,5.263c2.729-0.659,8.785-4.088,10.566-7.936
			c0.338-0.732,2.661-3.799,2.401-4.729c-2.24-7.996,0.862-4.251-19.823-1.585C50.674,262.128,47.8,263.406,47.949,270.003z"/>
		<path fill="#231F20" d="M49.343,266.62c1.142,4.047,10.254,4.542,16.813,2.702c5.588-1.567,12.018-6.241,10.694-10.953
			c-0.7-2.501-0.769-2.547-1.282-4.981c-0.672-3.196-0.07-8.296-0.224-9.77c-0.114-1.101-15.049-1.215-14.921-0.596
			c0.157,0.757-2.032,12.793-6.601,16.2c-3.189,2.377-3.711,1.79-4.412,4.375C49.069,264.854,48.95,265.215,49.343,266.62z"/>
		<g>
			
				<linearGradient id="SVGID_33_" gradientUnits="userSpaceOnUse" x1="-4574.3262" y1="-121.249" x2="-4544.3027" y2="-121.249" gradientTransform="matrix(-0.9991 -0.0428 -0.0428 0.9991 -4497.3301 189.9468)">
				<stop  offset="0" style="stop-color:#58595B"/>
				<stop  offset="1" style="stop-color:#A6A8AB"/>
			</linearGradient>
			<path fill="url(#SVGID_33_)" d="M49.169,266.199c0.555,1.975,12.313,4.228,16.987,2.917c2.083-0.584,6.147-2.677,8.058-5.578
				c1.407-2.14,2.808-4.358,2.461-5.588c-0.004-0.011-0.007-0.022-0.01-0.033c0.019,0.016,0.443-2.209,1.629,1.434
				c-0.044,0.743-1.948,2.767-3.336,5.254c-1.481,2.653-5.624,5.488-8.802,6.255c-4.352,1.054-18.449-0.594-18.243-3.819
				c0.096-1.499,0.443-1.481,1.06-2.109C48.984,265.47,49.01,265.64,49.169,266.199z"/>
		</g>
		
			<linearGradient id="SVGID_34_" gradientUnits="userSpaceOnUse" x1="-2699.0088" y1="2077.1807" x2="-2694.6067" y2="2065.0862" gradientTransform="matrix(-0.753 0.658 0.658 0.753 -3333.1802 473.6133)">
			<stop  offset="0.1935" style="stop-color:#231F20"/>
			<stop  offset="0.7796" style="stop-color:#58595B"/>
		</linearGradient>
		<path fill="url(#SVGID_34_)" d="M62.89,264.321c1.582-0.594,3.359-3.396,5.821-7.538c1.766-2.967-9.902-5.304-11.119-2.828
			c-3.5,7.101-6.607,6.725-6.055,7.752C52.434,263.356,60.804,265.105,62.89,264.321z"/>
	</g>
	
		<linearGradient id="SVGID_35_" gradientUnits="userSpaceOnUse" x1="-4676.2969" y1="796.5313" x2="-4638.0996" y2="796.5313" gradientTransform="matrix(-0.9806 0.1964 0.1964 0.9806 -4612.0576 340.2285)">
		<stop  offset="0.1774" style="stop-color:#1B75BB"/>
		<stop  offset="0.4735" style="stop-color:#1B75BB"/>
		<stop  offset="0.4785" style="stop-color:#1B75BB"/>
		<stop  offset="1" style="stop-color:#26A9E0"/>
	</linearGradient>
	<path fill="url(#SVGID_35_)" d="M102.916,249.613c0.523,4.678,10.593,3.147,16.692,2.103c7.194-1.229,13.479-2.385,12.948-8.441
		c-1.01-11.524-2.342-27.065-4.096-39.228c-1.55-10.757-6.295-39.393-6.295-39.393l-38.825,0.661c0,0,11.68,34.847,14.498,46.115
		C100.824,223.376,101.651,238.305,102.916,249.613z"/>
	
		<linearGradient id="SVGID_36_" gradientUnits="userSpaceOnUse" x1="-5153.3379" y1="-233.376" x2="-5104.7168" y2="-247.0679" gradientTransform="matrix(-0.9929 -0.119 -0.119 0.9929 -5046.5508 -163.4976)">
		<stop  offset="0.2312" style="stop-color:#1B75BB"/>
		<stop  offset="0.2612" style="stop-color:#1C78BD"/>
		<stop  offset="0.5483" style="stop-color:#2193D0"/>
		<stop  offset="0.8038" style="stop-color:#25A3DC"/>
		<stop  offset="1" style="stop-color:#26A9E0"/>
	</linearGradient>
	<path fill="url(#SVGID_36_)" d="M55.494,251.782c-0.266,4.406,3.926,4.788,10.756,5.559c6.561,0.739,15.239,1.568,16.379-2.718
		c3.109-11.688,4.536-25.612,7.231-37.701c0.752-3.373,7.808-23.731,10.035-33.768c3.298-14.863,12.362-11.935,12.362-11.935
		s0.596-3.248-15.333-5.618c-15.55-2.313-29.665-5.555-29.665-5.555s-6.556,39.088-7.922,50.022
		C57.751,222.789,56.242,239.385,55.494,251.782z"/>
	<g>
		<g>
			<g>
				<g>
					
						<linearGradient id="SVGID_37_" gradientUnits="userSpaceOnUse" x1="-2439.8174" y1="-198.5508" x2="-2387.605" y2="-277.2473" gradientTransform="matrix(-0.9901 -0.14 -0.14 0.9901 -2329.4385 26.498)">
						<stop  offset="0" style="stop-color:#249DD7"/>
						<stop  offset="0.1882" style="stop-color:#26A9E0"/>
					</linearGradient>
					<path fill="url(#SVGID_37_)" d="M66.625,105.483c0.432-5.25-2.454-12.276,4.069-17.898c1.909-1.646,18.768-3.541,26.066-4.227
						c6.072-0.57,20.476,3.612,22.884,5.853c5.554,5.17-1.242,34.385,3.075,77.594c0.439,4.383-56.04,4.739-55.824,0.512
						C68.067,144.261,65.395,120.429,66.625,105.483z"/>
				</g>
				<g>
					
						<linearGradient id="SVGID_38_" gradientUnits="userSpaceOnUse" x1="-2445.7681" y1="-237.5996" x2="-2385.7151" y2="-229.1081" gradientTransform="matrix(-0.9901 -0.14 -0.14 0.9901 -2329.4385 26.498)">
						<stop  offset="0" style="stop-color:#1B75BB"/>
						<stop  offset="0.4283" style="stop-color:#1B75BB"/>
						<stop  offset="0.4355" style="stop-color:#1B75BB"/>
						<stop  offset="0.8441" style="stop-color:#26A9E0"/>
					</linearGradient>
					<path fill="url(#SVGID_38_)" d="M96.761,83.358c6.072-0.57,22.844,4.301,25.423,6.34c4.146,3.277,2.241,10.287,3.029,20.613
						c1.359,17.845-6.099,21.815-2.493,51.608c0.369,3.043,1.287,13.224,1.326,14.979c0.181,8.168-9.871,9.853-10.635,2.098
						c-0.524-5.306-3.364-8.252-9.265-7.952c-10.79,0.549-27.414-1.753-27.448-0.958C79.752,98.128,37.024,88.978,96.761,83.358z"/>
				</g>
			</g>
		</g>
	</g>
	<g>
		<g>
			
				<linearGradient id="SVGID_39_" gradientUnits="userSpaceOnUse" x1="2003.7383" y1="1200.1777" x2="2003.7383" y2="1277.1504" gradientTransform="matrix(0.9387 -0.3447 0.3447 0.9387 -2199.792 -338.9722)">
				<stop  offset="0.6344" style="stop-color:#ADAFB2"/>
				<stop  offset="0.8127" style="stop-color:#9EA0A3"/>
				<stop  offset="1" style="stop-color:#929497"/>
			</linearGradient>
			<path fill="url(#SVGID_39_)" d="M106.31,174.203c2.618-3.845,4.086-50.898,3.665-63.25c-0.223-6.516-1.413-18.53-1.455-18.583
				l1.168-0.885c0.174,0.228,1.699,7.029,2.094,19.891c0.465,15.222-1.472,59.733-3.661,62.683L106.31,174.203z"/>
		</g>
	</g>
	<g>
		
			<linearGradient id="SVGID_40_" gradientUnits="userSpaceOnUse" x1="5758.3174" y1="189.5605" x2="5785.7109" y2="189.5605" gradientTransform="matrix(0.6127 0.0712 -0.0678 0.5836 -3430.7666 -362.9458)">
			<stop  offset="0" style="stop-color:#0B65AB"/>
			<stop  offset="1" style="stop-color:#1B75BB"/>
		</linearGradient>
		<path fill="url(#SVGID_40_)" d="M100.327,167.876c0,0-1.084,1.287-1.239,1.316c-2.432,0.461-13.703,0.475-13.87,0.485
			c0,0,0.183-4.055,0.368-8.598c0.229-5.685,0.143-13.962,0.143-13.962c0.206-0.009,15.657,0.597,15.657,0.597
			s-0.127,11.109-0.446,14.039C100.824,162.795,100.327,167.876,100.327,167.876z"/>
		
			<linearGradient id="SVGID_41_" gradientUnits="userSpaceOnUse" x1="5760.1963" y1="189.0039" x2="5788.0107" y2="189.0039" gradientTransform="matrix(0.6127 0.0712 -0.0678 0.5836 -3430.7666 -362.9458)">
			<stop  offset="0" style="stop-color:#1B75BB"/>
			<stop  offset="0.4265" style="stop-color:#1D80C2"/>
			<stop  offset="1" style="stop-color:#2295D1"/>
		</linearGradient>
		<path fill="url(#SVGID_41_)" d="M100.365,167.901c0,0-13.823,0.521-13.989,0.529c0,0,0.183-4.054,0.366-8.598
			c0.091-2.213,0.08-3.937,0.087-5.88c0.001-0.271,2.354,0.017,2.354-0.24c0.001-2.333-1.897-4.864-2.348-6.092
			c0.206-0.008,14.477,0.809,14.477,0.809s1.896,2.643,2.163,4.62c0.036,0.26-1.763,0.307-1.761,0.59
			c0.015,1.914-0.075,4.352-0.389,7.318C101.152,162.593,100.365,167.901,100.365,167.901z"/>
		
			<linearGradient id="SVGID_42_" gradientUnits="userSpaceOnUse" x1="5760.1963" y1="176.749" x2="5787.083" y2="176.749" gradientTransform="matrix(0.6127 0.0712 -0.0678 0.5836 -3430.7666 -362.9458)">
			<stop  offset="0" style="stop-color:#1B75BB"/>
			<stop  offset="1" style="stop-color:#2296D2"/>
		</linearGradient>
		<path fill="url(#SVGID_42_)" d="M89.566,154.232c0-2.331-2.28-5.383-2.73-6.612c0.206-0.008,14.477,0.809,14.477,0.809
			s1.381,2.128,1.647,4.104c0.035,0.26-2.881,2.67-2.881,2.67S89.566,154.49,89.566,154.232z"/>
		<g>
			
				<linearGradient id="SVGID_43_" gradientUnits="userSpaceOnUse" x1="2363.5801" y1="781.5508" x2="2380.2754" y2="781.5508" gradientTransform="matrix(0.9809 -0.1943 0.1943 0.9809 -2384.0996 -154.6357)">
				<stop  offset="0" style="stop-color:#005AA0"/>
				<stop  offset="1" style="stop-color:#1F89C9"/>
			</linearGradient>
			<path fill="url(#SVGID_43_)" d="M103.288,153.832c-0.009-0.264-0.025-0.825-0.025-0.825c-0.139-0.05-4.999,1.685-5.675,1.59
				c-0.413-0.059-5.19-0.037-8.625-1.45c-0.378-0.156-2.455-5.649-2.467-5.648c0,0-0.018,6.592-0.012,6.723
				c2.276,0.767,10.188,1.306,11.061,1.427C98.14,155.731,102.367,154.076,103.288,153.832z"/>
		</g>
		<path fill="#005AA0" d="M96.798,153.482c-0.503,0.492-1.467,0.252-2.149-0.537c-0.684-0.791-0.83-1.83-0.326-2.324
			c1.017-0.995,1.48-0.234,2.148,0.537C97.17,151.967,97.815,152.486,96.798,153.482z"/>
		<path fill="#A6A8AB" d="M97.828,153.129c-0.503,0.493-1.466,0.252-2.15-0.537c-0.684-0.79-0.829-1.831-0.326-2.323
			c0.504-0.494,1.466-0.252,2.15,0.537C98.186,151.597,98.331,152.637,97.828,153.129z"/>
	</g>
	<g>
		<path fill="#58595B" d="M104.137,83.878c-9.45-3.867-23.878,0.936-18.359,2.108c5.679,1.205,9.061,3.541,14.275,4.65
			C112.2,93.218,117.474,89.335,104.137,83.878z"/>
		
			<linearGradient id="SVGID_44_" gradientUnits="userSpaceOnUse" x1="-5016.1602" y1="87.7451" x2="-4928.6851" y2="87.7451" gradientTransform="matrix(-1 0 0 1 -4903.1172 0)">
			<stop  offset="0" style="stop-color:#C0C2C4"/>
			<stop  offset="0.4425" style="stop-color:#D3D4D6"/>
			<stop  offset="1" style="stop-color:#E6E7E8"/>
		</linearGradient>
		<path fill="url(#SVGID_44_)" d="M79.845,83.17c4.754,1.297,17.401,5.336,21.312,6.166c12.639,2.687,12.424-0.215-1.152-5.621
			c-0.91-0.362,2.642-0.756,4.391,0.042c10.549,4.813,13.771,11.627-3.78,7.05c-2.34-0.612-16.908-4.25-22.935-5.784
			C78.027,84.461,79.727,83.828,79.845,83.17z"/>
	</g>
	<g>
		<g>
			<g>
				<g>
					<g>
						
							<linearGradient id="SVGID_45_" gradientUnits="userSpaceOnUse" x1="1543.1494" y1="-2135.4688" x2="1551.375" y2="-2152.6233" gradientTransform="matrix(0.8636 0.5042 -0.5042 0.8636 -2369.6047 1208.0166)">
							<stop  offset="0" style="stop-color:#2296D2"/>
							<stop  offset="0.0486" style="stop-color:#25A2DB"/>
							<stop  offset="0.0968" style="stop-color:#26A9E0"/>
							<stop  offset="0.6452" style="stop-color:#26A9E0"/>
							<stop  offset="0.871" style="stop-color:#4ED1FF"/>
						</linearGradient>
						<path fill="url(#SVGID_45_)" d="M65.111,147.746c-4.237-4.843-14.067-19.515-15.59-25.444
							c-0.365-1.42-22.937-3.198-21.661,0.321c3.308,9.127,22.35,32.183,27.025,35.025C57.59,159.29,67.395,150.357,65.111,147.746z
							"/>
						
							<linearGradient id="SVGID_46_" gradientUnits="userSpaceOnUse" x1="1552.2256" y1="-2243.4873" x2="1546.9235" y2="-2226.4167" gradientTransform="matrix(0.7356 0.6773 -0.6773 0.7356 -2608.4946 732.8838)">
							<stop  offset="0.2634" style="stop-color:#26A9E0"/>
							<stop  offset="0.3099" style="stop-color:#25A3DC"/>
							<stop  offset="0.672" style="stop-color:#1B75BB"/>
						</linearGradient>
						<path fill="url(#SVGID_46_)" d="M62.733,151.066c-5.792-3.426-18.483-18.81-20.617-27.119
							c-0.688-2.673-14.7-3.796-14.256-1.324c2.101,11.68,14.795,27.752,27.16,35.094C57.06,158.935,65.254,152.555,62.733,151.066z
							"/>
						
							<linearGradient id="SVGID_47_" gradientUnits="userSpaceOnUse" x1="1538.2881" y1="-2154.4375" x2="1538.4805" y2="-2133.7148" gradientTransform="matrix(0.8636 0.5042 -0.5042 0.8636 -2369.6047 1208.0166)">
							<stop  offset="0" style="stop-color:#003C64"/>
							<stop  offset="0.1244" style="stop-color:#024069;stop-opacity:0.8436"/>
							<stop  offset="0.2737" style="stop-color:#064D78;stop-opacity:0.656"/>
							<stop  offset="0.4358" style="stop-color:#0D6390;stop-opacity:0.4523"/>
							<stop  offset="0.607" style="stop-color:#1880B2;stop-opacity:0.2372"/>
							<stop  offset="0.7836" style="stop-color:#25A6DD;stop-opacity:0.0152"/>
							<stop  offset="0.7957" style="stop-color:#26A9E0;stop-opacity:0"/>
						</linearGradient>
						<path opacity="0.5" fill="url(#SVGID_47_)" d="M55.565,134.596c-1.515-2.41-3.578-5.902-4.089-7.898
							c-0.366-1.42-24.003-7.798-23.616-4.074c0.786,7.57,6.321,14.551,11.723,21.004c0.371,0.442-1.32-6.914,1.514-8.591
							C49.679,129.955,56.954,136.807,55.565,134.596z"/>
					</g>
					<path fill="#1B75BB" d="M55.021,157.261c2.687,2.017,11.9-7.577,9.751-9.438C62.901,146.201,53.187,155.881,55.021,157.261z"/>
				</g>
				<g>
					
						<linearGradient id="SVGID_48_" gradientUnits="userSpaceOnUse" x1="1429.9023" y1="-2926.5737" x2="1429.9023" y2="-2944.3779" gradientTransform="matrix(0.575 0.8181 -0.8181 0.575 -3169.9912 665.167)">
						<stop  offset="0.2527" style="stop-color:#005096"/>
						<stop  offset="0.6806" style="stop-color:#0E63A9"/>
						<stop  offset="1" style="stop-color:#1B75BB"/>
					</linearGradient>
					<path fill="url(#SVGID_48_)" d="M62.115,144.351c0.02,0.018,0.408-0.44,0.13-0.748c-0.169-0.186-0.909-0.091-1.134-0.353
						c-1.176-1.368-2.83-3.551-3.272-4.116c-2.496-3.189-14.803,9.4-12.096,11.903c1.305,1.206,3.681,3.502,5.354,4.692
						c0.395,0.281,0.667-0.314,0.682-0.303C51.646,154.449,60.321,144.694,62.115,144.351z"/>
				</g>
				<g>
					
						<linearGradient id="SVGID_49_" gradientUnits="userSpaceOnUse" x1="1534.4072" y1="-1355.708" x2="1526.288" y2="-1338.9688" gradientTransform="matrix(0.9454 0.3259 -0.3259 0.9454 -1831.9443 921.9443)">
						<stop  offset="0.1613" style="stop-color:#44C7FE"/>
						<stop  offset="0.3548" style="stop-color:#26A9E0"/>
						<stop  offset="0.4166" style="stop-color:#25A3DC"/>
						<stop  offset="0.8978" style="stop-color:#1B75BB"/>
					</linearGradient>
					<path fill="url(#SVGID_49_)" d="M62.245,143.603c-0.58-0.507-2.939-3.319-3.558-4.109
						c-1.938-2.482-14.662,10.667-12.537,12.631c1.484,1.373,3.288,2.389,4.946,3.604C50.61,152.172,58.982,144.228,62.245,143.603z
						"/>
				</g>
				
					<linearGradient id="SVGID_50_" gradientUnits="userSpaceOnUse" x1="1460.2441" y1="-2849.8779" x2="1463.6318" y2="-2849.8779" gradientTransform="matrix(0.6114 0.7914 -0.7914 0.6114 -3091.0479 727.8525)">
					<stop  offset="0" style="stop-color:#0B65AB"/>
					<stop  offset="1" style="stop-color:#1B75BB"/>
				</linearGradient>
				<path fill="url(#SVGID_50_)" d="M59.231,143.879c-0.391,0.328-1.195,0.013-1.797-0.703s-0.773-1.563-0.384-1.891
					c0.79-0.662,1.209,0.003,1.798,0.702C59.465,142.72,60.021,143.216,59.231,143.879z"/>
				
					<ellipse transform="matrix(0.6434 0.7655 -0.7655 0.6434 129.7655 5.8669)" fill="#D0D2D3" cx="58.585" cy="142.22" rx="1.693" ry="0.923"/>
			</g>
			<g>
				
					<linearGradient id="SVGID_51_" gradientUnits="userSpaceOnUse" x1="1342.8789" y1="-2930.2993" x2="1341.6876" y2="-2907.5688" gradientTransform="matrix(0.7278 0.6858 -0.6858 0.7278 -2911.2378 1358.2969)">
					<stop  offset="0.0968" style="stop-color:#FCDF27"/>
					<stop  offset="0.5161" style="stop-color:#FDEC7C"/>
					<stop  offset="0.7903" style="stop-color:#FCDF27"/>
					<stop  offset="0.914" style="stop-color:#CA8007"/>
					<stop  offset="1" style="stop-color:#DDA413"/>
				</linearGradient>
				<path fill="url(#SVGID_51_)" d="M75.527,146.631c-0.271-0.697-2.557-3.473-4.668-1.656c-0.36,0.313-5.386,5.316-6.551,4.75
					c-2.514-1.222-10.527,8.716-7.34,10.031c4.977,2.051,9.58,1.314,12.328,2.844C69.788,162.873,73.305,145.464,75.527,146.631z"/>
				
					<linearGradient id="SVGID_52_" gradientUnits="userSpaceOnUse" x1="1347.1299" y1="-2934.271" x2="1346.0732" y2="-2914.1082" gradientTransform="matrix(0.7278 0.6858 -0.6858 0.7278 -2911.2378 1358.2969)">
					<stop  offset="0.0968" style="stop-color:#FCDF27"/>
					<stop  offset="0.914" style="stop-color:#CA8007"/>
					<stop  offset="1" style="stop-color:#DDA413"/>
				</linearGradient>
				<path fill="url(#SVGID_52_)" d="M70.346,163.283c0.093-0.271,2.137-2.789,4.136-5.693c0.245-0.355,6.838,0.261,7.076-0.103
					c0.469-0.71,0.92-1.429,1.327-2.132c0.326-0.563-9.623-4.535-9.347-5.064c0.132-0.252,7.584,0.479,7.701,0.24
					c0.665-1.356,1.073-2.497,1.005-3.168c-0.038-0.365-8.341-2.231-9.599-2.813c0.406,0.19-2.668,12.754-4.464,15.577
					C67.77,160.774,69.881,164.672,70.346,163.283z"/>
			</g>
		</g>
		<g>
			
				<linearGradient id="SVGID_53_" gradientUnits="userSpaceOnUse" x1="339.7295" y1="-444.626" x2="370.458" y2="-428.0113" gradientTransform="matrix(0.9796 0.2011 -0.2011 0.9796 -376.5796 466.1416)">
				<stop  offset="0" style="stop-color:#26A9E0"/>
				<stop  offset="0.0544" style="stop-color:#25A3DC"/>
				<stop  offset="0.4785" style="stop-color:#1B75BB"/>
			</linearGradient>
			<path fill="url(#SVGID_53_)" d="M82.334,96.136c-1.091-6.824-5.981-9.956-14.648-8.675c-9.433,1.395-33.733,22.212-39.598,33.538
				c-1.211,2.336,21.092,7.882,23.085,5.199c3.219-4.336,10.908-7.243,17.195-8.172C81.275,116.113,84.213,108.261,82.334,96.136z"
				/>
			<g>
				
					<linearGradient id="SVGID_54_" gradientUnits="userSpaceOnUse" x1="-4251.625" y1="-3730.5977" x2="-4239.5332" y2="-3730.5977" gradientTransform="matrix(-0.3961 -0.4729 -0.4504 0.3771 -3316.0029 -496.9163)">
					<stop  offset="0" style="stop-color:#0B65AB"/>
					<stop  offset="1" style="stop-color:#1B75BB"/>
				</linearGradient>
				<path fill="url(#SVGID_54_)" d="M37.136,107.035c0,0-0.826,1.543-0.678,1.619c0.613,0.322,2.707,4.271,2.798,4.431
					c0,0,2.561-2.422,6.008-4.986c4.313-3.206,10.859-7.697,10.859-7.697c-0.089-0.148-1.906-3.886-3.319-4.954
					c-0.134-0.101-1.593-0.088-1.593-0.088c-8.078,6.111-8.029,6.121-9.736,7.61C39.3,104.869,39.504,104.785,37.136,107.035z"/>
				
					<linearGradient id="SVGID_55_" gradientUnits="userSpaceOnUse" x1="-4249.7656" y1="-3730.8237" x2="-4236.7104" y2="-3730.8237" gradientTransform="matrix(-0.3961 -0.4729 -0.4504 0.3771 -3316.0029 -496.9163)">
					<stop  offset="0" style="stop-color:#1B75BB"/>
					<stop  offset="0.0921" style="stop-color:#1D7FC2"/>
					<stop  offset="0.2839" style="stop-color:#208CCB"/>
					<stop  offset="0.5285" style="stop-color:#2294D0"/>
					<stop  offset="1" style="stop-color:#2296D2"/>
				</linearGradient>
				<path fill="url(#SVGID_55_)" d="M37.141,106.999c0,0,2.187,3.834,2.278,3.995c0,0,2.683-2.049,6.13-4.612
					c1.68-1.249,3.436-2.475,4.952-3.507c0.213-0.145-1.156-1.603-0.956-1.739c0.627-0.424,4.322-0.863,5.129-1.018
					c-0.117-0.192-3.428-4.802-3.428-4.802s-2.851,0.191-4.56,0.988c-0.222,0.104,0.443,1.835,0.217,1.984
					c-1.505,0.993-2.899,2.057-5.035,3.908C34.902,108.235,36.736,107.761,37.141,106.999z"/>
				
					<linearGradient id="SVGID_56_" gradientUnits="userSpaceOnUse" x1="-4244.4551" y1="-3726.8315" x2="-4236.2778" y2="-3723.1968" gradientTransform="matrix(-0.3961 -0.4729 -0.4504 0.3771 -3316.0029 -496.9163)">
					<stop  offset="0" style="stop-color:#1D80C3;stop-opacity:0"/>
					<stop  offset="0.0299" style="stop-color:#1E83C5;stop-opacity:0.0329"/>
					<stop  offset="0.3701" style="stop-color:#289DD9;stop-opacity:0.4073"/>
					<stop  offset="0.6738" style="stop-color:#2EADE6;stop-opacity:0.7415"/>
					<stop  offset="0.9086" style="stop-color:#30B3EA"/>
				</linearGradient>
				<path fill="url(#SVGID_56_)" d="M37.141,106.999c0,0,2.187,3.834,2.278,3.995c0,0,7.56-12.756,7.484-12.705
					c-1.505,0.993-2.899,2.057-5.035,3.908C34.902,108.235,36.736,107.761,37.141,106.999z"/>
				<g>
					
						<linearGradient id="SVGID_57_" gradientUnits="userSpaceOnUse" x1="-2417.5439" y1="-231.9995" x2="-2414.4888" y2="-231.9995" gradientTransform="matrix(-0.9388 0.3444 0.3444 0.9388 -2139.7598 1149.834)">
						<stop  offset="0" style="stop-color:#0B65AB"/>
						<stop  offset="0.3737" style="stop-color:#126CB2"/>
						<stop  offset="0.672" style="stop-color:#1B75BB"/>
						<stop  offset="0.8212" style="stop-color:#1C79BD"/>
						<stop  offset="0.9546" style="stop-color:#1E83C5"/>
						<stop  offset="1" style="stop-color:#1F89C9"/>
					</linearGradient>
					<path fill="url(#SVGID_57_)" d="M46.492,98.601c0.211-0.13,0.111-2.094,0.111-2.094c0.123,0.103,4.561,6.004,4.605,6.08
						c0,0-1.966,1.176-2.071,1.239C48.979,103.524,46.85,99.575,46.492,98.601z"/>
				</g>
			</g>
		</g>
	</g>
	<g>
		<path fill="#231F20" d="M134.537,58.2c14.496,2.267,19.704-12.811,17.747-16.621c0.072,0.14-6.5,8.546-11.614,8.555
			C131.917,50.152,122.694,56.349,134.537,58.2z"/>
		<g>
			<g>
				
					<linearGradient id="SVGID_58_" gradientUnits="userSpaceOnUse" x1="3143.3652" y1="-1115.5781" x2="3164.0098" y2="-1115.5781" gradientTransform="matrix(0.98 0.1994 -0.1994 0.98 -3211.3188 547.1807)">
					<stop  offset="0" style="stop-color:#ECC11D"/>
					<stop  offset="0.172" style="stop-color:#D99D11"/>
					<stop  offset="0.414" style="stop-color:#FCDF27"/>
					<stop  offset="0.7366" style="stop-color:#FDEC7C"/>
					<stop  offset="1" style="stop-color:#FCDF27"/>
				</linearGradient>
				<path fill="url(#SVGID_58_)" d="M110.115,88.33c-0.306,0.52,1.384-2.526,1.918-4.395c1.108-3.881-17.06-10.341-18.57-7.098
					l-2.259,6.068C89.692,86.15,108.604,91.576,110.115,88.33z"/>
				<g>
					
						<linearGradient id="SVGID_59_" gradientUnits="userSpaceOnUse" x1="2915.9609" y1="-282.5874" x2="2935.2246" y2="-282.5874" gradientTransform="matrix(1 0.0046 -0.0046 1 -2826.312 355.5649)">
						<stop  offset="0" style="stop-color:#A25800"/>
						<stop  offset="0.0281" style="stop-color:#AD6302"/>
						<stop  offset="0.0844" style="stop-color:#BD7305"/>
						<stop  offset="0.1475" style="stop-color:#C77D06"/>
						<stop  offset="0.2312" style="stop-color:#CA8007"/>
						<stop  offset="1" style="stop-color:#ECC11D"/>
					</linearGradient>
					<path fill="url(#SVGID_59_)" d="M110.205,88.358l-0.207,0.626c-0.657,2.682-19.679-2.456-19.021-5.14l0.011-0.724
						C91.283,84.525,108.472,90.472,110.205,88.358z"/>
				</g>
			</g>
			<g>
				
					<linearGradient id="SVGID_60_" gradientUnits="userSpaceOnUse" x1="3145.8008" y1="-2616.6841" x2="3166.3701" y2="-2616.6841" gradientTransform="matrix(0.8557 0.5175 -0.5175 0.8557 -3952.2441 686.25)">
					<stop  offset="0" style="stop-color:#ECC11D"/>
					<stop  offset="0.172" style="stop-color:#D99D11"/>
					<stop  offset="0.414" style="stop-color:#FCDF27"/>
					<stop  offset="0.7366" style="stop-color:#FDEC7C"/>
					<stop  offset="1" style="stop-color:#FCDF27"/>
				</linearGradient>
				<path fill="url(#SVGID_60_)" d="M110.258,87.554c0.138-0.148,2.23-5.138,2.332-5.374c0.613-1.688-18.072-9.013-18.684-7.325
					l-1.259,3.353C92.037,79.9,108.834,89.083,110.258,87.554z"/>
				
					<linearGradient id="SVGID_61_" gradientUnits="userSpaceOnUse" x1="3145.5781" y1="-2615.7168" x2="3166.3379" y2="-2615.7168" gradientTransform="matrix(0.8557 0.5175 -0.5175 0.8557 -3952.2441 686.25)">
					<stop  offset="0" style="stop-color:#CA8007"/>
					<stop  offset="0.2742" style="stop-color:#B26803"/>
					<stop  offset="0.8925" style="stop-color:#CA8007"/>
				</linearGradient>
				<path fill="url(#SVGID_61_)" d="M110.851,86.507l2.162-5.784c0.61-1.689-17.831-9.083-18.443-7.393l-1.848,4.897
					c0.036-0.102-1.698,4.126-1.38,4.309C96.771,85.618,110.336,87.926,110.851,86.507z"/>
			</g>
			<g>
				
					<linearGradient id="SVGID_62_" gradientUnits="userSpaceOnUse" x1="3133.9297" y1="-2613.2842" x2="3176.7224" y2="-2628.8594" gradientTransform="matrix(0.8557 0.5175 -0.5175 0.8557 -3952.2441 686.25)">
					<stop  offset="0" style="stop-color:#E6B519"/>
					<stop  offset="0.1398" style="stop-color:#CA8007"/>
					<stop  offset="0.3065" style="stop-color:#D89B10"/>
					<stop  offset="0.8172" style="stop-color:#E6B519"/>
				</linearGradient>
				<path fill="url(#SVGID_62_)" d="M83.068,65.854c-1.304,3.595,2.375,9.138,18.692,15.52c16.132,6.308,22.889,4.844,24.192,1.251
					c0.47-1.299,2.737,0.795-21.355-8.626C80.508,64.576,83.537,64.555,83.068,65.854z"/>
				
					<linearGradient id="SVGID_63_" gradientUnits="userSpaceOnUse" x1="-2182.1147" y1="-2193.4609" x2="-2229.3701" y2="-2193.2239" gradientTransform="matrix(-0.9344 -0.3563 -0.3563 0.9344 -2731.3086 1321.0947)">
					<stop  offset="0.0376" style="stop-color:#F8E16A"/>
					<stop  offset="0.0392" style="stop-color:#F8E169"/>
					<stop  offset="0.1426" style="stop-color:#EFCD4A"/>
					<stop  offset="0.2299" style="stop-color:#EAC037"/>
					<stop  offset="0.2903" style="stop-color:#E8BC30"/>
					<stop  offset="0.3264" style="stop-color:#EAC037"/>
					<stop  offset="0.5974" style="stop-color:#F8E069"/>
					<stop  offset="0.7312" style="stop-color:#FDEC7C"/>
					<stop  offset="0.7809" style="stop-color:#FDEB75"/>
					<stop  offset="0.8545" style="stop-color:#FDE861"/>
					<stop  offset="0.9423" style="stop-color:#FCE340"/>
					<stop  offset="1" style="stop-color:#FCDF27"/>
				</linearGradient>
				<path fill="url(#SVGID_63_)" d="M139.305,50.452c0.918-2.534-8.984-7.175-16.266-10.023l-8.521-3.329
					c-7.282-2.849-17.86-6.218-18.778-3.682c0,0-12.873,31.915-12.92,32.047c-0.306,0.84,4.789,4.59,21.016,10.934
					c16.225,6.345,22.244,6.942,22.55,6.1C126.435,82.368,139.305,50.452,139.305,50.452z"/>
				
					<linearGradient id="SVGID_64_" gradientUnits="userSpaceOnUse" x1="3130.0986" y1="-2659.1245" x2="3167.1582" y2="-2659.1245" gradientTransform="matrix(0.8557 0.5175 -0.5175 0.8557 -3952.2441 686.25)">
					<stop  offset="0" style="stop-color:#FCDF27"/>
					<stop  offset="0.4863" style="stop-color:#FCE96B"/>
					<stop  offset="1" style="stop-color:#FDF3AF"/>
				</linearGradient>
				<path fill="url(#SVGID_64_)" d="M100.622,33.405c-0.305,0.842,7.289,4.591,16.96,8.372c9.669,3.781,17.757,6.164,18.062,5.322
					c0.304-0.842-7.289-4.591-16.959-8.372C109.014,34.945,100.929,32.563,100.622,33.405z"/>
			</g>
			
				<linearGradient id="SVGID_65_" gradientUnits="userSpaceOnUse" x1="-2182.1606" y1="-2197.8291" x2="-2229.415" y2="-2197.592" gradientTransform="matrix(-0.9344 -0.3563 -0.3563 0.9344 -2731.3066 1321.0962)">
				<stop  offset="0" style="stop-color:#BE821E"/>
				<stop  offset="0.5376" style="stop-color:#E6B414"/>
				<stop  offset="1" style="stop-color:#E6B414"/>
			</linearGradient>
			<path fill="url(#SVGID_65_)" d="M123.307,39.816l-8.521-3.33c-7.282-2.849-17.86-6.218-18.776-3.682
				c0,0-7.587,18.81-11.134,27.606c0.757-0.185,1.713-0.793,2.862-2.135c4.248-4.964,16.251-7.806,15.342-11.098
				c-1.285-4.665,4.446-6.535,5.722-3.663c1.341,3.017,7.286,4.965,12.392,5.907c13.892,2.562,11.578,8.222,14.969,8.79
				c1.355-3.367,3.409-8.373,3.409-8.373C140.491,47.304,130.588,42.663,123.307,39.816z"/>
		</g>
		<g>
			<path fill="#0A0403" d="M127.231,62.09c0.27-0.383,0.509-0.834,0.691-1.34c0.64-1.757,0.387-3.461-0.565-3.809
				c-0.952-0.346-2.242,0.797-2.882,2.553c-0.175,0.481-0.28,0.955-0.326,1.4C123.54,61.491,127.266,62.648,127.231,62.09z"/>
			<path fill="#0A0403" d="M116.728,58.225c0.283-0.375,0.533-0.82,0.714-1.321c0.638-1.756,0.254-3.508-0.861-3.914
				s-2.537,0.688-3.177,2.444c-0.175,0.479-0.27,0.957-0.297,1.408C112.464,57.402,116.796,58.817,116.728,58.225z"/>
		</g>
		<g>
			<path fill="#0A0403" d="M125.653,53.11c0.718-0.25,1.785-0.255,2.858-0.177c1.911,0.136,3.883,1.874,3.884,1.902
				c-0.033-0.013-1.773-0.354-3.832-0.077c-0.904,0.122-1.545,0.355-2.486,0.819C125.018,56.1,124.147,53.636,125.653,53.11z"/>
			<path fill="#0A0403" d="M120.19,51.88c-0.412-0.638-1.254-1.295-2.147-1.893c-1.594-1.064-4.218-0.899-4.235-0.877
				c0.033,0.011,1.617,0.81,3.074,2.289c0.641,0.649,1.002,1.227,1.462,2.171C118.861,54.631,121.059,53.218,120.19,51.88z"/>
		</g>
		<path fill="#404041" d="M100.321,46.172c-1.979-7.171,7.297-12.238,9.465-7.36c2.348,5.284,6.251,6.276,13.482,5.85
			c8.825-0.52,6.253,7.467,18.238,7.572c9.895,0.086,11.388-8.789,10.33-10.851c0.071,0.141-3.319,2.473-8.434,2.484
			c-3.87,0.008-0.637-13.365-15.978-11.719c-2.529,0.271-13.193-18.254-23.952-5.904c-1.504,1.726-8.756-0.651-14.901,7.893
			c-6.915,9.618-0.942,11.373-4.408,21.825c-0.283,0.853,1.456,3.334,4.867-0.655C93.281,50.342,101.23,49.463,100.321,46.172z"/>
		<g>
			<g>
				<g>
					<path fill="#231F20" d="M84.633,54.32c-0.161,0.677-0.537,1.31-0.79,2.072c-0.282,0.853,1.456,3.334,4.868-0.654
						c4.249-4.966,12.199-5.844,11.289-9.136c-0.12-0.433-0.195-0.856-0.236-1.273c-1.854,1.986-7.425,3.373-10.74,7.249
						C86.656,55.346,85.273,55.076,84.633,54.32z"/>
				</g>
			</g>
		</g>
		<g>
			<g>
				<g>
					<path fill="#231F20" d="M99.411,47.88c0.031,0.115,0.049,0.22,0.056,0.318c0.565-0.576,0.822-1.201,0.614-1.951
						c-1.979-7.17,7.297-12.236,9.466-7.36c0.774,1.745,1.947,3.113,3.127,4.023c-0.139-0.265,3.604-1.539,3.446-1.895
						C110.282,27.875,94.943,31.695,99.411,47.88z"/>
				</g>
			</g>
		</g>
		
			<linearGradient id="SVGID_66_" gradientUnits="userSpaceOnUse" x1="-5004.6543" y1="35.0098" x2="-4990.46" y2="35.0098" gradientTransform="matrix(-1 0 0 1 -4903.1172 0)">
			<stop  offset="0" style="stop-color:#6D6E70"/>
			<stop  offset="1" style="stop-color:#808184;stop-opacity:0"/>
		</linearGradient>
		<path fill="url(#SVGID_66_)" d="M96.751,37.741c0.428-7.171,4.224-10.392,4.786-10.305c-2.77-0.422-6.32,1.098-8.422,3.061
			c-4.888,4.573-2.323,5.946-5.697,11.216c-0.277,0.43,0.146,1.871,2.433,0.016C92.699,39.421,96.645,39.55,96.751,37.741z"/>
		<g>
			<g>
				<g>
					
						<linearGradient id="SVGID_67_" gradientUnits="userSpaceOnUse" x1="-5029.6294" y1="27.7583" x2="-5012.9473" y2="27.7583" gradientTransform="matrix(-1 0 0 1 -4903.1172 0)">
						<stop  offset="0" style="stop-color:#6D6E70"/>
						<stop  offset="1" style="stop-color:#808184;stop-opacity:0"/>
					</linearGradient>
					<path fill="url(#SVGID_67_)" d="M117.005,31.872c3.115,2.952,11.396,1.581,9.115-0.388c-2.86-2.466-9.221-10.703-16.29-9.409
						C118.282,25.189,113.916,28.944,117.005,31.872z"/>
				</g>
				<g>
					
						<linearGradient id="SVGID_68_" gradientUnits="userSpaceOnUse" x1="-5045.2158" y1="38.2412" x2="-5032.126" y2="38.2412" gradientTransform="matrix(-1 0 0 1 -4903.1172 0)">
						<stop  offset="0" style="stop-color:#6D6E70"/>
						<stop  offset="1" style="stop-color:#808184;stop-opacity:0"/>
					</linearGradient>
					<path fill="url(#SVGID_68_)" d="M136.253,43.417c1.824,2.158,6.856,0.716,5.665-0.487c-1.827-2.814-1.672-11.399-12.909-10.961
						C138.197,34.648,132.933,39.492,136.253,43.417z"/>
				</g>
			</g>
		</g>
		<g>
			<path fill="#231F20" d="M152.052,41.267c0.052,0.102-1.392,2.995-3.354,5.248c-2.266,2.596-8.226,4.068-16.17,1.315
				c-3.932-1.015,2.426,4.788,9.378,4.847C151.801,52.763,153.112,43.328,152.052,41.267z"/>
			<path fill="#231F20" d="M124.673,44.265c-0.309,0.083,2.708,0.95,2.403,0.962c4.481,1.842,4.73,7.495,14.467,7.581
				c0.186,0.002,0.833-3.533,1.014-3.537C131.651,49.759,135.609,41.311,124.673,44.265z"/>
			<path fill="#231F20" d="M114.913,38.919c-1.863-3.243-4.836-3.788-7.837-2.352c0.343,0.407,1.793,0.528,2.563,2.26
				c2.057,4.628,5.308,5.964,10.942,5.937C117.798,44.034,116.594,41.845,114.913,38.919z"/>
		</g>
		<g>
			<g>
				<g>
					<path fill="#231F20" d="M111.253,66.412c-0.146-0.061-0.963-2.755-2.836-4.856c-1.764-1.982-4.593-3.38-4.674-3.465
						c-0.253,0.372-0.524,0.546-0.834,0.853c0.085,0.105,2.899,1.647,4.64,3.651c1.804,2.079,2.536,4.622,2.709,4.69
						C110.819,67.507,111.831,66.652,111.253,66.412z"/>
				</g>
			</g>
			<g>
				<path fill="#231F20" d="M101.539,62.383c-0.424-0.22,0.588-4.409,0.938-4.853c0.847-1.07,3.768-0.88,3.923-0.658
					c0,0-1.951,1.224-2.961,2.21C102.905,59.606,101.979,62.605,101.539,62.383z"/>
			</g>
		</g>
	</g>
</g>
</svg>
