<?xml version="1.0" encoding="utf-8"?>
<!-- Generator: Adobe Illustrator 16.0.0, SVG Export Plug-In . SVG Version: 6.00 Build 0)  -->
<!DOCTYPE svg PUBLIC "-//W3C//DTD SVG 1.1//EN" "http://www.w3.org/Graphics/SVG/1.1/DTD/svg11.dtd">
<svg version="1.1" id="Layer_1" xmlns="http://www.w3.org/2000/svg" xmlns:xlink="http://www.w3.org/1999/xlink" x="0px" y="0px"
	 width="300px" height="300px" viewBox="0 0 300 300" enable-background="new 0 0 300 300" xml:space="preserve">
<g>
	<linearGradient id="SVGID_1_" gradientUnits="userSpaceOnUse" x1="156.3652" y1="243.376" x2="243.3643" y2="243.376">
		<stop  offset="0" style="stop-color:#231F20"/>
		<stop  offset="1" style="stop-color:#404041"/>
	</linearGradient>
	<path fill="url(#SVGID_1_)" d="M240.514,237.701c-6.063-2.939-10.658,1.716-15.342-2.675c-3.178-2.98,4.004-6.215-0.977-9.334
		c-2.547-1.596-6.969-1.349-10.93-0.249c-1.924,0.535-3.348,2.594-4.393,4.688c-1.98,3.975-11.084,4.586-16.445,1.502
		c-1.475-0.847-3.721-2.316-7.209-2.214c-3.986,0.118-6.992,1.731-6.713,3.606c0.133,0.891,0.482,2.231,1.83,3.267
		c2.332,1.792,1.883,4.526-1.262,4.623c-2.109,0.065-5.807,0.241-8.074-0.065c-5.039-0.685-10.412-1.077-13.234,1.176
		c-2.768,2.21-1.305,6.016,3.27,7.297c4.111,1.152,7.428-0.82,12.102,1.128c2.313,0.955,2.955,3.509,2.35,5.302
		c-1.707,5.047,5.73,7.612,13.637,5.929c3.307-0.703,6.781-3.127,9.016-5.788c3.688-4.396,7.791-3.899,12.432,0.998
		c2.008,2.116,5.014,3.62,6.887,3.757c3.529,0.258,7.156-1.41,7.779-3.032c1.693-4.397-1.617-6.54,1.742-8.345
		c5.689-3.052,9.039-0.013,13.748-2.975C243.9,244.299,244.648,239.706,240.514,237.701z"/>
	<linearGradient id="SVGID_2_" gradientUnits="userSpaceOnUse" x1="157.293" y1="241.7988" x2="241.9131" y2="241.7988">
		<stop  offset="0" style="stop-color:#404041"/>
		<stop  offset="1" style="stop-color:#6D6E70"/>
	</linearGradient>
	<path fill="url(#SVGID_2_)" d="M239.141,237.528c-5.898-2.858-10.369,0.243-14.924-4.028c-3.09-2.897,3.516-5.093-1.328-8.127
		c-2.477-1.551-6.396-2.263-10.25-1.192c-1.873,0.52-3.256,2.522-4.273,4.56c-1.928,3.866-10.781,4.461-15.998,1.461
		c-1.432-0.824-3.617-2.254-7.01-2.152c-3.877,0.113-6.801,1.682-6.529,3.507c0.127,0.865,0.469,2.171,1.779,3.177
		c2.27,1.743,1.834,4.402-1.225,4.496c-2.055,0.064-5.65,0.235-7.855-0.063c-4.9-0.664-10.129-0.096-12.873,2.095
		c-2.691,2.147-1.268,4.901,3.18,6.147c4,1.119,7.225-0.799,11.771,1.096c2.25,0.93,3.35,3.414,2.76,5.157
		c-1.66,4.909,5.1,7.404,12.789,5.766c3.219-0.684,6.596-3.04,8.77-5.629c3.588-4.274,7.578-3.792,12.092,0.971
		c1.953,2.059,4.877,3.521,6.699,3.655c3.434,0.25,6.484-0.898,7.09-2.475c1.648-4.278-1.098-6.838,2.17-8.592
		c5.535-2.97,8.791-0.013,13.373-2.895C242.436,242.521,243.162,239.479,239.141,237.528z"/>
	<g>
		<g>
			<g>
				<g>
					
						<linearGradient id="SVGID_3_" gradientUnits="userSpaceOnUse" x1="-3860.5068" y1="-2563.9795" x2="-3852.8201" y2="-2580.0103" gradientTransform="matrix(-0.7253 -0.6884 0.6884 -0.7253 -942.6895 -4386.8623)">
						<stop  offset="0" style="stop-color:#2296D2"/>
						<stop  offset="0.0486" style="stop-color:#25A2DB"/>
						<stop  offset="0.0968" style="stop-color:#26A9E0"/>
						<stop  offset="0.6452" style="stop-color:#26A9E0"/>
						<stop  offset="0.871" style="stop-color:#4ED1FF"/>
					</linearGradient>
					<path fill="url(#SVGID_3_)" d="M71.519,120.735c2.421,5.053,10.845,28.765,10.826,33.257
						c-0.021,5.063,10.881,4.165,15.754-3.184c2.151-3.246-14.233-40.317-15.048-41.174
						C80.831,107.304,69.958,117.476,71.519,120.735z"/>
					
						<linearGradient id="SVGID_4_" gradientUnits="userSpaceOnUse" x1="-3818.8447" y1="-1503.0703" x2="-3823.8877" y2="-1486.834" gradientTransform="matrix(-0.5611 -0.8277 0.8277 -0.5611 -818.8931 -3869.668)">
						<stop  offset="0.2634" style="stop-color:#26A9E0"/>
						<stop  offset="0.3099" style="stop-color:#25A3DC"/>
						<stop  offset="0.672" style="stop-color:#1B75BB"/>
					</linearGradient>
					<path fill="url(#SVGID_4_)" d="M73.71,114.831c20.856,35.62,15.165,41.456,19.369,40.619c6.435-1.282,8.211-6.06,7.816-8.708
						c-1.078-7.252-11.258-30.317-17.958-37.212C81.258,107.796,72.207,112.265,73.71,114.831z"/>
				</g>
				
					<linearGradient id="SVGID_5_" gradientUnits="userSpaceOnUse" x1="8.0415" y1="134.4639" x2="20.584" y2="134.4639" gradientTransform="matrix(1 -0.008 0.008 1 61.8545 -19.3154)">
					<stop  offset="0.2527" style="stop-color:#005096"/>
					<stop  offset="0.6806" style="stop-color:#0E63A9"/>
					<stop  offset="1" style="stop-color:#1B75BB"/>
				</linearGradient>
				<path fill="url(#SVGID_5_)" d="M82.41,108.907c-4.773-6.176-14.475,6.143-10.461,12.182
					C76.202,127.483,86.922,114.743,82.41,108.907z"/>
			</g>
			<g>
				
					<linearGradient id="SVGID_6_" gradientUnits="userSpaceOnUse" x1="-3938.6362" y1="-1503.9194" x2="-3938.6362" y2="-1523.0776" gradientTransform="matrix(-0.553 -0.8331 0.8331 -0.553 -835.2144 -3994.6602)">
					<stop  offset="0.2527" style="stop-color:#005096"/>
					<stop  offset="0.6806" style="stop-color:#0E63A9"/>
					<stop  offset="1" style="stop-color:#1B75BB"/>
				</linearGradient>
				<path fill="url(#SVGID_6_)" d="M73.689,124.964c-0.02-0.019-0.788,0.758-0.572,1.045c1.126,1.506,2.283,5.365,2.705,5.987
					c4.754,7,18.337-8.265,13.058-13.839c-1.263-1.334-1.776-4.644-3.405-5.966c-0.385-0.312-0.699,0.231-0.714,0.22
					C89.05,119.212,80.417,129.067,73.689,124.964z"/>
			</g>
			<g>
				
					<linearGradient id="SVGID_7_" gradientUnits="userSpaceOnUse" x1="-3648.6035" y1="-3350.4624" x2="-3657.8735" y2="-3331.3508" gradientTransform="matrix(-0.9364 -0.351 0.351 -0.9364 -2165.9326 -4287.0723)">
					<stop  offset="0.1613" style="stop-color:#44C7FE"/>
					<stop  offset="0.3548" style="stop-color:#26A9E0"/>
					<stop  offset="0.4166" style="stop-color:#25A3DC"/>
					<stop  offset="0.8978" style="stop-color:#1B75BB"/>
				</linearGradient>
				<path fill="url(#SVGID_7_)" d="M73.055,125.875c0.56,0.562,1.078,3.3,1.667,4.165c5.407,7.974,17.325-5.143,14.01-13.316
					c-0.784-1.937-1.662-3.279-3.277-4.629C90.659,118.951,80.895,130.714,73.055,125.875z"/>
			</g>
			
				<linearGradient id="SVGID_8_" gradientUnits="userSpaceOnUse" x1="-4078.1343" y1="-1895.9688" x2="-4074.5918" y2="-1895.9688" gradientTransform="matrix(-0.6641 -0.7477 0.7477 -0.6641 -1212.3765 -4177.4834)">
				<stop  offset="0" style="stop-color:#0B65AB"/>
				<stop  offset="1" style="stop-color:#1B75BB"/>
			</linearGradient>
			<path fill="url(#SVGID_8_)" d="M75.822,128.256c0.368-0.386,1.192-0.105,1.84,0.622c0.648,0.73,0.876,1.635,0.509,2.02
				c-0.743,0.776-1.207,0.088-1.84-0.623C75.666,129.526,75.078,129.034,75.822,128.256z"/>
			<path fill="#D0D2D3" d="M75.304,128.827c0.368-0.385,1.189-0.105,1.838,0.623c0.649,0.73,0.876,1.633,0.508,2.019
				c-0.368,0.385-1.191,0.105-1.84-0.624C75.163,130.116,74.935,129.212,75.304,128.827z"/>
		</g>
		<g>
			<path fill="#FCDF27" d="M85.355,102.157c0.539-3.221-0.083-8.344-0.082-8.663c0.002-0.653-15.042,0.905-15.258,1.689
				c-1.664,6.05,0.593,10.636,0.062,13.503c-0.421,2.26,2.228,6.911,3.994,8.415c2.315,1.97,7.922,0.151,8.866-2.659
				c0.522-1.557-0.024-4.893,0.478-5.982C84.268,106.61,84.814,105.388,85.355,102.157z"/>
			<path fill="#FCDF27" d="M73.802,105.188c-0.485,1.035-4.927-4.224-4.867-4.5c0.695-3.287-3.243-6.137-3.292-6.011
				c-1.084,2.749-1.451,5.857-1.918,7.409c-0.516,1.714,2.824,4.787,6.314,9.015C71.861,113.311,74.421,108.21,73.802,105.188z"/>
		</g>
		<g>
			<linearGradient id="SVGID_9_" gradientUnits="userSpaceOnUse" x1="70.7178" y1="114.3115" x2="83.2183" y2="114.3115">
				<stop  offset="0.5376" style="stop-color:#E6B414"/>
				<stop  offset="1" style="stop-color:#E6B414"/>
			</linearGradient>
			<path fill="url(#SVGID_9_)" d="M70.718,111.97c0.677,2.084,3.287,5.756,4.33,6.646c2.314,1.97,6.945-1.362,7.889-4.173
				c0.412-1.229,0.16-3.562,0.282-5.028C78.175,113.919,73.863,113.87,70.718,111.97z"/>
			<linearGradient id="SVGID_10_" gradientUnits="userSpaceOnUse" x1="65.1851" y1="87.6514" x2="85.2759" y2="87.6514">
				<stop  offset="0.5376" style="stop-color:#E6B414"/>
				<stop  offset="1" style="stop-color:#E6B414"/>
			</linearGradient>
			<path fill="url(#SVGID_10_)" d="M85.273,93.494c-0.378-1.903-3.426-9.183-3.707-9.823c-0.464-1.047-2.341-1.447-2.266-0.542
				c0.011,0.118-0.171,1.723-0.125,1.888c-0.428-0.709-1.756-3.053-2.066-3.857c-0.752-1.961-3.75-1.089-2.779,0.699
				c0.324,0.597-0.053,3.225-0.285,2.451c-0.108-0.365-1.418-1.285-2.076-2.803c-1.17-2.699-4.16-2.158-3.445,0.036
				c0.388,1.196,3.321,7.548,2.815,7.345c-0.283-0.114-3.792-2.071-4.241-2.244c-2.37-0.899-2.062,0.618-1.573,1.904
				c0.352,0.924,3.881,5.729,4.441,7.033C70.084,95.85,85.509,94.668,85.273,93.494z"/>
			<linearGradient id="SVGID_11_" gradientUnits="userSpaceOnUse" x1="69.0601" y1="101.7905" x2="73.5327" y2="101.7905">
				<stop  offset="0.5376" style="stop-color:#E6B414"/>
				<stop  offset="1" style="stop-color:#E6B414"/>
			</linearGradient>
			<path fill="url(#SVGID_11_)" d="M73.232,105.578c0.443-1.206,0.453-2.568-0.356-3.472c-0.867-0.969-2.895-4.104-2.895-4.104
				c-0.237,1.078-0.633,2.201-0.921,3.029c0.91,1.125,2.819,2.281,3.459,2.994C72.879,104.428,73.107,104.97,73.232,105.578z"/>
		</g>
	</g>
	<g>
		<path fill="#231F20" d="M293.654,217.079l-0.395-5.482c-13.693-4.009-54.213,9.228-54.213,9.228l-2.473,6.353
			C262.951,225.177,283.326,220.292,293.654,217.079z"/>
		<g>
			<path fill="#961414" d="M139.69,227.097c35.823,1.693,75.056,1.821,99.786-0.055l-0.43-6.218
				c-22.084-4.088-182.557-25.538-218.381-27.231L8.813,209.414l0.362,4.824C31.042,218.046,105.708,225.49,139.69,227.097z"/>
		</g>
		<path fill="#961414" d="M227.732,225.635v-5.636c0,0-62.514,14.664-84.448,16.277l0.391,5.507
			C182.047,245.622,218.377,238.173,227.732,225.635z"/>
		<path fill="#C83214" d="M227.732,223.192v-5.636c0,0-62.514,14.664-84.448,16.277l0.391,5.507
			C182.047,243.181,218.377,235.73,227.732,223.192z"/>
		<path fill="#961414" d="M233.615,204.098c-13.143-2.961-32.842-8.498-55.75-9.493c0.793-4.423-1.939-7.929-11.785-11.815
			l0.092-5.063C202.908,179.143,231.908,194.06,233.615,204.098z"/>
		<path fill="#C83214" d="M233.615,201.655c-13.143-2.961-32.842-8.498-55.75-9.493c0.793-4.423-2.086-7.929-11.932-11.815
			l-0.25-5.063C202.42,176.7,231.908,191.618,233.615,201.655z"/>
		<path fill="#231F20" d="M293.654,217.568l-0.395-8.414c-13.693-4.01-54.213,9.229-54.213,9.229l-0.029,8.746
			C265.395,225.127,283.326,220.781,293.654,217.568z"/>
		<g>
			<path fill="#C83214" d="M139.69,224.654c35.823,1.693,75.056,1.821,99.786-0.055l-0.43-6.217
				c-22.084-4.088-182.557-25.539-218.381-27.231l-11.853,15.82l0.362,4.825C31.042,215.604,105.708,223.047,139.69,224.654z"/>
		</g>
	</g>
	<g>
		<path fill="#F05A28" d="M227.496,217.557c-15.109,2.318-37.422,2.831-60.533,1.55c-2.648,5.74-11.07,10.857-23.679,14.728
			c0.949,0.076,1.98,0.15,3.133,0.223C183.34,236.346,218.061,230.201,227.496,217.557z"/>
		<path fill="#F05A28" d="M236.18,194.272c-13.256-2.984-33.119-5.12-56.219-6.126c0.799-4.458-4.35-8.944-14.277-12.862
			c0.961,0.023,2.004,0.056,3.16,0.1C205.891,176.812,234.455,184.151,236.18,194.272z"/>
		<g>
			<path fill="#F05A28" d="M141.392,218.831c36.124,1.707,72.718,1.443,97.655-0.448c0,0,8.555-8.62,9.818-11.471
				c1.318-2.969-1.449-11.809-1.449-11.809c-22.27-4.124-55.258-7.585-91.383-9.292c-34.269-1.621-110.028-2.546-134.505-0.905
				L8.813,206.972C30.861,210.813,107.124,217.211,141.392,218.831z"/>
		</g>
		<path fill="#404041" d="M293.26,209.154c0.338-0.762-22.088-9.654-45.844-14.051l-8.369,23.279
			C265.645,216.365,292.92,209.916,293.26,209.154z"/>
		<path fill="#C83214" d="M169.051,216.244c-1.143,0.737-4.822,3.488-10.213,2.392c-6.609-1.345-6.914-4.428-2.488-6.282
			c4.426-1.855,11.908-2.759,18.518-1.414C177.941,211.565,174.787,212.551,169.051,216.244z"/>
		<path fill="#B41E00" d="M199.303,208.778c-10.406,4.361-31.439,5.335-46.98,2.172c-15.538-3.161-19.698-9.261-9.294-13.623
			c10.407-4.362,31.44-5.334,46.978-2.174C205.547,198.316,209.707,204.416,199.303,208.778z"/>
	</g>
	<g>
		<path fill="#231F20" d="M91.698,94.95c-0.938-1.248-4.401-9.826-5.3-15.744c-1.192-7.85,5.764-9.128,10.689-1.221
			C104.092,89.236,94.866,99.172,91.698,94.95z"/>
		
			<linearGradient id="SVGID_12_" gradientUnits="userSpaceOnUse" x1="721.25" y1="-952.269" x2="673.2506" y2="-952.0283" gradientTransform="matrix(-0.9951 -0.0989 -0.1482 1.4912 668.1582 1579.4834)">
			<stop  offset="0" style="stop-color:#F8E16A"/>
			<stop  offset="0.0019" style="stop-color:#F8E169"/>
			<stop  offset="0.1206" style="stop-color:#EFCD4A"/>
			<stop  offset="0.2209" style="stop-color:#EAC037"/>
			<stop  offset="0.2903" style="stop-color:#E8BC30"/>
			<stop  offset="0.4503" style="stop-color:#E9BE33"/>
			<stop  offset="0.558" style="stop-color:#EBC33C"/>
			<stop  offset="0.6504" style="stop-color:#EFCD4B"/>
			<stop  offset="0.7336" style="stop-color:#F5DA60"/>
			<stop  offset="0.8107" style="stop-color:#FDEC7C"/>
			<stop  offset="0.8118" style="stop-color:#FDEC7C"/>
			<stop  offset="0.8466" style="stop-color:#FDEB75"/>
			<stop  offset="0.8981" style="stop-color:#FDE861"/>
			<stop  offset="0.9596" style="stop-color:#FCE340"/>
			<stop  offset="1" style="stop-color:#FCDF27"/>
		</linearGradient>
		<path fill="url(#SVGID_12_)" d="M140.819,78.099c0.354-4.026-10.381-6.309-18.15-7.182l-9.092-1.019
			c-7.77-0.874-18.892-1.044-19.246,2.981c0,0-4.787,34.598-4.805,34.806c-0.098,1.099,1.834-6.036,24.318-3.513
			c22.482,2.522,21.957,10.788,22.098,9.215C135.96,113.178,140.819,78.099,140.819,78.099z"/>
		
			<linearGradient id="SVGID_13_" gradientUnits="userSpaceOnUse" x1="720.8447" y1="-406.0776" x2="673.3194" y2="-405.8392" gradientTransform="matrix(-0.9951 -0.0989 -0.0989 0.9951 769.2549 562.1748)">
			<stop  offset="0.5376" style="stop-color:#E6B414"/>
			<stop  offset="1" style="stop-color:#E6B414"/>
		</linearGradient>
		<path fill="url(#SVGID_13_)" d="M93.979,72.397l-2.542,21.309c0.682-0.377-0.015-0.166,1.207,1.11
			c2.442,2.552-0.199,9.415,8.728,8.358c4.776-0.566,3.15-0.238,8.421-1.539c3.113-0.768,5.037,3.149,11.559,4.549
			c4.441,0.951,11.527-2.441,13.188-8.009c1.096-3.674,4.045-2.862,4.148-3.563c0.428-3.605,2.113-16.654,2.113-16.654
			C141.022,75.271,94.2,69.71,93.979,72.397z"/>
		<path fill="#404041" d="M98.224,99.425c4.481,3.919,13.338-2.699,17.381,1.787c3.463,3.842,8.021,3.92,12.27,0.79
			c6.418-4.728,1.215-10.725,9.045-11.415c19.479-1.72,12.622-19.73,6.379-26.568c0.107,0.117-4.545,3.926-8.371,0.527
			c-2.922-2.595-3.314-10.117-15.801-5.244c-2.369,0.925-17.52-10.738-19.668,6.893c-2.434-0.76-9.111-2.416-12.617,6.887
			c-1.569,4.164-0.267,9.221,2.405,12.482c2.763,3.373,0.423,3.838,2.978,5.27C94.002,91.831,93.528,95.321,98.224,99.425z"/>
		<path fill="#231F20" d="M135.147,88.231c-7.84,0.596-3.186,6.109-9.604,10.838c-4.248,3.131-8.807,3.053-12.27-0.789
			c-4.043-4.487-8.42,1.736-14.141-0.323c-1.968-0.708-4.334-2.98-4.438-3.091c0.213,0.297,0.965,2.317,3.527,4.559
			c4.481,3.919,13.338-2.699,17.381,1.787c3.463,3.842,8.021,3.92,12.27,0.79c6.418-4.728,2.055-9.712,9.225-10.944
			c0.74-0.128,1.434-0.271,2.082-0.426l5.76-3.055C143.696,87.866,136.86,88.101,135.147,88.231z"/>
		<path fill="#231F20" d="M143.298,64.019C143.315,64.028,143.429,63.905,143.298,64.019c5.854,6.806,9.827,22.375-4.006,25.806
			c-0.008,0.001-0.436,2.368-0.424,2.366c1.352-0.129,2.867-0.392,4.527-0.826C154.16,88.54,154.842,71,143.298,64.019z"/>
		<g>
			<g>
				<g>
					<linearGradient id="SVGID_14_" gradientUnits="userSpaceOnUse" x1="86.1206" y1="73.2959" x2="97.0474" y2="73.2959">
						<stop  offset="0" style="stop-color:#808184;stop-opacity:0"/>
						<stop  offset="1" style="stop-color:#6D6E70"/>
					</linearGradient>
					<path fill="url(#SVGID_14_)" d="M94.587,69.403c2.823-0.811,3.484-4.006,0.566-3.734c-3.928,0.367-6.529,2.651-8.312,7.412
						c-1.311,3.504-0.497,6.174-0.169,7.854C86.718,81.163,87.997,71.294,94.587,69.403z"/>
				</g>
				<g>
					<linearGradient id="SVGID_15_" gradientUnits="userSpaceOnUse" x1="118.8354" y1="60.6636" x2="134.1748" y2="60.6636">
						<stop  offset="0" style="stop-color:#6D6E70"/>
						<stop  offset="1" style="stop-color:#808184;stop-opacity:0"/>
					</linearGradient>
					<path fill="url(#SVGID_15_)" d="M122.081,61.337c3.939,0.58,7.684-1.729,12.094,2.446c-3.906-6.238-6.219-7.929-15.049-4.481
						c-0.049,0.019-0.105,0.029-0.166,0.039C118.464,59.041,119.44,60.95,122.081,61.337z"/>
				</g>
				<g>
					<linearGradient id="SVGID_16_" gradientUnits="userSpaceOnUse" x1="99.8774" y1="60.5889" x2="118.4873" y2="60.5889">
						<stop  offset="0" style="stop-color:#6D6E70"/>
						<stop  offset="1" style="stop-color:#808184;stop-opacity:0"/>
					</linearGradient>
					<path fill="url(#SVGID_16_)" d="M118.487,59.41c-12.305-5.665-17.431-3.409-18.57,3.978c-0.447,2.9,3.02,1.379,5.178-1.484
						C107.626,58.544,113.657,58.099,118.487,59.41z"/>
				</g>
				<g>
					<linearGradient id="SVGID_17_" gradientUnits="userSpaceOnUse" x1="135.6279" y1="66.7896" x2="144.4585" y2="66.7896">
						<stop  offset="0" style="stop-color:#6D6E70"/>
						<stop  offset="1" style="stop-color:#808184;stop-opacity:0"/>
					</linearGradient>
					<path fill="url(#SVGID_17_)" d="M137.671,68.032c3.336,2.963,9.313,1.613,5.627-4.014l0,0c0.109,0.1-4.002,3.479-7.67,1.065
						C135.667,65.161,136.427,66.927,137.671,68.032z"/>
				</g>
			</g>
		</g>
		
			<linearGradient id="SVGID_18_" gradientUnits="userSpaceOnUse" x1="498.0996" y1="-877.4922" x2="541.175" y2="-893.1703" gradientTransform="matrix(0.9526 0.3636 -0.3235 1.4495 -668.7041 1206.9961)">
			<stop  offset="0" style="stop-color:#E6B519"/>
			<stop  offset="0.3035" style="stop-color:#E2AE16"/>
			<stop  offset="0.4839" style="stop-color:#DEA714"/>
			<stop  offset="1" style="stop-color:#E6B519"/>
		</linearGradient>
		<path fill="url(#SVGID_18_)" d="M89.61,108.099c-0.389,4.411,4.697,11.573,22.033,13.518c17.275,1.939,23.814-3.076,24.227-7.746
			c0.209-2.371-5.635-7.965-22.293-9.836C96.659,102.136,89.767,106.338,89.61,108.099z"/>
		
			<linearGradient id="SVGID_19_" gradientUnits="userSpaceOnUse" x1="502.7529" y1="-877.4619" x2="536.569" y2="-889.77" gradientTransform="matrix(0.9526 0.3636 -0.3235 1.4495 -668.7041 1206.9961)">
			<stop  offset="0" style="stop-color:#D99C10"/>
			<stop  offset="0.6667" style="stop-color:#CF890A"/>
			<stop  offset="1" style="stop-color:#D89B10"/>
		</linearGradient>
		<path fill="url(#SVGID_19_)" d="M94.065,112.751c-0.278,3.158,4.045,7.931,17.68,9.459c12.457,1.399,18.389-2.163,18.633-4.93
			c0.252-2.875-4.129-7.412-17.115-8.869C99.831,106.902,94.341,109.647,94.065,112.751z"/>
		
			<linearGradient id="SVGID_20_" gradientUnits="userSpaceOnUse" x1="395.2539" y1="-43.666" x2="414.3743" y2="-41.5222" gradientTransform="matrix(0.9912 0.1323 -0.1323 0.9912 -297.145 111.2666)">
			<stop  offset="0" style="stop-color:#ECC11D"/>
			<stop  offset="0.172" style="stop-color:#D99D11"/>
			<stop  offset="0.414" style="stop-color:#FCDF27"/>
			<stop  offset="0.7366" style="stop-color:#FDEC7C"/>
			<stop  offset="1" style="stop-color:#FCDF27"/>
		</linearGradient>
		<path fill="url(#SVGID_20_)" d="M117.771,129.25c0.068-0.19,2.924-10.583,2.922-10.839c1.107-4.99-16.885-7.986-18.102-3.643
			l-4.502,14.811C98.204,131.374,117.077,131.222,117.771,129.25z"/>
		<linearGradient id="SVGID_21_" gradientUnits="userSpaceOnUse" x1="101.5928" y1="69.8486" x2="121.3516" y2="69.8486">
			<stop  offset="0" style="stop-color:#6D6E70"/>
			<stop  offset="1" style="stop-color:#808184;stop-opacity:0"/>
		</linearGradient>
		<path fill="url(#SVGID_21_)" d="M115.858,73.899c4.18,0.971,7.234-3.354,4.377-4.308c-3.582-1.195-12.594-6.401-18.643-2.521
			C110.595,66.744,106.042,71.619,115.858,73.899z"/>
		
			<linearGradient id="SVGID_22_" gradientUnits="userSpaceOnUse" x1="-3078.0889" y1="857.4531" x2="-3056.186" y2="857.4531" gradientTransform="matrix(-0.8908 0.4543 0.4543 0.8908 -3010.7043 722.6982)">
			<stop  offset="0" style="stop-color:#231F20;stop-opacity:0"/>
			<stop  offset="1" style="stop-color:#231F20"/>
		</linearGradient>
		<path fill="url(#SVGID_22_)" d="M112.183,97.567c-3.74,2.103-12.714,1.689-9.762,1.08c8.469-1.744,4.455-13.559,17.416-12.667
			C111.667,89.779,117.649,94.494,112.183,97.567z"/>
		
			<linearGradient id="SVGID_23_" gradientUnits="userSpaceOnUse" x1="-2827.249" y1="989.8555" x2="-2811.1196" y2="989.8555" gradientTransform="matrix(-0.827 0.5622 0.5622 0.827 -2752.1992 852.5586)">
			<stop  offset="0" style="stop-color:#231F20;stop-opacity:0"/>
			<stop  offset="1" style="stop-color:#231F20"/>
		</linearGradient>
		<path fill="url(#SVGID_23_)" d="M134.995,90.657c-2.277,2.467-5.029,3.429-4.727,1.091c0.574-4.458,5.334-11.636,10.955-11.784
			C133.878,84.573,138.917,86.409,134.995,90.657z"/>
		
			<linearGradient id="SVGID_24_" gradientUnits="userSpaceOnUse" x1="535.0332" y1="-1289.1221" x2="555.4102" y2="-1289.1221" gradientTransform="matrix(0.827 0.5622 -0.5622 0.827 -1078.373 852.5586)">
			<stop  offset="0" style="stop-color:#231F20;stop-opacity:0"/>
			<stop  offset="1" style="stop-color:#231F20"/>
		</linearGradient>
		<path fill="url(#SVGID_24_)" d="M97.714,97.718c2.706,2.932,10.373,0.477,7.57,0.439c-10.588-0.138-5.852-12.906-14.973-13.148
			C96.712,89.028,90.897,90.337,97.714,97.718z"/>
		<linearGradient id="SVGID_25_" gradientUnits="userSpaceOnUse" x1="125.2578" y1="62.9814" x2="127.7021" y2="76.8438">
			<stop  offset="0" style="stop-color:#6D6E70"/>
			<stop  offset="1" style="stop-color:#808184;stop-opacity:0"/>
		</linearGradient>
		<path fill="url(#SVGID_25_)" d="M127.198,75.276c1.861,2.129,6.867,0.605,5.656-0.578c-1.871-2.785-1.855-11.371-13.084-10.75
			C129.001,66.478,123.815,71.405,127.198,75.276z"/>
		<linearGradient id="SVGID_26_" gradientUnits="userSpaceOnUse" x1="140.0049" y1="83.5928" x2="149.005" y2="68.0041">
			<stop  offset="0" style="stop-color:#808184;stop-opacity:0"/>
			<stop  offset="1" style="stop-color:#6D6E70"/>
		</linearGradient>
		<path fill="url(#SVGID_26_)" d="M144.993,77.927c3.656-6.186-1.014-12.863-1.525-13.107c2.594,1.228,6.269,7.346,5.393,14.093
			C147.577,88.79,139.028,88.017,144.993,77.927z"/>
		<linearGradient id="SVGID_27_" gradientUnits="userSpaceOnUse" x1="101.0205" y1="68.75" x2="94.8536" y2="79.4313">
			<stop  offset="0" style="stop-color:#6D6E70"/>
			<stop  offset="1" style="stop-color:#808184;stop-opacity:0"/>
		</linearGradient>
		<path fill="url(#SVGID_27_)" d="M98.687,76.854c-1.23-5.516,1.468-8.707,1.311-8.693c-0.421,0.041-3.844,0.355-5.508,8.322
			C93.438,81.494,99.571,80.814,98.687,76.854z"/>
	</g>
	<linearGradient id="SVGID_28_" gradientUnits="userSpaceOnUse" x1="68.1064" y1="170.8691" x2="149.8926" y2="170.8691">
		<stop  offset="0.4731" style="stop-color:#005AA0"/>
		<stop  offset="0.5446" style="stop-color:#055FA5"/>
		<stop  offset="0.6338" style="stop-color:#156FB5"/>
		<stop  offset="0.6613" style="stop-color:#1B75BB"/>
		<stop  offset="0.828" style="stop-color:#249DD7"/>
		<stop  offset="1" style="stop-color:#26A9E0"/>
	</linearGradient>
	<path fill="url(#SVGID_28_)" d="M134.722,204.301c2.063,2.445-11.176,13.669-24.186,13.669c-13.453,0-39.095-0.874-40.446-7.537
		c-1.359-6.699-2.769-13.913-1.468-33.862c1.356-20.785,3.436-36.791,9.281-45.913c2.983-4.653,14.197-6.888,32.633-6.888
		c16.891,0,21.258,0.417,33.621,4.444c16.671,5.336-8.141,39.09-9.775,55.194C133.644,190.683,131.144,200.058,134.722,204.301z"/>
	<g>
		
			<radialGradient id="SVGID_29_" cx="55.6714" cy="-196.4883" r="32.8186" gradientTransform="matrix(1.0772 0.0577 -0.0628 1.171 24.8892 370.9531)" gradientUnits="userSpaceOnUse">
			<stop  offset="0.5538" style="stop-color:#003C64"/>
			<stop  offset="0.871" style="stop-color:#005AA0;stop-opacity:0"/>
		</radialGradient>
		<path fill="url(#SVGID_29_)" d="M95.058,182.465c19.506,1.045,36.236-15.296,37.373-36.499c0.414-7.739,1.699-14.894-0.674-21.067
			c-5.51-0.97-11.127-1.118-21.189-1.118c-18.436,0-29.65,2.235-32.631,6.887c-5.813,9.073-5.489,19.159-6.817,39.711
			C77.113,177.384,85.532,181.954,95.058,182.465z"/>
		
			<radialGradient id="SVGID_30_" cx="-5535.3271" cy="-3279.7202" r="38.5074" gradientTransform="matrix(-0.4563 -0.0399 0.1479 -0.9475 -1904.4829 -3181.6602)" gradientUnits="userSpaceOnUse">
			<stop  offset="0.4839" style="stop-color:#005AA0;stop-opacity:0"/>
			<stop  offset="0.6089" style="stop-color:#005698;stop-opacity:0.2423"/>
			<stop  offset="0.8076" style="stop-color:#004A80;stop-opacity:0.6272"/>
			<stop  offset="1" style="stop-color:#003C64"/>
		</radialGradient>
		<path fill="url(#SVGID_30_)" d="M116.337,148.923c5.865,0.194,14.619,1.876,23.148,4.276c3.631-14.425,13.476-16.818,7.918-22.798
			c-1.801-1.953-6.033-2.619-7.844-3.254c-4.42-1.553-9.266-2.594-13.908-4.25C122.126,129.546,117.948,141.897,116.337,148.923z"/>
	</g>
	
		<linearGradient id="SVGID_31_" gradientUnits="userSpaceOnUse" x1="-3220.2959" y1="-240.5879" x2="-3188.5933" y2="-240.5879" gradientTransform="matrix(-0.7999 -0.0337 -0.0541 1.2822 -2494.0654 383.0684)">
		<stop  offset="0.7097" style="stop-color:#005AA0"/>
		<stop  offset="0.9194" style="stop-color:#005AA0;stop-opacity:0"/>
	</linearGradient>
	<path fill="url(#SVGID_31_)" d="M70.132,200.477c1.563,1.95,7.148,1.826,9.206,2.438c3.748,1.109,5.947,1.604,10.45,6.876
		c0.992,1.163,3.301,0.577,3.38-1.365c0.292-7.207,0.102-18.46,0.47-25.42c0.359-6.787,2.425-27.126,2.425-27.126
		s-9.535,0.309-18.872,9.354c-4.501,4.359-6.826,7.387-7.046,9.075C69.554,178.843,68.569,198.524,70.132,200.477z"/>
	<g>
		<linearGradient id="SVGID_32_" gradientUnits="userSpaceOnUse" x1="118.7705" y1="192.3682" x2="102.4395" y2="237.2371">
			<stop  offset="0" style="stop-color:#24A0D9"/>
			<stop  offset="0.1218" style="stop-color:#1685C3"/>
			<stop  offset="0.2583" style="stop-color:#0A6DB0"/>
			<stop  offset="0.3859" style="stop-color:#035FA4"/>
			<stop  offset="0.4946" style="stop-color:#005AA0"/>
		</linearGradient>
		<path fill="url(#SVGID_32_)" d="M108.917,232.514c-13.456,0-26.175-0.577-28.729-4.278c-2.865-4.153-11.6-13.962-11.234-25.887
			c-0.067,2.186-0.337,6.977,24.213,8.519c31.341,1.967,40.157-1.688,39.601-13.405c0.453,7.333,8.424,9.031,13.572,11.01
			c4.312,1.657,6.968,5.166,7.413,11.235c0.344,4.72-2.023,9.254-4.597,11.202C141.438,236.754,123.069,232.514,108.917,232.514z"/>
		<linearGradient id="SVGID_33_" gradientUnits="userSpaceOnUse" x1="146.4146" y1="204.7432" x2="133.9695" y2="226.2987">
			<stop  offset="0.1613" style="stop-color:#26A9E0"/>
			<stop  offset="0.3413" style="stop-color:#188DC9"/>
			<stop  offset="0.6064" style="stop-color:#0768AB"/>
			<stop  offset="0.7473" style="stop-color:#005AA0"/>
		</linearGradient>
		<path fill="url(#SVGID_33_)" d="M124.155,213.336c-2.182-4.205,9.045-7.005,8.613-16.066c0.207,3.331,9.648,6.195,14.549,8.079
			c4.312,1.656,5.991,8.096,6.437,14.167c0.344,4.72-2.023,9.253-4.597,11.201C142.86,235.486,128.622,221.939,124.155,213.336z"/>
		<linearGradient id="SVGID_34_" gradientUnits="userSpaceOnUse" x1="73.4058" y1="226.1582" x2="146.848" y2="213.2084">
			<stop  offset="0" style="stop-color:#003C64"/>
			<stop  offset="1" style="stop-color:#005AA0"/>
		</linearGradient>
		<path fill="url(#SVGID_34_)" d="M147.991,220.791c-0.248,6.896-43.566,15.545-59.5,9.887c-10.922-3.881-14.24-9.023-16.931-15.767
			c-2.049-5.132,5.246,3.171,22.585,4.259c16.346,1.025,27.551-3.175,31.385-2.721C139.376,218.092,148.28,212.717,147.991,220.791z
			"/>
		<path fill="#005AA0" d="M77.667,250.666c-8.966-0.203-22.316-38.113-12.397-39.515c5.497-0.776,5.842,9.487,23.194,12.744
			c14.805,2.782,16.616,7.576,16.951,9.949c0.221,1.565-6.851,9.218-15.754,14.329C84.757,250.99,80.918,250.742,77.667,250.666z"/>
		<linearGradient id="SVGID_35_" gradientUnits="userSpaceOnUse" x1="61.1538" y1="231.4053" x2="87.5425" y2="231.4053">
			<stop  offset="0" style="stop-color:#003C64"/>
			<stop  offset="0.2602" style="stop-color:#003E68"/>
			<stop  offset="0.5171" style="stop-color:#004474"/>
			<stop  offset="0.7718" style="stop-color:#004E88"/>
			<stop  offset="1" style="stop-color:#005AA0"/>
		</linearGradient>
		<path fill="url(#SVGID_35_)" d="M74.249,251.643c-8.891,1.181-18.897-39.09-8.979-40.491c3.024-0.428,13.967,14.021,17.2,25.321
			C86.742,251.405,94.462,248.963,74.249,251.643z"/>
		
			<linearGradient id="SVGID_36_" gradientUnits="userSpaceOnUse" x1="-76.9531" y1="469.8613" x2="-78.4312" y2="442.3033" gradientTransform="matrix(0.9927 -0.1207 0.1207 0.9927 103.4121 -239.1675)">
			<stop  offset="0.1022" style="stop-color:#005AA0"/>
			<stop  offset="1" style="stop-color:#26A9E0"/>
		</linearGradient>
		<path fill="url(#SVGID_36_)" d="M98.097,230.108c-6.076,3.63-15.567,8.108-16.157,5.877c-8.524-32.349-31.7-20.25-18.849-23.809
			c3.925-1.087,9.315,4.668,18.878,9.68C92.983,227.628,110.149,222.904,98.097,230.108z"/>
		
			<linearGradient id="SVGID_37_" gradientUnits="userSpaceOnUse" x1="-105.4692" y1="562.6016" x2="-111.4863" y2="528.8813" gradientTransform="matrix(0.9852 -0.1716 0.1716 0.9852 140.3369 -329.2495)">
			<stop  offset="0.1613" style="stop-color:#005AA0"/>
			<stop  offset="0.9355" style="stop-color:#46C8F0"/>
		</linearGradient>
		<path fill="url(#SVGID_37_)" d="M144.444,234.343c-9.689,6.068-27.727,16.044-28.984,14.581
			c-5.854-6.795-23.287-27.796-10.637-32.013c3.77-1.257,15.578,9.263,29.115,4.81c7.555-2.485,17.089-7.131,18.216,3.496
			C152.547,228.916,147.155,232.646,144.444,234.343z"/>
		<path fill="#005AA0" d="M149.177,231.076c-8.479,6.293-10.105,7.601-16.1,11.793c-3.123,2.185-4.674,8.013-6.865,9.459
			c-3.221,2.125-12.561,1.848-13.01,1.857c-8.967,0.218-15.85-34.729-6.348-37.896c5.59-1.862,14.424,12.436,14.961,25.191
			c0.084,1.974,19.867-9.499,30.503-16.331C153.707,224.258,151.408,229.42,149.177,231.076z"/>
		<linearGradient id="SVGID_38_" gradientUnits="userSpaceOnUse" x1="101.5811" y1="219.2344" x2="121.8823" y2="254.3972">
			<stop  offset="0" style="stop-color:#003C64"/>
			<stop  offset="0.2602" style="stop-color:#003E68"/>
			<stop  offset="0.5171" style="stop-color:#004474"/>
			<stop  offset="0.7718" style="stop-color:#004E88"/>
			<stop  offset="1" style="stop-color:#005AA0"/>
		</linearGradient>
		<path fill="url(#SVGID_38_)" d="M112.714,254.186c-8.967,0.218-15.361-34.729-5.859-37.896
			c5.59-1.862,13.936,12.436,14.475,25.191c0.389,9.285,7.275,10.583,1.203,12.138C120.884,254.04,117.167,254.081,112.714,254.186z
			"/>
		<g>
			<path fill="#808184" d="M79.454,228.779c0.128-2.354-0.171-5.089-0.618-7.399c-0.473-2.446-8.197-10.219-10.992-10.359
				c-4.295-0.217-7.773,2.929-8.599,7.319c-0.716,3.801,0.156,6.72-0.259,12.188c-0.647,8.524-2.663,9.016-1.629,17.964
				c0.541,4.687,5.342,7.46,12.938,6.394c7.145-1.004,10.652-3.76,10.151-10.576C79.949,237.543,79.041,236.4,79.454,228.779z"/>
			
				<linearGradient id="SVGID_39_" gradientUnits="userSpaceOnUse" x1="128.7959" y1="-2767.3057" x2="152.1094" y2="-2767.3057" gradientTransform="matrix(0.9984 0.0462 0.0548 -0.9299 78.3711 -2347.0195)">
				<stop  offset="0" style="stop-color:#404041"/>
				<stop  offset="1" style="stop-color:#58595B"/>
			</linearGradient>
			<path fill="url(#SVGID_39_)" d="M74.197,228.555c0.267-4.938,1.17-5.85,0.269-10.506c-0.714-3.697-4.554-7.042-8.773-7.254
				c-4.295-0.217-7.772,2.93-8.599,7.317c-0.716,3.804-2.923,21.205-1.889,30.154c0.541,4.687,5.343,7.458,12.938,6.392
				c7.145-1.002,10.208-3.759,9.708-10.576C77.355,237.317,73.784,236.176,74.197,228.555z"/>
			
				<linearGradient id="SVGID_40_" gradientUnits="userSpaceOnUse" x1="129.104" y1="-2752.6045" x2="147.4736" y2="-2752.6045" gradientTransform="matrix(0.9984 0.0462 0.0548 -0.9299 78.3711 -2347.0195)">
				<stop  offset="0" style="stop-color:#404041"/>
				<stop  offset="0.9108" style="stop-color:#424243"/>
				<stop  offset="1" style="stop-color:#434344"/>
			</linearGradient>
			<path fill="url(#SVGID_40_)" d="M74.352,225.058c0.044-2.296,0.751-3.717,0.115-7.009c-0.714-3.697-4.554-7.042-8.773-7.254
				c-4.295-0.217-7.772,2.93-8.599,7.317c-0.549,2.914-1.052,5.309-1.03,8.728C56.072,227.884,74.333,226.008,74.352,225.058z"/>
			<path fill="#6D6E70" d="M57.362,248.509c0.357,1.398,3.816,4.911,11.688,3.084c5.58-1.294,9.453-4.009,8.685-6.386
				c-0.698-2.159-5.675-0.369-10.563,0.586C61.381,246.925,56.948,246.886,57.362,248.509z"/>
		</g>
		<g>
			<path fill="#808184" d="M95.501,231.057c0.324-4.933,0.417-5.84,1.865-10.329c1.15-3.568,5.357-6.343,9.566-5.961
				c4.285,0.392,10.018,7.989,10.314,12.458c0.256,3.871,0.016,4.676-1.641,9.907c-1.428,4.518-1.537,7.095-3.631,15.821
				c-1.096,4.572-4.525,6.161-12.152,5.391c-7.412-0.75-12.113-5.27-11.053-10.69C90.069,241.014,95.003,238.673,95.501,231.057z"/>
			
				<linearGradient id="SVGID_41_" gradientUnits="userSpaceOnUse" x1="-3250.0894" y1="-2714.2959" x2="-3225.7861" y2="-2714.2959" gradientTransform="matrix(-0.996 -0.0835 0.0661 -0.9292 -2945.6445 -2556.0063)">
				<stop  offset="0" style="stop-color:#404041"/>
				<stop  offset="1" style="stop-color:#58595B"/>
			</linearGradient>
			<path fill="url(#SVGID_41_)" d="M94.614,231.5c0.323-4.932-0.469-6.283,0.978-10.772c1.151-3.568,5.356-6.343,9.567-5.961
				c4.283,0.392,7.357,3.998,7.652,8.466c0.256,3.872-1.404,20.55-3.496,29.277c-1.096,4.572-3.641,6.604-11.266,5.834
				c-7.412-0.75-12.115-5.27-11.054-10.69C88.295,241.014,94.114,239.116,94.614,231.5z"/>
			
				<linearGradient id="SVGID_42_" gradientUnits="userSpaceOnUse" x1="-3250.0898" y1="-2699.0078" x2="-3231.9458" y2="-2699.0078" gradientTransform="matrix(-0.996 -0.0835 0.0661 -0.9292 -2945.6445 -2556.0063)">
				<stop  offset="0" style="stop-color:#404041"/>
				<stop  offset="0.9108" style="stop-color:#424243"/>
				<stop  offset="1" style="stop-color:#434344"/>
			</linearGradient>
			<path fill="url(#SVGID_42_)" d="M94.687,227.3c-0.029-2.086-0.029-3.677,0.905-6.572c1.151-3.568,5.356-6.343,9.567-5.961
				c4.283,0.392,7.357,3.998,7.652,8.466c0.088,1.323-0.049,4.147-0.352,7.64C112.411,231.461,94.694,227.869,94.687,227.3z"/>
			<path fill="#6D6E70" d="M109.044,252.604c-0.408,1.382-4.084,5.176-11.879,3.001c-5.524-1.545-9.209-4.871-8.352-7.213
				c0.78-2.126,5.684-0.113,10.532,1.059C105.088,250.839,109.519,251,109.044,252.604z"/>
		</g>
	</g>
	<g>
		<path fill="#5B5B5B" d="M92.711,151.088c-2.593,3.709-10.101,10.924-14.695,19.635c-3.042,5.766-5.659,13.159-2.944,15.44
			c0.234,0.197,0.782-1.345,1.029-1.156c0.21,0.161,0.165,1.076,0.382,1.232c0.295,0.214,0.98-0.425,1.285-0.21
			c0.324,0.229,0.268,1.309,0.596,1.543c0.295,0.211,1.013-0.391,1.293-0.197c0.281,0.195,0.125,1.189,0.412,1.427
			c0.239,0.196,0.737-0.104,0.967,0.082c0.129,0.104-0.008,0.681,0.119,0.806c0.2,0.197,0.651,0.123,0.831,0.32
			c0.179,0.198,0.063,1.156,0.244,1.389c0.168,0.213,0.695-0.384,0.864-0.172c0.168,0.212-0.047,1.72,0.103,1.971
			c0.175,0.295,0.711-0.195,0.869,0.107c0.176,0.336-0.028,1.468,0.118,1.867c0.145,0.397,0.763,0.167,0.875,0.622
			c0.112,0.455-0.283,1.597-0.2,2.051c0.802,4.41,2.175,7.68,3.896,10.04c1.598,2.188,3.105,2.39,4.807,1.65
			c1.052-0.456,0.28-16.159,1.17-30.488c0.779-12.532,3.892-24.156,2.539-27.67C97.036,150.769,93.1,150.531,92.711,151.088z"/>
		<path fill="#404041" d="M89.114,206.845c-1.721-2.361-3.095-5.631-3.897-10.041c-0.015-0.081-0.095-0.104-0.212-0.094
			c-0.035,0.54-0.278,1.354-0.212,1.723c0.805,4.41,2.177,7.679,3.897,10.039c1.598,2.188,3.104,2.392,4.806,1.653
			c0.163-0.071,0.28-0.508,0.37-1.244C92.186,208.912,90.211,208.347,89.114,206.845z"/>
		<path fill="#404041" d="M98.79,151.864c0.028-0.65-1.439-0.96-1.338-0.29c0.16,1.043-2.385,15.464-3.203,27.721
			c-0.977,14.642-0.883,28.501-1.092,30.054c-0.226,1.68,0.206,0.913,0.75,0.674c1.053-0.457,0.77-16.647,1.66-30.977
			C96.527,163.596,98.622,155.639,98.79,151.864z"/>
		
			<linearGradient id="SVGID_43_" gradientUnits="userSpaceOnUse" x1="-3167.1855" y1="65.498" x2="-3167.1855" y2="102.0674" gradientTransform="matrix(-0.9987 -0.0506 -0.0506 0.9987 -3073.6514 -75.5425)">
			<stop  offset="0" style="stop-color:#58595B"/>
			<stop  offset="0.7366" style="stop-color:#808184"/>
			<stop  offset="0.8168" style="stop-color:#797A7D"/>
			<stop  offset="0.9351" style="stop-color:#666769"/>
			<stop  offset="1" style="stop-color:#58595B"/>
		</linearGradient>
		<path fill="url(#SVGID_43_)" d="M81.977,170.982c6.417-12.168,14.386-19.144,15.009-20.035c0.081-0.116-3.938-0.545-4.355,0.052
			c-0.424,0.606-8.099,7.573-14.719,20.123c-3.427,6.497-5.996,14.454-3.042,15.177C75.701,186.501,79.274,176.105,81.977,170.982z"
			/>
		<g>
			<path fill="#404041" d="M84.614,192.557c-0.085-0.472-0.966,0.221-1.086-0.206c-0.128-0.457,0.246-2.333,0.081-2.742
				c-0.161-0.404-0.826,1.132-1.018,0.771c-0.17-0.328,0.139-2.561-0.055-2.855c-0.207-0.319-0.845,2.145-1.073,1.855
				c-0.166-0.21,0.086-3.181-0.089-3.378c-0.208-0.231-0.925,2.377-1.142,2.162c-0.228-0.224,0.045-3.269-0.19-3.474
				c-0.295-0.26-1.229,1.972-1.533,1.732c-0.302-0.236,0.025-2.943-0.281-3.166c-0.301-0.222-1.235,2.044-1.536,1.832
				c-0.25-0.175-2.648-0.894-2.908-1.082c-0.123-0.09-0.322,2.34,0.044,2.646c0.219,0.184,1.69,0.418,1.918,0.584
				c0.311,0.226,0.946-0.789,1.266-0.564c0.307,0.216,0.301,1.673,0.612,1.895c0.342,0.242,0.923-0.604,1.263-0.348
				c0.221,0.169,0.203,1.44,0.423,1.619c0.209,0.171,0.658-0.75,0.862-0.568c0.164,0.145,0.085,1.39,0.244,1.542
				c0.179,0.171,0.781-0.397,0.953-0.217c0.194,0.205-0.045,1.162,0.139,1.384c0.187,0.226,1.21-0.359,1.385-0.114
				c0.142,0.196,0.118,1.255,0.25,1.466c0.194,0.311,0.53,0.044,0.702,0.388c0.163,0.325,0.164,1.256,0.303,1.614
				c0.151,0.386,0.69,0.14,0.811,0.567c0.12,0.43-0.177,1.534-0.091,2.009c0.03,0.166,0.622-2.139,0.45-3.064
				c-0.082-0.436-0.903,0.646-0.984,0.209C84.188,194.285,84.639,192.693,84.614,192.557z"/>
		</g>
	</g>
	
		<linearGradient id="SVGID_44_" gradientUnits="userSpaceOnUse" x1="272.8994" y1="-280.6592" x2="242.7442" y2="-261.3042" gradientTransform="matrix(0.9989 0.047 -0.047 0.9989 -130.2363 409.7456)">
		<stop  offset="0.5645" style="stop-color:#003C64"/>
		<stop  offset="0.6178" style="stop-color:#024069"/>
		<stop  offset="0.681" style="stop-color:#064A77"/>
		<stop  offset="0.7494" style="stop-color:#0E5C8F"/>
		<stop  offset="0.821" style="stop-color:#1874B1"/>
		<stop  offset="0.8548" style="stop-color:#1E81C3"/>
		<stop  offset="0.8999" style="stop-color:#1F88C8;stop-opacity:0.6899"/>
		<stop  offset="0.9665" style="stop-color:#239CD7;stop-opacity:0.2308"/>
		<stop  offset="1" style="stop-color:#26A9E0;stop-opacity:0"/>
	</linearGradient>
	<path opacity="0.5" fill="url(#SVGID_44_)" d="M151.182,134.855c-8.72-10.147-21.386-10.61-21.479,19.065
		c-0.043,13.775,4.607,27.245,6.111,22.475c0.012-0.038,6.287-14.927,9.377-23.775C146.452,149.002,155.936,140.388,151.182,134.855
		z"/>
	<g>
		<g>
			
				<linearGradient id="SVGID_45_" gradientUnits="userSpaceOnUse" x1="3253.0537" y1="210.8027" x2="3253.1074" y2="222.9647" gradientTransform="matrix(0.4048 -0.0111 0.0273 0.9996 -1256.9023 -46.8999)">
				<stop  offset="0" style="stop-color:#25A5DD"/>
				<stop  offset="0.0914" style="stop-color:#8FCBE4"/>
				<stop  offset="0.2634" style="stop-color:#26A9E0"/>
				<stop  offset="0.4624" style="stop-color:#1B75BB"/>
				<stop  offset="0.6882" style="stop-color:#005AA0"/>
				<stop  offset="0.914" style="stop-color:#1B75BB"/>
				<stop  offset="0.9372" style="stop-color:#1C7ABF"/>
				<stop  offset="0.9656" style="stop-color:#1F89C9"/>
				<stop  offset="0.9966" style="stop-color:#24A2DB"/>
				<stop  offset="1" style="stop-color:#25A5DD"/>
			</linearGradient>
			<path fill="url(#SVGID_45_)" d="M67.403,127.671c-0.575,0.018-3.418,0.242-3.735,0.428c-1.318,0.764-1.796,2.885-1.747,5.786
				c0.048,2.697,0.012,5.508,1.841,6.064c0.262,0.079,3.476-0.172,3.847-0.182c1.138-0.035,2.015-2.77,1.959-6.108
				C69.512,130.319,68.542,127.638,67.403,127.671z"/>
			
				<linearGradient id="SVGID_46_" gradientUnits="userSpaceOnUse" x1="3251.5078" y1="210.7549" x2="3251.5615" y2="222.9423" gradientTransform="matrix(0.4048 -0.0111 0.0273 0.9996 -1256.9023 -46.8999)">
				<stop  offset="0.0914" style="stop-color:#8FCBE4"/>
				<stop  offset="0.3381" style="stop-color:#8DCAE4"/>
				<stop  offset="0.4616" style="stop-color:#85C8E4"/>
				<stop  offset="0.5576" style="stop-color:#78C4E3"/>
				<stop  offset="0.6396" style="stop-color:#65BDE2"/>
				<stop  offset="0.7125" style="stop-color:#4DB6E1"/>
				<stop  offset="0.7781" style="stop-color:#2FACE0"/>
				<stop  offset="0.7957" style="stop-color:#26A9E0"/>
			</linearGradient>
			<path fill="url(#SVGID_46_)" d="M67.981,127.669c-0.575,0.018-3.996,0.244-4.313,0.43c-1.318,0.764-1.796,2.885-1.747,5.786
				c0.048,2.697,0.012,5.508,1.841,6.064c0.262,0.079-0.491-2.737-0.548-6.076C63.09,126.626,69.206,127.633,67.981,127.669z"/>
		</g>
		<linearGradient id="SVGID_47_" gradientUnits="userSpaceOnUse" x1="61.3828" y1="139.6445" x2="138.6924" y2="139.6445">
			<stop  offset="0.1774" style="stop-color:#A6A8AB"/>
			<stop  offset="0.4839" style="stop-color:#D0D2D3"/>
			<stop  offset="0.5481" style="stop-color:#CCCECF"/>
			<stop  offset="0.6187" style="stop-color:#BFC0C2"/>
			<stop  offset="0.6922" style="stop-color:#A9AAAC"/>
			<stop  offset="0.7673" style="stop-color:#8B8C8F"/>
			<stop  offset="0.7903" style="stop-color:#808184"/>
		</linearGradient>
		<path fill="url(#SVGID_47_)" d="M120.401,133.096c0.623-11.515,18.334-5.894,18.291-6.735c-0.086-1.678-10.975-5.748-17.152-6.047
			c-20.861-1.008-29.436,0.888-41.882,1.279c-12.55,0.393-17.253-3.234-17.941-2.134c-0.708,1.128-0.043,1.144-0.208,4.646
			c-0.18,3.826,5.11,7.077,5.027,10.646c-0.085,3.561-2.889,4.92-1.05,8.829c3.435,7.302,5.713,16.233,19.352,16.456
			C106.997,160.395,120.187,137.054,120.401,133.096z"/>
		<linearGradient id="SVGID_48_" gradientUnits="userSpaceOnUse" x1="61.5078" y1="122.5273" x2="138.708" y2="122.5273">
			<stop  offset="0" style="stop-color:#808184"/>
			<stop  offset="0.9409" style="stop-color:#6D6E70"/>
		</linearGradient>
		<path fill="url(#SVGID_48_)" d="M138.399,126.312c0.248,0.207,0.445-0.681,0.188-1.064c-0.502-0.75-17.195-5.353-37.966-7.07
			c-5.7-0.472-13.735,2.243-19.987,2.438c-12.549,0.394-17.741-2.256-18.43-1.155c-0.707,1.128-0.531-0.321-0.696,3.181
			c-0.011,0.246,1.674,4.318,15.542,4.293c5.76-0.01,19.373-3.684,28.198-3.675C125.22,123.279,136.897,125.067,138.399,126.312z"/>
		<linearGradient id="SVGID_49_" gradientUnits="userSpaceOnUse" x1="61.6216" y1="144.2959" x2="122.6475" y2="144.2959">
			<stop  offset="0" style="stop-color:#999A9D"/>
			<stop  offset="0.9839" style="stop-color:#6D6E70"/>
		</linearGradient>
		<path fill="url(#SVGID_49_)" d="M122.354,133.584c-0.254-4.825-0.801-2.837,0.285-7.385c0.471-1.967-20.07,10.395-43.224,11.076
			c-14.758,0.431-17.864-12.51-17.793-12.138c0.467,2.445,5.072,4.221,4.912,11.077c-0.138,5.828-1.774,2.746-2.173,7.364
			c-0.803,9.319,6.052,19.64,20.476,19.874c19.181,0.313,32.602-7.672,36.25-20.41C122.118,139.438,122.585,137.967,122.354,133.584
			z"/>
		<linearGradient id="SVGID_50_" gradientUnits="userSpaceOnUse" x1="64.1665" y1="143.5112" x2="119.4751" y2="143.5112">
			<stop  offset="0.1774" style="stop-color:#A6A8AB"/>
			<stop  offset="0.4839" style="stop-color:#D0D2D3"/>
			<stop  offset="0.5481" style="stop-color:#CCCECF"/>
			<stop  offset="0.6187" style="stop-color:#BFC0C2"/>
			<stop  offset="0.6922" style="stop-color:#A9AAAC"/>
			<stop  offset="0.7673" style="stop-color:#8B8C8F"/>
			<stop  offset="0.7903" style="stop-color:#808184"/>
		</linearGradient>
		<path fill="url(#SVGID_50_)" d="M89.833,138.954c-13.799,0.37-23.306-6.201-23.338-4.817c-0.042,1.744,0.259,4.949-0.139,6.514
			c-0.106,0.418-1.816,1.688-2.035,2.715c-0.318,1.5-0.047,3.039-0.032,3.855c0.076,4.797,5.876,10.523,18.146,10.705
			c16.369,0.245,31.625-7.541,34.375-13.626c1.178-2.604,1.246-4.369,0.682-6.251c-0.641-2.116,3.188-6.769,1.592-8.913
			C118.483,128.33,102.313,138.619,89.833,138.954z"/>
		<linearGradient id="SVGID_51_" gradientUnits="userSpaceOnUse" x1="63.0781" y1="141.1191" x2="117.9468" y2="141.1191">
			<stop  offset="0" style="stop-color:#ADAFB2"/>
			<stop  offset="0.3065" style="stop-color:#E6E7E8"/>
			<stop  offset="0.9785" style="stop-color:#C0C2C4"/>
		</linearGradient>
		<path fill="url(#SVGID_51_)" d="M83.867,149.363c-13.799,0.369-8.118-15.928-14.583-17.313c-2.878-0.615-6.174-3.998-6.206-2.615
			c-0.042,1.746,3.189,5.438,2.791,7.003c-0.106,0.418-0.84,1.688-1.059,2.715c-0.317,1.499-0.437,3.039-0.423,3.854
			c0.097,6.082,5.596,9.957,16.583,10.121c15.784,0.236,30.844-6.344,33.008-11.134c1.178-2.606,1.637-3.345,1.072-5.228
			c-0.641-2.115,4.164-4.813,2.568-6.958c-0.6-0.807-6.369,1.264-6.896,2.316C108.208,137.131,96.348,149.027,83.867,149.363z"/>
		<linearGradient id="SVGID_52_" gradientUnits="userSpaceOnUse" x1="65.894" y1="140.7207" x2="113.688" y2="140.7207">
			<stop  offset="0" style="stop-color:#1B75BB"/>
			<stop  offset="0.3817" style="stop-color:#26A9E0"/>
			<stop  offset="0.7312" style="stop-color:#98D6F0"/>
			<stop  offset="1" style="stop-color:#26A9E0"/>
		</linearGradient>
		<path fill="url(#SVGID_52_)" d="M112.099,134.165c-0.363-6.9,1.166-1.727-28.138-0.841c-12.59,0.38-17.786-2.235-18.067-2.533
			c0.125,0.135,3.08,2.666,3.082,2.586c-0.053,2.24-1.863,3.801-2.38,6.055c-0.295,1.286-3.448,11.064,15.31,11.372
			c17.99,0.292,33.029-9.125,31.701-12.046C113.022,137.473,112.19,135.91,112.099,134.165z"/>
		<linearGradient id="SVGID_53_" gradientUnits="userSpaceOnUse" x1="64.3457" y1="136.1523" x2="117.6479" y2="136.1523">
			<stop  offset="0" style="stop-color:#26A9E0"/>
			<stop  offset="0.1559" style="stop-color:#1B75BB"/>
			<stop  offset="0.5092" style="stop-color:#1B77BD"/>
			<stop  offset="0.6898" style="stop-color:#1D7FC2"/>
			<stop  offset="0.8313" style="stop-color:#208CCC"/>
			<stop  offset="0.9519" style="stop-color:#249FD9"/>
			<stop  offset="1" style="stop-color:#26A9E0"/>
		</linearGradient>
		<path opacity="0.5" fill="url(#SVGID_53_)" d="M117.647,129.105c0.117-0.614-14.855,3.649-33.687,4.219
			c-19.978,0.605-19.77-4.89-19.577-3.946c0.438,2.143,3.312,6.444,5.481,7.94c6.984,4.811,4.229,5.775,13.506,5.927
			c8.956,0.146,20.218-0.741,27.245-5.699C112.919,135.922,117.333,130.812,117.647,129.105z"/>
		<linearGradient id="SVGID_54_" gradientUnits="userSpaceOnUse" x1="64.6377" y1="134.6904" x2="116.1919" y2="134.6904">
			<stop  offset="0" style="stop-color:#005AA0"/>
			<stop  offset="0.4601" style="stop-color:#025CA2"/>
			<stop  offset="0.6953" style="stop-color:#0864A9"/>
			<stop  offset="0.879" style="stop-color:#1271B5"/>
			<stop  offset="1" style="stop-color:#1D7FC2"/>
		</linearGradient>
		<path opacity="0.5" fill="url(#SVGID_54_)" d="M111.12,135.813c2.547-1.769,4.984-5.342,5.055-5.629
			c0.508-2.098-10.23,2.474-34.168,3.198c-16.559,0.5-15.93-3.792-17.321-4.299c-0.197-0.071-0.027,4.65,5.267,7.848
			c2.77,1.672,6.19,3.229,13.956,3.355C94.202,140.455,107.167,138.563,111.12,135.813z"/>
		<linearGradient id="SVGID_55_" gradientUnits="userSpaceOnUse" x1="60.2861" y1="121.2573" x2="138.7188" y2="121.2573">
			<stop  offset="0.1774" style="stop-color:#A6A8AB"/>
			<stop  offset="0.4839" style="stop-color:#D0D2D3"/>
			<stop  offset="0.5481" style="stop-color:#CCCECF"/>
			<stop  offset="0.6187" style="stop-color:#BFC0C2"/>
			<stop  offset="0.6922" style="stop-color:#A9AAAC"/>
			<stop  offset="0.7673" style="stop-color:#8B8C8F"/>
			<stop  offset="0.7903" style="stop-color:#808184"/>
		</linearGradient>
		<path fill="url(#SVGID_55_)" d="M138.714,125.044c-0.166-1.672-10.768-5.829-31.477-7.934
			c-10.352-1.051-21.748,2.611-30.188,2.652c-15.486,0.074-15.605-3.916-16.52-1.018c-0.332,1.054-0.44,2.223,0.424,2.223
			c2.144-0.039,0.513,2.854,15.873,2.906c6.219,0.023,17.934-2.773,29.442-2.259c16.898,0.757,31.42,2.11,32.061,3.86
			C138.425,125.737,138.763,125.554,138.714,125.044z"/>
		<linearGradient id="SVGID_56_" gradientUnits="userSpaceOnUse" x1="81.8091" y1="151.0566" x2="81.8091" y2="133.3193">
			<stop  offset="0.2903" style="stop-color:#FFFFFF"/>
			<stop  offset="0.3429" style="stop-color:#EEF8FD;stop-opacity:0.9206"/>
			<stop  offset="0.9516" style="stop-color:#26A9E0;stop-opacity:0"/>
		</linearGradient>
		<path opacity="0.7" fill="url(#SVGID_56_)" d="M87.485,133.439c0-0.475,3.053,0.592-2.548,0.761
			c-6.523,0.198-11.08-1.372-11.033-0.577c0.352,5.738,4.164,1.696,4.102,6.883c-0.062,5.84-3.445,2.488-2.73,9.417
			c0.037,0.349,0.964,0.827,7.118,0.93c2.412,0.038,3.81,0.431,3.846,0.012c0.678-7.876,3.78-3.378,3.45-9.87
			C89.417,135.637,87.485,139.818,87.485,133.439z"/>
		<g>
			
				<linearGradient id="SVGID_57_" gradientUnits="userSpaceOnUse" x1="-4232.79" y1="175.7939" x2="-4232.7368" y2="187.9198" gradientTransform="matrix(-0.4044 0.0017 -0.1018 1.0016 -1571.7117 -41.9399)">
				<stop  offset="0" style="stop-color:#25A5DD"/>
				<stop  offset="0.0914" style="stop-color:#8FCBE4"/>
				<stop  offset="0.2634" style="stop-color:#26A9E0"/>
				<stop  offset="0.4624" style="stop-color:#1B75BB"/>
				<stop  offset="0.6882" style="stop-color:#005AA0"/>
				<stop  offset="0.914" style="stop-color:#1B75BB"/>
				<stop  offset="0.9372" style="stop-color:#1C7ABF"/>
				<stop  offset="0.9656" style="stop-color:#1F89C9"/>
				<stop  offset="0.9966" style="stop-color:#24A2DB"/>
				<stop  offset="1" style="stop-color:#25A5DD"/>
			</linearGradient>
			<path fill="url(#SVGID_57_)" d="M121.177,127.142c0.576-0.001,1.766-0.089,2.068,0.086c1.264,0.723,1.584,2.831,1.318,5.737
				c-0.246,2.702-0.422,5.516-2.293,6.129c-0.268,0.088-1.83,0.162-2.203,0.163c-1.135,0.002-1.809-2.708-1.504-6.054
				C118.87,129.857,120.04,127.143,121.177,127.142z"/>
			
				<linearGradient id="SVGID_58_" gradientUnits="userSpaceOnUse" x1="-4235.083" y1="175.8047" x2="-4235.0303" y2="187.7548" gradientTransform="matrix(-0.4044 0.0017 -0.1018 1.0016 -1571.7117 -41.9399)">
				<stop  offset="0.0914" style="stop-color:#8FCBE4"/>
				<stop  offset="0.3381" style="stop-color:#8DCAE4"/>
				<stop  offset="0.4616" style="stop-color:#85C8E4"/>
				<stop  offset="0.5576" style="stop-color:#78C4E3"/>
				<stop  offset="0.6396" style="stop-color:#65BDE2"/>
				<stop  offset="0.7125" style="stop-color:#4DB6E1"/>
				<stop  offset="0.7781" style="stop-color:#2FACE0"/>
				<stop  offset="0.7957" style="stop-color:#26A9E0"/>
			</linearGradient>
			<path fill="url(#SVGID_58_)" d="M121.128,127.142c0.574-0.001,1.814-0.089,2.117,0.086c1.264,0.723,1.584,2.831,1.318,5.737
				c-0.246,2.702-0.422,5.516-2.293,6.129c-0.268,0.088-1.617-2.691-1.313-6.038C121.384,128.404,120.802,127.143,121.128,127.142z"
				/>
		</g>
	</g>
	<g>
		<g>
			<g>
				<path fill="#808184" d="M23.519,70.765c-0.081-1.295,0.389-2.543,1.336-3.467c1.457-1.422,3.741-1.805,6.269-1.053l-0.511,2.27
					c-1.69-0.505-3.294-0.357-4.126,0.455c-0.562,0.548-0.769,1.344-0.555,2.128c0.338,1.242,1.594,2.217,3.448,2.674
					c2.027,0.499,3.693,0.121,4.817-1.095c1.139-1.234,1.524-3.213,0.954-4.926c-0.32-0.967-1.21-2.615-3.611-3.244
					c-1.005-0.264-0.567-2.549,0.455-2.295c2.626,0.648,4.57,2.377,5.375,4.803c0.842,2.535,0.269,5.379-1.457,7.248
					c-1.711,1.85-4.229,2.482-7.091,1.776c-2.701-0.666-4.576-2.243-5.143-4.329C23.589,71.396,23.538,71.077,23.519,70.765z"/>
			</g>
			<g>
				<path fill="#C0C2C4" d="M24.864,67.712c1.436-1.399,3.673-1.789,6.152-1.082l0.089-0.394c-2.527-0.755-4.812-0.37-6.268,1.052
					c-0.948,0.925-1.417,2.174-1.337,3.467c0.005,0.07,0.011,0.144,0.02,0.215C23.5,69.751,23.969,68.588,24.864,67.712z"/>
				<path fill="#58595B" d="M26.507,68.544c-0.502,0.489-0.72,1.176-0.61,1.875c0.017-0.547,0.237-1.061,0.637-1.45
					c0.831-0.812,2.318-0.979,4.008-0.474l0.09-0.408C28.943,67.584,27.34,67.731,26.507,68.544z"/>
			</g>
			<g>
				<path fill="#C0C2C4" d="M25.935,68.892c-0.561,0.549-0.761,1.473-0.547,2.257c0.594,2.185,3.385,3.458,6.089,3.327
					c0.93-0.045,0.598-0.424-0.552-0.481c-0.464-0.023-0.955-0.084-1.469-0.21c-1.853-0.457-3.11-1.432-3.448-2.674
					c-0.213-0.785-0.006-1.58,0.556-2.128c0.363-0.356,0.845-0.589,1.413-0.697C26.965,68.237,26.5,68.341,25.935,68.892z"/>
				<path fill="#C0C2C4" d="M36.811,67.054c0.841,2.535,0.262,5.25-1.464,7.119c-1.958,2.117-6.521,2.134-4.274,2.147
					c1.948,0.011,3.644-0.696,4.904-2.058c1.726-1.867,2.297-4.711,1.456-7.248c-0.812-2.445-2.778-4.18-5.435-4.816
					c-0.385-0.093-0.731,0.229-0.742,0.247C34.242,63.155,36.031,64.704,36.811,67.054z"/>
			</g>
			<g>
				<path fill="#58595B" d="M34.916,72.765c1.14-1.232,1.515-3.341,0.947-5.054c-0.827-2.492-3.08-3.642-4.989-3.822
					c0.009,0.015,0.236,0.52,0.66,0.634c2.375,0.635,3.258,2.271,3.579,3.234c0.567,1.713,0.184,3.693-0.956,4.926
					c-0.623,0.675-1.413,1.096-2.339,1.242C29.662,74.267,32.378,75.509,34.916,72.765z"/>
				<path fill="#58595B" d="M30.042,75.837c-3.035-0.523-5.085-2.082-5.653-4.166c-0.085-0.315-0.138-0.633-0.159-0.947
					c-0.08-1.293,0.292-2.432,1.239-3.356c0.767-0.747,2.119-1.331,3.257-1.489c-1.563-0.02-2.926,0.465-3.91,1.428
					c-0.947,0.924-1.417,2.174-1.336,3.467c0.02,0.314,0.072,0.63,0.158,0.945c0.567,2.085,2.441,3.662,5.142,4.328
					c1.129,0.277,2.201,0.308,3.199,0.217C33.533,76.122,31.307,76.056,30.042,75.837z"/>
			</g>
		</g>
		<g>
			<g>
				<path fill="#808184" d="M22.814,74.845c-0.081-1.293,0.39-2.543,1.337-3.467c1.457-1.423,3.742-1.806,6.268-1.053l-0.51,2.269
					c-1.69-0.504-3.294-0.356-4.125,0.455c-0.562,0.548-0.77,1.345-0.557,2.128c0.339,1.243,1.596,2.217,3.449,2.674
					c2.027,0.5,3.693,0.121,4.816-1.096c1.141-1.232,1.524-3.212,0.955-4.925c-0.32-0.967-1.21-2.614-3.612-3.244
					c-1.004-0.263-0.568-2.548,0.456-2.294c2.626,0.648,4.569,2.377,5.373,4.802c0.842,2.536,0.27,5.38-1.456,7.248
					c-1.711,1.852-4.23,2.482-7.092,1.777c-2.7-0.665-4.574-2.244-5.142-4.327C22.886,75.475,22.835,75.159,22.814,74.845z"/>
			</g>
			<g>
				<path fill="#C0C2C4" d="M24.16,71.792c1.435-1.399,3.673-1.791,6.152-1.084l0.088-0.393c-2.526-0.754-4.811-0.37-6.267,1.052
					c-0.947,0.925-1.418,2.173-1.337,3.467c0.005,0.071,0.012,0.144,0.019,0.216C22.796,73.831,23.264,72.667,24.16,71.792z"/>
				<path fill="#58595B" d="M25.803,72.624c-0.501,0.489-0.721,1.176-0.61,1.875c0.019-0.547,0.238-1.061,0.636-1.45
					c0.832-0.813,2.318-0.978,4.009-0.476l0.091-0.406C28.238,71.663,26.635,71.812,25.803,72.624z"/>
			</g>
			<g>
				<path fill="#C0C2C4" d="M25.231,72.972c-0.562,0.548-0.761,1.473-0.546,2.256c0.594,2.184,3.384,3.457,6.088,3.328
					c0.93-0.045,0.598-0.424-0.552-0.482c-0.465-0.022-0.955-0.084-1.469-0.21c-1.854-0.457-3.109-1.431-3.448-2.675
					c-0.213-0.783-0.005-1.579,0.556-2.126c0.363-0.356,0.845-0.589,1.414-0.698C26.261,72.317,25.796,72.421,25.231,72.972z"/>
				<path fill="#C0C2C4" d="M36.107,71.134c0.841,2.535,0.262,5.25-1.465,7.117c-1.958,2.12-6.52,2.137-4.273,2.148
					c1.947,0.012,3.645-0.695,4.903-2.058c1.725-1.867,2.297-4.712,1.457-7.246c-0.812-2.445-2.778-4.181-5.434-4.818
					c-0.385-0.093-0.732,0.229-0.742,0.248C33.537,67.235,35.328,68.784,36.107,71.134z"/>
			</g>
			<g>
				<path fill="#58595B" d="M34.212,76.845c1.139-1.232,1.515-3.342,0.947-5.055c-0.827-2.491-3.08-3.641-4.987-3.82
					c0.007,0.013,0.234,0.519,0.658,0.631c2.377,0.637,3.259,2.275,3.579,3.236c0.569,1.715,0.184,3.692-0.955,4.926
					c-0.623,0.674-1.413,1.096-2.339,1.242C28.958,78.346,31.675,79.589,34.212,76.845z"/>
				<path fill="#58595B" d="M29.337,79.917c-3.035-0.523-5.085-2.082-5.653-4.167c-0.085-0.315-0.138-0.632-0.158-0.946
					c-0.081-1.293,0.292-2.432,1.239-3.356c0.766-0.747,2.118-1.331,3.257-1.491c-1.561-0.018-2.925,0.467-3.91,1.428
					c-0.947,0.925-1.417,2.174-1.336,3.467c0.02,0.314,0.072,0.631,0.158,0.947c0.566,2.085,2.441,3.662,5.143,4.328
					c1.129,0.279,2.2,0.307,3.198,0.216C32.828,80.202,30.604,80.136,29.337,79.917z"/>
			</g>
		</g>
		<g>
			<g>
				<path fill="#808184" d="M22.111,78.925c-0.081-1.294,0.389-2.543,1.335-3.468c1.457-1.421,3.743-1.806,6.269-1.052l-0.51,2.268
					c-1.689-0.504-3.293-0.355-4.125,0.457c-0.562,0.547-0.771,1.343-0.556,2.127c0.338,1.242,1.595,2.217,3.447,2.674
					c2.027,0.5,3.693,0.121,4.818-1.096c1.139-1.232,1.522-3.211,0.955-4.926c-0.322-0.966-1.21-2.615-3.612-3.243
					c-1.004-0.263-0.568-2.548,0.455-2.295c2.625,0.649,4.569,2.377,5.374,4.804c0.841,2.534,0.269,5.379-1.456,7.246
					c-1.711,1.852-4.23,2.482-7.093,1.777c-2.7-0.666-4.574-2.244-5.143-4.328C22.183,79.556,22.13,79.238,22.111,78.925z"/>
			</g>
			<g>
				<path fill="#C0C2C4" d="M23.457,75.872c1.434-1.4,3.672-1.791,6.153-1.083l0.087-0.394c-2.525-0.754-4.81-0.37-6.267,1.052
					c-0.947,0.925-1.419,2.173-1.336,3.466c0.004,0.072,0.01,0.145,0.019,0.216C22.092,77.912,22.561,76.747,23.457,75.872z"/>
				<path fill="#58595B" d="M25.1,76.703c-0.501,0.489-0.72,1.177-0.61,1.876c0.018-0.547,0.238-1.063,0.636-1.45
					c0.832-0.812,2.318-0.979,4.008-0.475l0.091-0.408C27.536,75.743,25.931,75.892,25.1,76.703z"/>
			</g>
			<g>
				<path fill="#C0C2C4" d="M24.528,77.052c-0.561,0.548-0.761,1.473-0.547,2.258c0.594,2.182,3.384,3.456,6.09,3.325
					c0.929-0.044,0.597-0.424-0.554-0.48c-0.462-0.023-0.954-0.085-1.468-0.212c-1.853-0.456-3.109-1.432-3.448-2.674
					c-0.213-0.783-0.005-1.578,0.556-2.127c0.364-0.354,0.845-0.589,1.412-0.697C25.557,76.397,25.091,76.501,24.528,77.052z"/>
				<path fill="#C0C2C4" d="M35.404,75.214c0.841,2.535,0.26,5.25-1.465,7.117c-1.959,2.119-6.52,2.136-4.274,2.148
					c1.949,0.011,3.645-0.696,4.902-2.058c1.726-1.868,2.299-4.713,1.457-7.247c-0.81-2.445-2.778-4.18-5.434-4.818
					c-0.385-0.092-0.73,0.23-0.742,0.248C32.833,71.315,34.624,72.864,35.404,75.214z"/>
			</g>
			<g>
				<path fill="#58595B" d="M33.508,80.924c1.139-1.232,1.516-3.341,0.947-5.054c-0.828-2.492-3.081-3.642-4.988-3.821
					c0.008,0.013,0.234,0.519,0.659,0.633c2.376,0.636,3.261,2.274,3.579,3.235c0.569,1.713,0.186,3.693-0.955,4.926
					c-0.623,0.674-1.413,1.096-2.339,1.242C28.256,82.426,30.972,83.669,33.508,80.924z"/>
				<path fill="#58595B" d="M28.633,83.996c-3.035-0.522-5.085-2.081-5.653-4.167c-0.085-0.314-0.137-0.631-0.157-0.946
					c-0.082-1.292,0.292-2.431,1.238-3.354c0.766-0.748,2.119-1.332,3.257-1.492c-1.561-0.02-2.925,0.467-3.909,1.428
					c-0.949,0.926-1.418,2.174-1.338,3.467c0.021,0.314,0.072,0.632,0.159,0.946c0.567,2.086,2.442,3.663,5.143,4.329
					c1.129,0.277,2.201,0.307,3.199,0.217C32.125,84.282,29.901,84.215,28.633,83.996z"/>
			</g>
		</g>
		<g>
			<g>
				<path fill="#808184" d="M21.407,83.005c-0.08-1.295,0.39-2.543,1.337-3.468c1.456-1.422,3.741-1.806,6.267-1.052l-0.508,2.268
					c-1.691-0.504-3.295-0.356-4.127,0.455c-0.562,0.549-0.769,1.345-0.556,2.127c0.338,1.244,1.595,2.218,3.448,2.675
					c2.027,0.5,3.692,0.121,4.816-1.095c1.14-1.232,1.523-3.212,0.956-4.926c-0.322-0.967-1.21-2.615-3.614-3.244
					c-1.003-0.264-0.566-2.547,0.457-2.294c2.626,0.649,4.569,2.376,5.375,4.803c0.841,2.536,0.27,5.38-1.457,7.247
					c-1.712,1.852-4.23,2.482-7.093,1.777c-2.7-0.666-4.574-2.244-5.143-4.328C21.48,83.635,21.428,83.318,21.407,83.005z"/>
			</g>
			<g>
				<path fill="#C0C2C4" d="M22.753,79.952c1.434-1.4,3.672-1.792,6.153-1.084l0.089-0.395c-2.526-0.754-4.811-0.369-6.269,1.053
					c-0.947,0.925-1.417,2.174-1.336,3.467c0.004,0.072,0.012,0.145,0.02,0.216C21.389,81.991,21.857,80.827,22.753,79.952z"/>
				<path fill="#58595B" d="M24.395,80.784c-0.501,0.488-0.718,1.174-0.608,1.873c0.016-0.545,0.237-1.059,0.635-1.449
					c0.833-0.813,2.318-0.979,4.008-0.475l0.092-0.406C26.832,79.823,25.228,79.97,24.395,80.784z"/>
			</g>
			<g>
				<path fill="#C0C2C4" d="M23.825,81.132c-0.562,0.547-0.762,1.472-0.548,2.256c0.594,2.183,3.384,3.459,6.09,3.326
					c0.929-0.044,0.597-0.422-0.553-0.479c-0.464-0.024-0.955-0.086-1.47-0.211c-1.851-0.456-3.108-1.433-3.447-2.675
					c-0.213-0.783-0.006-1.579,0.556-2.127c0.363-0.355,0.845-0.59,1.413-0.697C24.854,80.478,24.388,80.581,23.825,81.132z"/>
				<path fill="#C0C2C4" d="M34.7,79.294c0.841,2.535,0.261,5.25-1.465,7.117c-1.959,2.119-6.52,2.135-4.273,2.148
					c1.949,0.011,3.645-0.696,4.903-2.059c1.726-1.867,2.297-4.711,1.457-7.246c-0.811-2.444-2.779-4.181-5.435-4.817
					c-0.384-0.093-0.73,0.229-0.742,0.248C32.131,75.396,33.92,76.944,34.7,79.294z"/>
			</g>
			<g>
				<path fill="#58595B" d="M32.805,85.004c1.139-1.231,1.515-3.341,0.946-5.055c-0.826-2.49-3.079-3.64-4.986-3.821
					c0.008,0.014,0.235,0.52,0.66,0.633c2.375,0.635,3.258,2.273,3.576,3.236c0.569,1.713,0.186,3.691-0.954,4.926
					c-0.623,0.674-1.412,1.096-2.339,1.241C27.552,86.505,30.267,87.749,32.805,85.004z"/>
				<path fill="#58595B" d="M27.93,88.077c-3.034-0.525-5.084-2.082-5.651-4.166c-0.087-0.316-0.14-0.633-0.158-0.947
					c-0.083-1.293,0.291-2.432,1.237-3.357c0.767-0.746,2.118-1.332,3.257-1.49c-1.561-0.018-2.925,0.467-3.91,1.428
					c-0.948,0.926-1.417,2.174-1.335,3.467c0.018,0.313,0.072,0.631,0.158,0.946c0.566,2.085,2.442,3.663,5.142,4.329
					c1.129,0.277,2.2,0.306,3.2,0.217C31.422,88.361,29.197,88.294,27.93,88.077z"/>
			</g>
		</g>
		<g>
			<g>
				<path fill="#808184" d="M20.704,87.083c-0.082-1.293,0.388-2.542,1.336-3.467c1.457-1.422,3.742-1.805,6.267-1.051l-0.509,2.268
					c-1.69-0.504-3.295-0.357-4.126,0.455c-0.562,0.549-0.77,1.344-0.557,2.129c0.338,1.241,1.595,2.216,3.448,2.673
					c2.028,0.5,3.692,0.122,4.816-1.095c1.14-1.234,1.523-3.213,0.956-4.926c-0.321-0.967-1.211-2.615-3.613-3.244
					c-1.003-0.264-0.568-2.547,0.456-2.295c2.626,0.649,4.569,2.377,5.374,4.804c0.841,2.535,0.271,5.379-1.456,7.247
					c-1.71,1.852-4.231,2.482-7.092,1.777c-2.701-0.667-4.575-2.243-5.143-4.329C20.776,87.715,20.723,87.397,20.704,87.083z"/>
			</g>
			<g>
				<path fill="#C0C2C4" d="M22.049,84.032c1.434-1.4,3.672-1.791,6.153-1.084l0.089-0.395c-2.527-0.753-4.812-0.369-6.269,1.054
					c-0.947,0.925-1.417,2.173-1.336,3.466c0.004,0.072,0.013,0.143,0.019,0.215C20.685,86.071,21.153,84.907,22.049,84.032z"/>
				<path fill="#58595B" d="M23.692,84.862c-0.502,0.49-0.72,1.176-0.609,1.875c0.017-0.545,0.236-1.061,0.635-1.449
					c0.833-0.813,2.319-0.979,4.009-0.475l0.09-0.407C26.128,83.902,24.524,84.05,23.692,84.862z"/>
			</g>
			<g>
				<path fill="#C0C2C4" d="M23.121,85.21c-0.561,0.55-0.762,1.474-0.547,2.258c0.594,2.184,3.383,3.457,6.09,3.327
					c0.929-0.045,0.597-0.425-0.553-0.481c-0.465-0.023-0.955-0.084-1.469-0.211c-1.854-0.457-3.11-1.432-3.447-2.674
					c-0.214-0.785-0.007-1.579,0.556-2.128c0.364-0.354,0.846-0.589,1.414-0.696C24.15,84.557,23.684,84.66,23.121,85.21z"/>
				<path fill="#C0C2C4" d="M33.996,83.373c0.841,2.535,0.261,5.249-1.465,7.118c-1.957,2.119-6.52,2.135-4.272,2.148
					c1.947,0.01,3.642-0.697,4.902-2.058c1.725-1.869,2.298-4.712,1.456-7.248c-0.811-2.444-2.777-4.181-5.434-4.817
					c-0.385-0.092-0.732,0.23-0.742,0.248C31.427,79.475,33.216,81.023,33.996,83.373z"/>
			</g>
			<g>
				<path fill="#58595B" d="M32.101,89.085c1.139-1.233,1.515-3.342,0.946-5.056c-0.826-2.491-3.08-3.64-4.989-3.821
					c0.01,0.014,0.235,0.52,0.661,0.633c2.376,0.636,3.259,2.273,3.578,3.236c0.568,1.713,0.186,3.692-0.956,4.925
					c-0.623,0.674-1.412,1.096-2.339,1.243C26.847,90.585,29.564,91.828,32.101,89.085z"/>
				<path fill="#58595B" d="M27.226,92.155c-3.035-0.522-5.085-2.081-5.653-4.166c-0.086-0.314-0.138-0.633-0.157-0.946
					c-0.082-1.294,0.292-2.431,1.239-3.356c0.766-0.748,2.118-1.331,3.256-1.49c-1.561-0.019-2.926,0.467-3.91,1.428
					c-0.947,0.925-1.417,2.174-1.335,3.467c0.019,0.314,0.071,0.631,0.157,0.945c0.567,2.086,2.442,3.664,5.143,4.33
					c1.13,0.277,2.2,0.307,3.199,0.216C30.717,92.442,28.494,92.375,27.226,92.155z"/>
			</g>
			
				<ellipse transform="matrix(-0.204 0.979 -0.979 -0.204 115.6908 73.3032)" fill="#C0C2C4" cx="28.045" cy="83.685" rx="1.157" ry="0.424"/>
		</g>
	</g>
	<g>
		<g>
			<path fill="#BBBDBF" d="M64.433,84.667c-0.396-4.436-5.192-8.836-9.55-11.474c-4.482-2.714-9.18-4.085-11.173-3.26l-0.561-1.354
				c2.853-1.18,8.328,0.838,12.493,3.36c6.042,3.657,9.873,8.367,10.25,12.596L64.433,84.667z"/>
		</g>
		<g>
			<path fill="#BBBDBF" d="M62.291,92.338c-0.315-3.55-3.649-6.274-6.391-7.937c-5.745-3.482-13.209-4.938-15.797-3.867l-0.56-1.354
				c3.346-1.385,11.344,0.471,17.116,3.969c3.031,1.836,6.722,4.898,7.092,9.059L62.291,92.338z"/>
		</g>
		<g>
			<path fill="#BBBDBF" d="M60.15,100.009c-0.19-2.139-1.637-4.041-4.3-5.652c-5.975-3.617-16.138-4.551-19.353-3.22l-0.561-1.354
				c3.563-1.475,14.243-0.574,20.673,3.32c3.082,1.868,4.765,4.146,5,6.775L60.15,100.009z"/>
		</g>
	</g>
	<path fill="#FCDF27" d="M170.85,212.604l5.584,0.109c-0.176-0.302,0.068-6.738-2.93-7.764c-1.105-0.378-16.15-2.492-17.084-1.725
		c-1.777,1.461-3.232,8.192-2.848,10.478c0.504,2.999,11.34,3.751,13.871,2.206C169.342,214.749,170.773,212.438,170.85,212.604z"/>
	<linearGradient id="SVGID_59_" gradientUnits="userSpaceOnUse" x1="153.4482" y1="212.0723" x2="174.4785" y2="212.0723">
		<stop  offset="0.5376" style="stop-color:#E6B414"/>
		<stop  offset="1" style="stop-color:#E6B414"/>
	</linearGradient>
	<path fill="url(#SVGID_59_)" d="M170.85,212.702l3.629,0.059c0-1.865-0.154-2.801-1.953-3.416
		c-1.104-0.378-16.146-2.491-17.082-1.724c-1.777,1.46-2.256,3.796-1.871,6.081c0.504,2.999,11.34,3.751,13.871,2.206
		C169.342,214.749,170.773,212.537,170.85,212.702z"/>
	<g>
		<g>
			<g>
				
					<linearGradient id="SVGID_60_" gradientUnits="userSpaceOnUse" x1="-337.6372" y1="-225.8677" x2="-352.6918" y2="-208.3004" gradientTransform="matrix(-0.509 0.8608 0.8608 0.509 172.6489 601.7842)">
					<stop  offset="0" style="stop-color:#2296D2"/>
					<stop  offset="0.0695" style="stop-color:#208ECC"/>
					<stop  offset="0.2744" style="stop-color:#1C7CC0"/>
					<stop  offset="0.4194" style="stop-color:#1B75BB"/>
				</linearGradient>
				<path fill="url(#SVGID_60_)" d="M152.352,207.941c1.494-6.996,1.607-21.067-0.43-28.827c-0.496-1.889,17.242-8.244,17.916-4.077
					c1.555,9.585-0.055,31.817-2.756,36.576C164.619,215.947,151.273,212.992,152.352,207.941z"/>
				
					<linearGradient id="SVGID_61_" gradientUnits="userSpaceOnUse" x1="112.2446" y1="61.0352" x2="111.6685" y2="42.3517" gradientTransform="matrix(-0.3129 0.9497 0.9497 0.3129 150.0361 70.457)">
					<stop  offset="0.1075" style="stop-color:#26A9E0"/>
					<stop  offset="0.1638" style="stop-color:#25A3DC"/>
					<stop  offset="0.6022" style="stop-color:#1B75BB"/>
				</linearGradient>
				<path fill="url(#SVGID_61_)" d="M156.09,211.728c2.334-6.313,4.826-22.592,2.646-30.89c-0.703-2.669,13.27-9.406,13.512-6.907
					c0.947,9.812-1.592,31.515-5.252,37.81C165.119,214.985,155.547,213.191,156.09,211.728z"/>
			</g>
		</g>
		<g>
			
				<linearGradient id="SVGID_62_" gradientUnits="userSpaceOnUse" x1="-2396.8281" y1="-4171.9219" x2="-2396.8281" y2="-4190.9873" gradientTransform="matrix(0.0662 -0.9978 -0.9978 -0.0662 -3851.5181 -2465.8711)">
				<stop  offset="0" style="stop-color:#1B75BB"/>
				<stop  offset="0.3377" style="stop-color:#1167AD"/>
				<stop  offset="1" style="stop-color:#005096"/>
			</linearGradient>
			<path fill="url(#SVGID_62_)" d="M170.979,198.143c0.008-0.027,0.73,1.199,0.648,1.62c-0.047,0.255-0.447,4.475-0.506,4.826
				c-0.303,1.843-1.418,2.277-1.748,2.942c-2.238,4.535-17.738,0.034-16.406-4.622c0.504-1.768-0.879-4.459-0.041-6.408
				c0.197-0.461,1.354-1.229,1.359-1.248C154.199,200.885,168.684,203.621,170.979,198.143z"/>
		</g>
		<g>
			
				<linearGradient id="SVGID_63_" gradientUnits="userSpaceOnUse" x1="-844.0625" y1="-4588.4033" x2="-836.99" y2="-4608.1855" gradientTransform="matrix(0.6384 -0.7697 -0.7697 -0.6384 -2841.7153 -3380.5313)">
				<stop  offset="0" style="stop-color:#37ADE9"/>
				<stop  offset="0.096" style="stop-color:#2D99D9"/>
				<stop  offset="0.2276" style="stop-color:#2385C8"/>
				<stop  offset="0.3591" style="stop-color:#1D79BE"/>
				<stop  offset="0.4892" style="stop-color:#1B75BB"/>
				<stop  offset="0.6361" style="stop-color:#1C79BE"/>
				<stop  offset="0.7733" style="stop-color:#1E84C6"/>
				<stop  offset="0.9061" style="stop-color:#2297D3"/>
				<stop  offset="1" style="stop-color:#26A9E0"/>
			</linearGradient>
			<path fill="url(#SVGID_63_)" d="M171.484,200.136c0.541-1.075-0.033,5.224-0.967,6.199c-3.502,3.664-17.406,0.852-18.184-4.261
				c-0.154-1.014-0.059-4.258,0.533-5.692C151.758,201.777,168.814,205.453,171.484,200.136z"/>
		</g>
		<g>
			
				<linearGradient id="SVGID_64_" gradientUnits="userSpaceOnUse" x1="1397.2695" y1="-1356.061" x2="1400.7734" y2="-1356.061" gradientTransform="matrix(0.3795 0.9252 0.9252 -0.3795 878.7188 -1606.7793)">
				<stop  offset="0" style="stop-color:#0B65AB"/>
				<stop  offset="1" style="stop-color:#1B75BB"/>
			</linearGradient>
			<path fill="url(#SVGID_64_)" d="M155.615,203.937c0.496-0.181,0.629-1.064,0.301-1.973c-0.332-0.91-1-1.502-1.496-1.322
				c-1.002,0.364-0.621,1.085-0.301,1.973C154.455,203.546,154.611,204.302,155.615,203.937z"/>
			
				<ellipse transform="matrix(0.3413 0.94 -0.94 0.3413 292.126 -11.5649)" fill="#BBBDBF" cx="154.314" cy="202.646" rx="1.751" ry="0.956"/>
		</g>
	</g>
	<g>
		
			<linearGradient id="SVGID_65_" gradientUnits="userSpaceOnUse" x1="-3146.209" y1="-203.3052" x2="-3162.4912" y2="-216.9675" gradientTransform="matrix(-0.9856 -0.1693 -0.1693 0.9856 -2995.0381 -172.0542)">
			<stop  offset="0" style="stop-color:#2295D2"/>
			<stop  offset="0.3978" style="stop-color:#1B75BB"/>
		</linearGradient>
		<path fill="url(#SVGID_65_)" d="M134.708,130.405c4.695-3.207,5.711-1.33,12.918,2.792c4.485,2.563,19.481,32.608,20.644,43.585
			c0.207,1.969-15.604,5.065-16.348,2.332c-0.967-3.54-12.042-20.829-17.452-28.574
			C130.647,145.069,129.085,134.244,134.708,130.405z"/>
		
			<linearGradient id="SVGID_66_" gradientUnits="userSpaceOnUse" x1="-3164.9048" y1="-218.6929" x2="-3153.4763" y2="-209.1031" gradientTransform="matrix(-0.9856 -0.1693 -0.1693 0.9856 -2995.0381 -172.0542)">
			<stop  offset="0.2366" style="stop-color:#26A9E0"/>
			<stop  offset="0.2897" style="stop-color:#25A3DC"/>
			<stop  offset="0.7043" style="stop-color:#1B75BB"/>
		</linearGradient>
		<path fill="url(#SVGID_66_)" d="M161.953,179.316c-4.094-11.276-9.117-18.93-17.259-31.746
			c-3.479-5.479-12.297-15.453-8.617-17.729c4.23-2.615,9.645-0.973,13.249,2.111c8.527,7.295,18.207,28.123,22.842,41.734
			C173.174,176.645,161.953,179.316,161.953,179.316z"/>
		<g>
			
				<linearGradient id="SVGID_67_" gradientUnits="userSpaceOnUse" x1="180.7139" y1="176.7754" x2="196.8086" y2="176.7754" gradientTransform="matrix(0.5586 -0.2616 0.2492 0.5319 10.8325 110.2529)">
				<stop  offset="0" style="stop-color:#0B65AB"/>
				<stop  offset="1" style="stop-color:#1B75BB"/>
			</linearGradient>
			<path fill="url(#SVGID_67_)" d="M168.027,160.83c0,0-0.111,1.848-0.322,1.877c-0.887,0.126-5.787,3.477-5.994,3.608
				c0,0-1.215-3.315-3.314-7.067c-2.627-4.693-6.859-11.434-6.859-11.434c0.193-0.121,4.652-3.347,6.908-3.972
				c0.213-0.06,1.809,0.434,1.809,0.434c4.848,8.896,4.787,8.892,5.684,10.974C167.076,157.905,166.906,157.753,168.027,160.83z"/>
			
				<linearGradient id="SVGID_68_" gradientUnits="userSpaceOnUse" x1="183.1943" y1="176.5352" x2="200.6426" y2="176.5352" gradientTransform="matrix(0.5586 -0.2616 0.2492 0.5319 10.8325 110.2529)">
				<stop  offset="0" style="stop-color:#1B75BB"/>
				<stop  offset="0.0921" style="stop-color:#1D7FC2"/>
				<stop  offset="0.2839" style="stop-color:#208CCB"/>
				<stop  offset="0.5285" style="stop-color:#2294D0"/>
				<stop  offset="1" style="stop-color:#2296D2"/>
			</linearGradient>
			<path fill="url(#SVGID_68_)" d="M168.045,160.791c0,0-4.926,3.201-5.135,3.334c0,0-1.596-2.975-3.695-6.727
				c-1.021-1.828-2.145-3.657-3.133-5.209c-0.137-0.218,2.33-1.258,2.199-1.465c-0.412-0.639-4.182-2.301-4.967-2.723
				c0.258-0.159,6.928-3.781,6.928-3.781s3.006,1.131,4.357,2.505c0.178,0.181-1.693,1.73-1.543,1.957
				c1,1.511,1.83,3.054,2.957,5.649C169.689,162.789,167.988,161.703,168.045,160.791z"/>
			
				<linearGradient id="SVGID_69_" gradientUnits="userSpaceOnUse" x1="191.4834" y1="180.9346" x2="199.6755" y2="184.5758" gradientTransform="matrix(0.5586 -0.2616 0.2492 0.5319 10.8325 110.2529)">
				<stop  offset="0" style="stop-color:#1D80C3;stop-opacity:0"/>
				<stop  offset="0.0299" style="stop-color:#1E83C5;stop-opacity:0.0329"/>
				<stop  offset="0.3701" style="stop-color:#289DD9;stop-opacity:0.4073"/>
				<stop  offset="0.6738" style="stop-color:#2EADE6;stop-opacity:0.7415"/>
				<stop  offset="0.9086" style="stop-color:#30B3EA"/>
			</linearGradient>
			<path fill="url(#SVGID_69_)" d="M168.045,160.791c0,0-4.926,3.201-5.135,3.334c0,0,0.098-15.518,0.146-15.442
				c1,1.511,1.83,3.054,2.957,5.649C169.689,162.789,167.988,161.703,168.045,160.791z"/>
			<g>
				
					<linearGradient id="SVGID_70_" gradientUnits="userSpaceOnUse" x1="668.542" y1="-2029.0117" x2="672.2637" y2="-2029.0117" gradientTransform="matrix(0.7058 0.7084 -0.7084 0.7058 -1750.4502 1106.8594)">
					<stop  offset="0" style="stop-color:#0B65AB"/>
					<stop  offset="0.3737" style="stop-color:#126CB2"/>
					<stop  offset="0.672" style="stop-color:#1B75BB"/>
					<stop  offset="0.8212" style="stop-color:#1C79BD"/>
					<stop  offset="0.9546" style="stop-color:#1E83C5"/>
					<stop  offset="1" style="stop-color:#1F89C9"/>
				</linearGradient>
				<path fill="url(#SVGID_70_)" d="M163.301,149.139c-0.145-0.201,1.254-2.177,1.254-2.177c-0.199,0.064-8.961,4.639-9.059,4.699
					c0,0,1.385,1.847,1.459,1.947C157.328,153.354,162.268,150.018,163.301,149.139z"/>
			</g>
		</g>
		<g>
			
				<linearGradient id="SVGID_71_" gradientUnits="userSpaceOnUse" x1="-2837.0132" y1="-2462.2524" x2="-2833.9751" y2="-2462.2524" gradientTransform="matrix(-0.9294 -0.3944 -0.6257 1.1683 -4016.1719 1904.8662)">
				<stop  offset="0" style="stop-color:#0B65AB"/>
				<stop  offset="1" style="stop-color:#1B75BB"/>
			</linearGradient>
			<path fill="url(#SVGID_71_)" d="M158.506,145.955c-0.303,0.525,0.066,1.254,0.824,1.625c0.756,0.371,1.617,0.246,1.92-0.282
				c0.613-1.062-0.082-1.262-0.822-1.624C159.652,145.292,159.121,144.89,158.506,145.955z"/>
			<path fill="#D0D2D3" d="M158.842,145.359c-0.303,0.525,0.064,1.254,0.822,1.626s1.617,0.244,1.92-0.282
				c0.305-0.527-0.064-1.255-0.82-1.625C160.006,144.707,159.146,144.833,158.842,145.359z"/>
		</g>
	</g>
	
		<radialGradient id="SVGID_72_" cx="413.7012" cy="121.5151" r="11.2341" gradientTransform="matrix(1.4074 0.4098 -0.1971 0.6769 -419.2949 -121.3145)" gradientUnits="userSpaceOnUse">
		<stop  offset="0" style="stop-color:#FFFFFF"/>
		<stop  offset="1" style="stop-color:#FFFFFF;stop-opacity:0"/>
	</radialGradient>
	<path opacity="0.5" fill="url(#SVGID_72_)" d="M154.822,135.069c-1.223,4.199-9.294,5.542-18.026,2.999
		c-8.734-2.543-14.82-8.008-13.6-12.207c1.223-4.199,9.295-5.542,18.027-2.999C149.957,125.404,156.043,130.87,154.822,135.069z"/>
	<path fill="#C83214" d="M191.449,187.996c7.148,2.992,34.066,12.177,34.066,12.177l0.893-0.654l6.455-2.151l6.732,3.081
		l-0.318,1.329l-6.193-0.905l-2.854,2.813l2.35,2.771l5.1,0.563l-0.117,1.187l-8.658,1.027l-5.236-4.899l-0.164-0.626
		c0,0-27.494-9.207-34.734-12.084C184.268,189.835,187.043,186.149,191.449,187.996z"/>
	<g>
		<g>
			<path fill="#808184" d="M225.039,198.976l-37.707-12.167c-1.141,1.595-1.088,2.767,1.246,3.694
				c7.25,2.88,34.447,12.006,34.447,12.006l2.428-1.406L225.039,198.976z"/>
			<polygon fill="#929497" points="225.959,198.589 232.412,196.438 239.551,200.087 238.945,200.58 232.635,199.943 
				229.779,202.757 232.131,205.527 237.838,206.516 237.23,207.009 228.453,208.304 223.217,203.404 			"/>
			<polygon fill="#808184" points="230.109,206.092 237.35,206.124 237.281,206.96 228.258,208.354 			"/>
			<polygon fill="#808184" points="232.266,196.486 239.373,198.509 239.602,199.548 239.266,200.581 232.488,199.991 			"/>
			<path fill="#D0D2D3" d="M225.305,198.141c0,0-26.92-9.186-34.066-12.179c-3.693-1.547-6.459,2.127-2.68,3.628
				c7.236,2.877,34.732,12.084,34.732,12.084l2.428-1.406L225.305,198.141z"/>
			<path fill="#FFFFFF" d="M223.41,201.328c0,0-26.74-8.817-33.838-11.596c-2.902-1.137-2.57-2.602-2.705-2.787l-0.213,0.476
				c0.139,0.184-0.262,1.486,2.586,2.6c7.15,2.792,34.051,11.653,34.051,11.653L223.41,201.328z"/>
			<path fill="#A6A8AB" d="M190.031,189.109c0.045,0.02,29.557,10.094,30.297,10.385c1.215,0.476,2.045,0.218,2.207-0.284
				c-0.383,0.198-1.027,0.214-1.846-0.109c-0.762-0.298-30.193-10.342-30.365-10.411c-0.813-0.334-1.123-0.731-1.078-1.065
				C188.721,187.978,188.83,188.616,190.031,189.109z"/>
			<path fill="#FFFFFF" d="M191.193,187.586c0.154,0.062,29.133,10.071,29.787,10.363c1.059,0.474,1.424,1.091,1.283,1.525
				c0.674-0.349,0.531-1.268-0.924-1.917c-0.68-0.305-29.598-10.288-29.785-10.364c-1.211-0.479-2.043-0.223-2.209,0.277
				C189.73,187.275,190.375,187.261,191.193,187.586z"/>
			<polygon fill="#A6A8AB" points="225.305,198.141 224.652,197.849 222.402,201.324 223.291,201.674 228.648,201.244 			"/>
			<polygon fill="#D0D2D3" points="226.195,197.485 232.648,195.332 239.383,198.414 239.064,199.744 232.873,198.838 
				230.018,201.65 232.367,204.423 237.467,204.986 237.35,206.173 228.689,207.201 223.455,202.3 			"/>
			<g>
				<polygon fill="#F1F1F2" points="232.846,198.892 238.994,199.79 239.09,199.39 233.209,198.532 				"/>
			</g>
			<polygon fill="#FFFFFF" points="223.738,201.801 228.807,206.78 237.385,205.78 237.35,206.173 228.689,207.201 223.455,202.3 
							"/>
		</g>
	</g>
	
		<linearGradient id="SVGID_73_" gradientUnits="userSpaceOnUse" x1="-222.2002" y1="147.9224" x2="-191.2163" y2="147.9224" gradientTransform="matrix(0.9531 -0.3028 0.4849 1.5262 319.3613 -68.2832)">
		<stop  offset="0" style="stop-color:#404041"/>
		<stop  offset="1" style="stop-color:#6D6E70"/>
	</linearGradient>
	<path fill="url(#SVGID_73_)" d="M199.135,216.062c-4.705,1.196-5.236,0.943-14.354,0.067c-7.072-0.679-11.178,2.445-3.271,4.163
		c4.037,0.878,4.939,2.679,3.23,4.764c-1.939,2.361,2.727,6.66,8.994,3.219c4.951-2.718,3.768-5.176,9.844-6.283
		C214.889,219.932,208.998,213.551,199.135,216.062z"/>
</g>
</svg>
