<?xml version="1.0" encoding="utf-8"?>
<!-- Generator: Adobe Illustrator 16.0.0, SVG Export Plug-In . SVG Version: 6.00 Build 0)  -->
<!DOCTYPE svg PUBLIC "-//W3C//DTD SVG 1.1//EN" "http://www.w3.org/Graphics/SVG/1.1/DTD/svg11.dtd">
<svg version="1.1" id="Layer_1" xmlns="http://www.w3.org/2000/svg" xmlns:xlink="http://www.w3.org/1999/xlink" x="0px" y="0px"
	 width="300px" height="300px" viewBox="0 0 300 300" enable-background="new 0 0 300 300" xml:space="preserve">
<g>
	<g>
		<g>
			
				<linearGradient id="SVGID_1_" gradientUnits="userSpaceOnUse" x1="-1588.0566" y1="59.5" x2="-1564.6915" y2="50.7508" gradientTransform="matrix(0.6108 -0.7918 0.7918 0.6108 1056.5908 -1192.4277)">
				<stop  offset="0" style="stop-color:#2296D2"/>
				<stop  offset="0.0486" style="stop-color:#25A2DB"/>
				<stop  offset="0.0968" style="stop-color:#26A9E0"/>
				<stop  offset="0.629" style="stop-color:#26A9E0"/>
				<stop  offset="0.828" style="stop-color:#4ED1FF"/>
			</linearGradient>
			<path fill="url(#SVGID_1_)" d="M161.048,83.741c-8.238,0.833-21.956-1.419-27.931-6.224c-4.1-3.293-17-3.002-20.77,2.088
				c-2.808,3.792-2.587,8.385,0.688,13.257c4.815,7.157,37.975,10.334,47.936,8.314C165.565,100.244,164.637,83.376,161.048,83.741z
				"/>
			
				<linearGradient id="SVGID_2_" gradientUnits="userSpaceOnUse" x1="-1022.4268" y1="573.3643" x2="-1041.3416" y2="590.074" gradientTransform="matrix(0.7661 -0.6426 0.6426 0.7661 554.3711 -1016.1621)">
				<stop  offset="0.2634" style="stop-color:#26A9E0"/>
				<stop  offset="0.3099" style="stop-color:#25A3DC"/>
				<stop  offset="0.672" style="stop-color:#1B75BB"/>
			</linearGradient>
			<path fill="url(#SVGID_2_)" d="M159.491,88.18c-10.452,1.057-22.233-0.255-30.723-7.081c-5.332-4.285-11.128-5.898-15.577,0.076
				c-3.803,5.163-2.63,10.646,3.987,15.963c11.869,9.542,32.378,10.674,45.768,7.007C165.341,103.491,161.604,87.967,159.491,88.18z
				"/>
		</g>
		<g>
			<g>
				<g>
					
						<linearGradient id="SVGID_3_" gradientUnits="userSpaceOnUse" x1="-1787.4272" y1="-275.9141" x2="-1751.5123" y2="-259.9822" gradientTransform="matrix(0.5437 -0.8393 0.8393 0.5437 1361.6758 -1254.7749)">
						<stop  offset="0" style="stop-color:#2296D2"/>
						<stop  offset="0.0486" style="stop-color:#25A2DB"/>
						<stop  offset="0.0968" style="stop-color:#26A9E0"/>
						<stop  offset="0.8656" style="stop-color:#26A9E0"/>
					</linearGradient>
					<path fill="url(#SVGID_3_)" d="M183.969,68.976c-5.153,4.131-17.483,14.122-24.825,15.501
						c-1.342,0.253,0.611,17.794,3.943,16.815c8.645-2.54,27.217-17.612,29.98-21.883C194.665,76.938,186.47,66.971,183.969,68.976z
						"/>
					
						<linearGradient id="SVGID_4_" gradientUnits="userSpaceOnUse" x1="-1287.2832" y1="299.9453" x2="-1291.6202" y2="316.6442" gradientTransform="matrix(0.7107 -0.7034 0.7034 0.7107 875.6484 -1038.3955)">
						<stop  offset="0.2634" style="stop-color:#26A9E0"/>
						<stop  offset="0.3099" style="stop-color:#25A3DC"/>
						<stop  offset="0.672" style="stop-color:#1B75BB"/>
					</linearGradient>
					<path fill="url(#SVGID_4_)" d="M187.041,71.469c-3.335,5.299-20.81,15.733-28.661,17.207
						c-2.525,0.474,3.204,16.159,5.386,15.354c11.649-4.294,21.966-13.592,29.114-24.9C193.838,77.623,188.269,69.52,187.041,71.469
						z"/>
				</g>
				<path fill="#1B75BB" d="M192.616,79.028c3.022-3.762-7.383-11.274-8.773-9.435C182.46,71.426,191.282,80.687,192.616,79.028z"/>
			</g>
		</g>
	</g>
	<g>
		<path fill="#5B5B5B" d="M86.853,99.284c-5.505,3.836-16.659,10.225-26.165,19.157c-5.642,5.3-9.578,14.04-4.947,15.569
			c0.558,0.185,1.636-1.382,2.223-1.205c0.498,0.149,0.501,2.042,1.016,2.187c0.702,0.2,2.194-1.45,2.916-1.252
			c0.768,0.211,0.767,2.27,1.543,2.489c0.703,0.195,2.275-1.419,2.939-1.239c0.665,0.18,0.421,2.155,1.109,2.378
			c0.567,0.185,1.676-1.115,2.223-0.942c0.309,0.099,0.058,1.656,0.367,1.775c0.48,0.186,1.504-0.888,1.937-0.699
			c0.434,0.19,0.278,1.641,0.722,1.864c0.409,0.205,1.546-0.906,1.958-0.704c0.41,0.204,0.093,1.719,0.464,1.961
			c0.437,0.287,1.605-0.229,2.002,0.065c0.442,0.327,0.106,1.466,0.485,1.859c0.377,0.389,1.766,0.126,2.075,0.576
			c0.31,0.45-0.459,1.61-0.218,2.059c2.715,5.042,6.381,11.506,11.104,10.483C95.728,154.555,100.159,90.011,86.853,99.284z"/>
		
			<linearGradient id="SVGID_5_" gradientUnits="userSpaceOnUse" x1="-546.5654" y1="279.3848" x2="-543.5945" y2="287.5474" gradientTransform="matrix(0.9387 -0.3447 0.3447 0.9387 485.5283 -338.9722)">
			<stop  offset="0.0161" style="stop-color:#808184"/>
			<stop  offset="0.8387" style="stop-color:#58595B"/>
		</linearGradient>
		<path fill="url(#SVGID_5_)" d="M63.061,122.426c9.505-8.931,22.748-16.146,28.253-19.984c0.173-0.12-0.67-2.972-0.504-3.066
			c-1.134-0.848-2.506-0.833-4.15,0.312c-5.505,3.837-16.659,10.225-26.165,19.157c-5.478,5.146-9.491,13.976-5.199,14.333
			C59.898,133.562,57.774,127.391,63.061,122.426z"/>
		<g>
			<path fill="#404041" d="M78.329,139.914c-0.251-0.467-2.189,0.268-2.513-0.153c-0.346-0.449,0.29-2.341-0.13-2.743
				c-0.416-0.396-1.763,1.175-2.241,0.821c-0.43-0.317,0.016-2.561-0.458-2.848c-0.51-0.307-1.687,2.186-2.241,1.909
				c-0.404-0.201-0.176-3.18-0.599-3.368c-0.501-0.221-1.84,2.42-2.362,2.217c-0.546-0.211-0.276-3.267-0.84-3.461
				c-0.706-0.244-2.583,2.033-3.307,1.81c-0.719-0.221-0.284-2.942-1.011-3.15c-0.715-0.203-2.593,2.104-3.306,1.909
				c-0.593-0.164-2.565-1.002-3.179-1.178c-0.581-0.167-1.031-1.422-1.59-1.594c-0.727,1.922-0.527,3.416,1.213,3.989
				c0.523,0.174,2.667,0.821,3.208,0.974c0.737,0.21,2.07-0.836,2.83-0.628c0.729,0.202,0.886,1.657,1.624,1.864
				c0.809,0.224,2.2-0.799,3.004-0.559c0.53,0.158,0.477,1.574,1,1.741c0.501,0.161,1.577-0.928,2.068-0.757
				c0.391,0.136,0.198,1.53,0.58,1.675c0.428,0.162,1.429-0.927,1.843-0.751c0.467,0.193,0.344,1.649,0.79,1.861
				c0.456,0.216,1.479-0.813,1.91-0.577c0.345,0.191,0.101,1.641,0.427,1.844c0.482,0.301,1.688-0.178,2.122,0.155
				c0.41,0.316,0.048,1.443,0.409,1.793c0.391,0.379,1.596,0.105,1.921,0.526c0.326,0.423-0.229,1.543,0.024,2.012
				c0.088,0.163,1.178-2.168,0.673-3.084c-0.237-0.431-1.992,0.691-2.23,0.258C77.55,141.66,78.401,140.047,78.329,139.914z"/>
		</g>
	</g>
	<g>
		<g>
			<g>
				<path fill="#1B75BB" d="M127.518,139.522c1.534,15.888-26.356,31.582-32.512,32.175c-8.376,0.809-12.389-11.805-13.923-27.691
					c-1.534-15.89,2.213-29.251,8.368-29.845C95.607,113.566,125.984,123.634,127.518,139.522z"/>
				<g>
					
						<linearGradient id="SVGID_6_" gradientUnits="userSpaceOnUse" x1="237.6504" y1="79.3691" x2="209.6904" y2="148.5724" gradientTransform="matrix(-0.9901 -0.14 -0.14 0.9901 355.8818 26.498)">
						<stop  offset="0.1183" style="stop-color:#1B75BB"/>
						<stop  offset="0.8656" style="stop-color:#26A9E0"/>
					</linearGradient>
					<path fill="url(#SVGID_6_)" d="M97.375,112.766c-2.144,15.156,24.513,28.261,28.627,28.841c0,0,10.31,2.228,9.15-0.008
						c-3.597-6.933,3.439-32.843,2.773-47.333c-0.658-14.339-18.364-22.301-29.647-22.159L97.375,112.766z"/>
					
						<linearGradient id="SVGID_7_" gradientUnits="userSpaceOnUse" x1="228.6494" y1="91.5518" x2="231.7608" y2="150.9205" gradientTransform="matrix(-0.9901 -0.14 -0.14 0.9901 355.8818 26.498)">
						<stop  offset="0" style="stop-color:#26A9E0"/>
						<stop  offset="0.0104" style="stop-color:#26A8DF"/>
						<stop  offset="0.4021" style="stop-color:#208CCB"/>
						<stop  offset="0.7451" style="stop-color:#1C7BBF"/>
						<stop  offset="1" style="stop-color:#1B75BB"/>
					</linearGradient>
					<path fill="url(#SVGID_7_)" d="M81.959,121.726c-0.582,4.113-0.458,8.378,2.553,8.803l46.125,17.898
						c0.855,0.121,5.568-8.553-0.859-18.178c-7.351-11.012-16.662-23.4-16.001-43.178c0.208-6.243-21.296-3.281-22.551-0.582
						C86.816,95.972,81.959,121.726,81.959,121.726z"/>
					<g>
						
							<linearGradient id="SVGID_8_" gradientUnits="userSpaceOnUse" x1="209.8799" y1="123.3447" x2="237.5228" y2="81.6803" gradientTransform="matrix(-0.9901 -0.14 -0.14 0.9901 355.8818 26.498)">
							<stop  offset="0" style="stop-color:#249DD7"/>
							<stop  offset="0.3548" style="stop-color:#26A9E0"/>
						</linearGradient>
						<path fill="url(#SVGID_8_)" d="M112.964,88.238c-4.092-3.317-22.972,3.371-21.738-1.749
							c1.489-6.172,16.246-11.875,23.543-12.56c6.073-0.57,16.667,1.169,19.074,3.41c6.803,6.332,5.958,13.29,3.162,35.159
							l-9.759,8.441C111.412,105.655,120.049,93.982,112.964,88.238z"/>
					</g>
				</g>
				<g>
					<path fill="#1B75BB" d="M100.792,182.445c15.081,4.271,38.928-14.818,37.196-13.625c3.126-1.555-8.795-19.119-7.378-31.424
						l-45.9,22C82.926,160.285,89.024,179.111,100.792,182.445z"/>
				</g>
			</g>
		</g>
		
			<linearGradient id="SVGID_9_" gradientUnits="userSpaceOnUse" x1="1473.6406" y1="-270.8418" x2="1459.2367" y2="-266.1686" gradientTransform="matrix(-0.895 0.4461 0.4461 0.895 1561.5256 -281.1504)">
			<stop  offset="0.3763" style="stop-color:#1B75BB"/>
			<stop  offset="0.7051" style="stop-color:#2193D1"/>
			<stop  offset="0.9892" style="stop-color:#26A9E0"/>
		</linearGradient>
		<path fill="url(#SVGID_9_)" d="M125.861,153.98l8.652-9.083c-0.824-6.491-0.991-17.066,0.247-22.799
			c2.276-10.538-14.451-13.837-14.498-2.889C120.238,124.99,124.03,150.926,125.861,153.98z"/>
		
			<linearGradient id="SVGID_10_" gradientUnits="userSpaceOnUse" x1="42.1006" y1="56.1597" x2="85.4282" y2="86.8935" gradientTransform="matrix(0.9954 -0.0961 0.0961 0.9954 28.832 61.2817)">
			<stop  offset="0" style="stop-color:#26A9E0"/>
			<stop  offset="0.5" style="stop-color:#1B75BB"/>
		</linearGradient>
		<path fill="url(#SVGID_10_)" d="M114.022,86.994c1.167-4.405-20.689-4.584-22.551-0.583c-4.411,9.484-7.785,26.25-9.267,35.237
			c-0.949,5.753-1.253,18.378-0.876,22.279c1.534,15.888,5.547,28.501,13.923,27.693c1.888-0.182,8.244-5.043,15.065-11.354
			C112.365,158.371,99.967,140.027,114.022,86.994z"/>
		<g>
			<g>
				
					<linearGradient id="SVGID_11_" gradientUnits="userSpaceOnUse" x1="-490.1401" y1="270.3379" x2="-490.1401" y2="336.8945" gradientTransform="matrix(0.9387 -0.3447 0.3447 0.9387 485.5283 -338.9722)">
					<stop  offset="0.1613" style="stop-color:#E6E7E8"/>
					<stop  offset="0.2898" style="stop-color:#DFE1E2"/>
					<stop  offset="0.4462" style="stop-color:#D0D2D3"/>
					<stop  offset="0.6856" style="stop-color:#C2C4C6"/>
					<stop  offset="0.7151" style="stop-color:#C0C2C4"/>
				</linearGradient>
				<path fill="url(#SVGID_11_)" d="M132.281,149.631c-3.402-7.106-2.767-18.286-2.001-28.081
					c0.771-9.879,3.291-19.956,0.088-30.378c-1.208-3.934-4.285-9.643-4.327-9.695l1.168-0.885c0.173,0.229,3.274,5.97,4.56,10.148
					c3.256,10.603,0.482,20.762-0.025,30.745c-0.563,11.063-1.414,20.677,1.86,27.516L132.281,149.631z"/>
			</g>
		</g>
	</g>
	<g>
		<g>
			<path fill="#C83214" d="M242.286,105.803c-0.633,12.056-6.145,26.335-15.441,40.545c6.155,4.593,11.003,10.693,14.365,17.798
				c0.532,1.123,2.568,4.742,1.881,7.52l1.902,3.299c0.423-0.563,0.869-1.18,1.346-1.883
				C261.608,150.594,261.206,123.145,242.286,105.803z"/>
			<path fill="#C83214" d="M192.734,72.312c-10.815,5.362-21.738,16.085-31.097,30.254c-9.838-5.653-21.56-7.392-33.466-5.309
				l-1.902-3.299C140.857,71.023,169.312,61.822,192.734,72.312z"/>
			<g>
				<g>
					<path fill="#231F20" d="M243.894,51.546l-1.901-3.298c-9.6,1.687-31.935,10.106-43.936,17.563l49.489,33.603
						C251.14,79.45,245.513,52.646,243.894,51.546z"/>
					<g>
						<path fill="#F0BE1E" d="M80.199,292.635c6.943,4.715,39.824-30.248,60.784-51.691l-1.902-3.297
							c-17.793,11.225-65.91,43.754-61.329,51.223C77.948,289.186,79.915,292.443,80.199,292.635z"/>
						<path fill="#C83214" d="M219.213,163.416c14.939-22.001,24.964-45.284,28.333-64.002l-1.9-3.299
							c-6.311-4.286-47.589-30.304-47.589-30.304c-16.155,10.036-80.191,114.779-95.129,136.783l1.902,3.299l46.907,31.848
							C167.183,227.525,205.042,184.289,219.213,163.416z"/>
					</g>
				</g>
			</g>
		</g>
		<g>
			<path fill="#F05A28" d="M240.385,102.506c-0.634,12.054-6.145,26.334-15.441,40.543c9.093,6.789,15.337,16.861,18.147,28.617
				c0.424-0.563,0.869-1.18,1.346-1.883C259.707,147.296,259.304,119.847,240.385,102.506z"/>
			<path fill="#F05A28" d="M190.833,69.015c-10.816,5.36-21.74,16.083-31.096,30.254c-9.839-5.654-21.561-7.393-33.468-5.311
				c0.348-0.611,0.739-1.266,1.194-1.981C142.052,69.041,167.409,58.524,190.833,69.015z"/>
			<g>
				<g>
					<g>
						<path fill="#FCDF27" d="M78.297,289.336c6.944,4.717,39.824-30.248,60.785-51.689l-35.164-23.877
							C91.722,241.164,71.353,284.621,78.297,289.336z"/>
						<path fill="#FFFFFF" d="M93.285,267.264c4.223,2.867,28.882-25.264,38.908-34.295l-21.386-14.521
							C106.111,231.098,89.062,264.395,93.285,267.264z"/>
						<path fill="#F05A28" d="M217.311,160.119c14.939-22.004,24.965-45.287,28.335-64.004c0,0-16.275-16.878-22.337-20.993
							c-6.312-4.285-27.153-12.61-27.153-12.61c-16.156,10.037-34.1,27.944-49.038,49.947
							c-14.172,20.873-40.393,72.011-44.19,90.136l46.908,31.85C165.28,224.227,203.14,180.99,217.311,160.119z"/>
					</g>
					<path fill="#404041" d="M241.992,48.249c-1.618-1.1-28.606,3.56-45.837,14.263l49.49,33.604
						C249.237,76.151,243.61,49.347,241.992,48.249z"/>
				</g>
				<circle fill="#B41E00" cx="191.859" cy="122.795" r="24.731"/>
			</g>
		</g>
	</g>
	<g>
		<g>
			<g>
				<path fill="#D62617" d="M128.405,143.657c-17.988,32.909-20.169,42.442-20.169,42.442c-3.155,9.465,2.465,12.139,12.922,7.91
					c7.5-3.029,16.539,0.443,20.705,7.178c2.328,3.76,5.089,8.551,7.088,13.74c0.588,1.527,5.031,1.02,5.519,2.373
					c0.337,0.93-3.024,12.359,0.729,13.426c2.246-0.941,24.426-22.684,31.999-33.885c0.504-12.971-3.843-26.43-16.224-39.695
					C155.39,140.448,128.429,143.615,128.405,143.657z"/>
			</g>
		</g>
	</g>
	<g>
		
			<linearGradient id="SVGID_12_" gradientUnits="userSpaceOnUse" x1="-585.9575" y1="291.376" x2="-550.1976" y2="297.6814" gradientTransform="matrix(0.9269 -0.3753 0.3753 0.9269 528.1689 -373.2495)">
			<stop  offset="0.5376" style="stop-color:#003C64"/>
			<stop  offset="0.8226" style="stop-color:#1E81C3"/>
			<stop  offset="1" style="stop-color:#26A9E0;stop-opacity:0"/>
		</linearGradient>
		<path opacity="0.5" fill="url(#SVGID_12_)" d="M115.454,97.636c-17.799-8.145-33.952-5.222-18.251,14.386
			c13.232,16.523,16.097,21.655,32.114,19.987c0.039-0.003,0.827-24.861,0.063-25.061
			C125.673,105.978,122.085,100.673,115.454,97.636z"/>
		
			<linearGradient id="SVGID_13_" gradientUnits="userSpaceOnUse" x1="-1687.2979" y1="82.2637" x2="-1656.7174" y2="75.15" gradientTransform="matrix(0.5919 -0.8059 0.8059 0.5919 1046.4561 -1292.6226)">
			<stop  offset="0" style="stop-color:#2296D2"/>
			<stop  offset="0.0486" style="stop-color:#25A2DB"/>
			<stop  offset="0.0968" style="stop-color:#26A9E0"/>
			<stop  offset="0.6667" style="stop-color:#26A9E0"/>
			<stop  offset="0.8656" style="stop-color:#4ED1FF"/>
		</linearGradient>
		<path fill="url(#SVGID_13_)" d="M143.413,94.5c-8.767,1.292-21.87-0.772-28.22-5.492c-5.968-4.433-15.146-4.459-21.152,3.785
			c-2.994,4.109-3.715,8.364-0.237,13.29c5.112,7.242,40.391,8.872,50.993,6.249C149.686,111.123,147.232,93.937,143.413,94.5z"/>
		
			<linearGradient id="SVGID_14_" gradientUnits="userSpaceOnUse" x1="-1113.3066" y1="614.7773" x2="-1132.8314" y2="632.026" gradientTransform="matrix(0.7508 -0.6606 0.6606 0.7508 551.3096 -1105.187)">
			<stop  offset="0.2634" style="stop-color:#26A9E0"/>
			<stop  offset="0.3099" style="stop-color:#25A3DC"/>
			<stop  offset="0.672" style="stop-color:#1B75BB"/>
		</linearGradient>
		<path fill="url(#SVGID_14_)" d="M143.109,101.254c-11.123,1.64-23.525-1.571-32.548-8.277c-5.667-4.21-11.831-5.601-16.574,0.876
			c-4.055,5.594-2.814,11.268,4.218,16.494c12.614,9.374,34.436,9.51,48.687,4.992C149.441,114.529,145.356,100.923,143.109,101.254
			z"/>
		
			<radialGradient id="SVGID_15_" cx="242.6172" cy="438.6582" r="11.2339" gradientTransform="matrix(0.9991 -0.0418 0.0294 0.7043 -148.9336 -204.6479)" gradientUnits="userSpaceOnUse">
			<stop  offset="0" style="stop-color:#FFFFFF"/>
			<stop  offset="1" style="stop-color:#FFFFFF;stop-opacity:0"/>
		</radialGradient>
		<path opacity="0.5" fill="url(#SVGID_15_)" d="M117.586,93.688c0.183,4.37-4.695,8.122-10.894,8.381
			c-6.199,0.259-11.373-3.072-11.555-7.441c-0.183-4.37,4.694-8.123,10.893-8.382C112.229,85.987,117.403,89.32,117.586,93.688z"/>
		<g>
			
				<linearGradient id="SVGID_16_" gradientUnits="userSpaceOnUse" x1="-3314.3369" y1="545.0342" x2="-3284.1099" y2="545.0342" gradientTransform="matrix(0.1416 -0.6004 0.5718 0.1347 279.3057 -1953.8403)">
				<stop  offset="0" style="stop-color:#0B65AB"/>
				<stop  offset="1" style="stop-color:#1B75BB"/>
			</linearGradient>
			<path fill="url(#SVGID_16_)" d="M135.134,93.867c0,0,0.377,0.779,0.28,0.914c-0.403,0.562-1.047,1.809-1.612,4.46
				c-1.138,5.34-0.818,11.132-0.83,11.315c0,0-3.314-0.625-7.547-1.368c-5.292-0.928-12.596-1.762-12.596-1.762
				c0.017-0.227-0.846-6.01,0.466-11.592c1.066-4.537,3.048-5.813,3.048-5.813s10.383,1.463,13.087,2.162
				C130.392,92.43,135.134,93.867,135.134,93.867z"/>
			
				<linearGradient id="SVGID_17_" gradientUnits="userSpaceOnUse" x1="-3312.3066" y1="544.6113" x2="-3282.5356" y2="544.6113" gradientTransform="matrix(0.1416 -0.6004 0.5718 0.1347 279.3057 -1953.8403)">
				<stop  offset="0" style="stop-color:#1B75BB"/>
				<stop  offset="0.0921" style="stop-color:#1D7FC2"/>
				<stop  offset="0.2839" style="stop-color:#208CCB"/>
				<stop  offset="0.5285" style="stop-color:#2294D0"/>
				<stop  offset="1" style="stop-color:#2296D2"/>
			</linearGradient>
			<path fill="url(#SVGID_17_)" d="M135.113,93.837c0,0-1.106,0.646-2.01,4.889c-1.137,5.341-1.144,10.241-1.155,10.425
				c0,0-3.316-0.625-7.548-1.368c-2.062-0.361-4.182-0.67-6-0.91c-0.254-0.033,0.173-1.693-0.067-1.724
				c-2.184-0.279-3.694,0.793-4.899,1.134c0.018-0.225-0.578-4.973,0.733-10.553c1.065-4.536,2.834-5.542,2.834-5.542
				s2.138-0.927,4.021-0.982c0.247-0.006,0.639,1.135,0.907,1.167c1.792,0.211,4.063,0.6,6.804,1.295
				C133.905,92.981,135.113,93.837,135.113,93.837z"/>
			
				<linearGradient id="SVGID_18_" gradientUnits="userSpaceOnUse" x1="-3303.3711" y1="547.1602" x2="-3282.4868" y2="556.4429" gradientTransform="matrix(0.1416 -0.6004 0.5718 0.1347 279.3057 -1953.8403)">
				<stop  offset="0" style="stop-color:#1D80C3;stop-opacity:0"/>
				<stop  offset="0.0299" style="stop-color:#1E83C5;stop-opacity:0.0329"/>
				<stop  offset="0.3701" style="stop-color:#289DD9;stop-opacity:0.4073"/>
				<stop  offset="0.6738" style="stop-color:#2EADE6;stop-opacity:0.7415"/>
				<stop  offset="0.9086" style="stop-color:#30B3EA"/>
			</linearGradient>
			<path fill="url(#SVGID_18_)" d="M135.113,93.837c0,0-1.106,0.646-2.01,4.889c-1.137,5.341-1.144,10.241-1.155,10.425
				c0,0-6.139-5.413-9.108-10.978c-1.511-2.83-1-7.811-0.911-7.8c1.792,0.211,4.063,0.6,6.804,1.295
				C133.905,92.981,135.113,93.837,135.113,93.837z"/>
			<g>
				
					<linearGradient id="SVGID_19_" gradientUnits="userSpaceOnUse" x1="142.749" y1="70.3101" x2="149.2651" y2="70.3101" gradientTransform="matrix(0.9935 -0.1138 0.1138 0.9935 -33.0791 45.5171)">
					<stop  offset="0" style="stop-color:#0B65AB"/>
					<stop  offset="0.3737" style="stop-color:#126CB2"/>
					<stop  offset="0.672" style="stop-color:#1B75BB"/>
					<stop  offset="0.8212" style="stop-color:#1C79BD"/>
					<stop  offset="0.9546" style="stop-color:#1E83C5"/>
					<stop  offset="1" style="stop-color:#1F89C9"/>
				</linearGradient>
				<path fill="url(#SVGID_19_)" d="M121.949,90.222c-0.246-0.021-0.775-0.07-0.775-0.07c-0.063,0.146,1.114,5.515,0.944,6.239
					c-0.18,0.769-4.474,10.456-4.48,10.542c0,0,2.411,0.257,2.535,0.267c0.007-0.34,2.58-9.79,2.779-10.64
					C123.101,95.923,122.067,91.252,121.949,90.222z"/>
			</g>
			<path fill="#005AA0" d="M120.981,96.825c0.185,0.789-0.405,1.602-1.315,1.815c-0.91,0.213-1.799-0.255-1.982-1.043
				c-0.374-1.593,0.424-1.607,1.313-1.815C119.93,95.563,120.608,95.229,120.981,96.825z"/>
			
				<ellipse transform="matrix(0.9736 -0.2284 0.2284 0.9736 -18.9073 29.7742)" fill="#A6A8AB" cx="119.167" cy="96.564" rx="1.693" ry="1.467"/>
		</g>
	</g>
	<g>
		
			<linearGradient id="SVGID_20_" gradientUnits="userSpaceOnUse" x1="1093.3369" y1="925.3535" x2="1114.8223" y2="925.3535" gradientTransform="matrix(0.6163 -0.0251 0.0239 0.587 -581.3379 -382.1074)">
			<stop  offset="0" style="stop-color:#0B65AB"/>
			<stop  offset="1" style="stop-color:#1B75BB"/>
		</linearGradient>
		<path fill="url(#SVGID_20_)" d="M128.019,139.666c0,0-0.692,1.364-0.812,1.415c-1.853,0.789-10.58,3.479-10.71,3.514
			c0,0-0.297-3.361-0.716-7.637c-0.523-5.35-1.558-12.619-1.558-12.619c0.161-0.038,12.322-2.23,12.322-2.23
			s1.276,10.404,1.388,13.191C127.973,136.289,128.019,139.666,128.019,139.666z"/>
		
			<linearGradient id="SVGID_21_" gradientUnits="userSpaceOnUse" x1="1094.8281" y1="924.8203" x2="1118.1221" y2="924.8203" gradientTransform="matrix(0.6163 -0.0251 0.0239 0.587 -581.3379 -382.1074)">
			<stop  offset="0" style="stop-color:#1B75BB"/>
			<stop  offset="0.0921" style="stop-color:#1D7FC2"/>
			<stop  offset="0.2839" style="stop-color:#208CCB"/>
			<stop  offset="0.5285" style="stop-color:#2294D0"/>
			<stop  offset="1" style="stop-color:#2296D2"/>
		</linearGradient>
		<path fill="url(#SVGID_21_)" d="M128.051,139.685c0,0-10.668,3.54-10.798,3.573c0,0-0.298-3.361-0.716-7.637
			c-0.204-2.083-0.366-3.237-0.6-5.055c-0.033-0.253,3.604,0.331,3.572,0.089c-0.288-2.18-3.847-4.929-4.352-6.011
			c0.161-0.038,11.419-1.86,11.419-1.86s2.566,1.558,3.021,3.368c0.061,0.236-2.097,1.18-2.06,1.446
			c0.25,1.786,0.481,4.079,0.602,6.899C128.205,136.052,128.051,139.685,128.051,139.685z"/>
		
			<linearGradient id="SVGID_22_" gradientUnits="userSpaceOnUse" x1="1094.8281" y1="913.8223" x2="1118.1221" y2="913.8223" gradientTransform="matrix(0.6163 -0.0251 0.0239 0.587 -581.3379 -382.1074)">
			<stop  offset="0" style="stop-color:#1B75BB"/>
			<stop  offset="1" style="stop-color:#2296D2"/>
		</linearGradient>
		<path fill="url(#SVGID_22_)" d="M119.339,130.196c-0.288-2.181-3.678-4.471-4.183-5.553c0.161-0.038,11.419-1.86,11.419-1.86
			s2.566,1.558,3.021,3.368c0.061,0.236-3.152,3.148-3.152,3.148S119.372,130.438,119.339,130.196z"/>
		
			<linearGradient id="SVGID_23_" gradientUnits="userSpaceOnUse" x1="1102.8809" y1="927.6289" x2="1115.9882" y2="933.4549" gradientTransform="matrix(0.6163 -0.0251 0.0239 0.587 -581.3379 -382.1074)">
			<stop  offset="0" style="stop-color:#1D80C3;stop-opacity:0"/>
			<stop  offset="0.0299" style="stop-color:#1E83C5;stop-opacity:0.0329"/>
			<stop  offset="0.3701" style="stop-color:#289DD9;stop-opacity:0.4073"/>
			<stop  offset="0.6738" style="stop-color:#2EADE6;stop-opacity:0.7415"/>
			<stop  offset="0.9086" style="stop-color:#30B3EA"/>
		</linearGradient>
		<path fill="url(#SVGID_23_)" d="M127.988,139.655c0,0-10.606,3.569-10.736,3.603c0,0,1.592-5.983,4.823-10.214
			c1.645-2.153,5.449-5.537,5.461-5.446c0.25,1.786,0.481,4.079,0.602,6.899C128.228,136.579,128.197,138.789,127.988,139.655z"/>
		<g>
			
				<linearGradient id="SVGID_24_" gradientUnits="userSpaceOnUse" x1="-509.1274" y1="311.7344" x2="-494.6143" y2="311.7344" gradientTransform="matrix(0.9387 -0.3447 0.3447 0.9387 485.5283 -338.9722)">
				<stop  offset="0" style="stop-color:#005AA0"/>
				<stop  offset="1" style="stop-color:#1F89C9"/>
			</linearGradient>
			<path fill="url(#SVGID_24_)" d="M129.546,126.911c-0.04-0.244-0.123-0.768-0.123-0.768c-0.115-0.026-3.251,2.716-3.794,2.729
				c-0.333,0.006-4.022,1.213-6.897,0.396c-0.316-0.089-3.847-4.69-3.858-4.686c0,0,0.805,6.166,0.825,6.287
				c1.885,0.381,9.326-0.991,10.028-1.007C126.202,129.851,128.852,127.275,129.546,126.911z"/>
		</g>
		<path fill="#005AA0" d="M126.491,127.642c-0.334,0.536-1.122,0.452-1.756-0.186c-0.636-0.638-0.879-1.588-0.545-2.123
			c0.675-1.081,1.135-0.438,1.756,0.184C126.598,126.17,127.168,126.561,126.491,127.642z"/>
		<path fill="#A6A8AB" d="M127.258,127.16c-0.334,0.534-1.121,0.452-1.756-0.186c-0.636-0.638-0.88-1.589-0.545-2.123
			c0.335-0.537,1.121-0.453,1.757,0.185C127.35,125.673,127.593,126.625,127.258,127.16z"/>
	</g>
	<g>
		<path fill="#D62617" d="M139.883,123.961c12.86-1.107,32.098-10.937,40.01-32.29c0.52-1.392,15.283-13.308,16.328-20.861
			c0.928-6.728-2.216-9.349-1.594-7.348c-5.611,4.88-26.31,20.026-35.947,32.524C148.517,109.166,139.883,123.961,139.883,123.961z"
			/>
		<g>
			<g>
				
					<linearGradient id="SVGID_25_" gradientUnits="userSpaceOnUse" x1="-1898.3975" y1="-326.144" x2="-1890.5801" y2="-342.4473" gradientTransform="matrix(0.4799 -0.8773 0.8773 0.4799 1362.1387 -1408.4717)">
					<stop  offset="0" style="stop-color:#2296D2"/>
					<stop  offset="0.0486" style="stop-color:#25A2DB"/>
					<stop  offset="0.0968" style="stop-color:#26A9E0"/>
					<stop  offset="0.6452" style="stop-color:#26A9E0"/>
					<stop  offset="0.871" style="stop-color:#4ED1FF"/>
				</linearGradient>
				<path fill="url(#SVGID_25_)" d="M168.498,75.688c-5.249,4.857-17.806,16.588-25.518,18.8c-1.41,0.405,1.563,18.527,5.046,17.154
					c9.033-3.56,27.945-21.255,30.654-26.009C180.246,82.886,171.046,73.333,168.498,75.688z"/>
				
					<linearGradient id="SVGID_26_" gradientUnits="userSpaceOnUse" x1="-1423.7178" y1="259.6338" x2="-1429.3818" y2="277.8696" gradientTransform="matrix(0.6566 -0.7542 0.7542 0.6566 894.5674 -1156.355)">
					<stop  offset="0.2634" style="stop-color:#26A9E0"/>
					<stop  offset="0.3099" style="stop-color:#25A3DC"/>
					<stop  offset="0.672" style="stop-color:#1B75BB"/>
				</linearGradient>
				<path fill="url(#SVGID_26_)" d="M171.884,77.973c-3.264,5.885-20.475,20.479-28.72,22.842
					c-2.653,0.761,1.986,15.176,4.259,14.105c12.128-5.709,24.33-16.86,31.325-29.423C179.906,83.426,173.303,75.412,171.884,77.973
					z"/>
			</g>
			<path fill="#1B75BB" d="M178.289,85.509c1.942-2.741-7.904-11.684-9.704-9.484C167.015,77.941,176.961,87.383,178.289,85.509z"/>
		</g>
		<g>
			
				<linearGradient id="SVGID_27_" gradientUnits="userSpaceOnUse" x1="-947.1499" y1="151.1572" x2="-947.1499" y2="133.3687" gradientTransform="matrix(0.8018 -0.5976 0.5976 0.8018 842.7451 -593.2334)">
				<stop  offset="0.2527" style="stop-color:#005096"/>
				<stop  offset="0.6806" style="stop-color:#0E63A9"/>
				<stop  offset="1" style="stop-color:#1B75BB"/>
			</linearGradient>
			<path fill="url(#SVGID_27_)" d="M165.188,78.779c0.018-0.021-0.452-0.397-0.75-0.11c-0.183,0.174-0.067,0.911-0.321,1.143
				c-1.336,1.213-3.471,2.927-4.024,3.384c-2.125,1.761,10.581,13.652,12.233,11.761c1.172-1.339,3.398-3.777,4.543-5.481
				c0.27-0.403-0.333-0.658-0.322-0.675C174.22,89.185,165.861,81.836,165.188,78.779z"/>
		</g>
		<g>
			
				<linearGradient id="SVGID_28_" gradientUnits="userSpaceOnUse" x1="-2195.0776" y1="-254.6108" x2="-2203.197" y2="-237.8715" gradientTransform="matrix(0.2995 -0.9541 0.9541 0.2995 1061.5566 -1937.6353)">
				<stop  offset="0.1613" style="stop-color:#44C7FE"/>
				<stop  offset="0.3548" style="stop-color:#26A9E0"/>
				<stop  offset="0.4166" style="stop-color:#25A3DC"/>
				<stop  offset="0.8978" style="stop-color:#1B75BB"/>
			</linearGradient>
			<path fill="url(#SVGID_28_)" d="M164.438,78.668c-0.491,0.593-3.237,3.031-4.01,3.669c-2.427,2.008,11.071,14.36,12.976,12.182
				c1.33-1.523,2.296-3.352,3.465-5.044C173.325,90.06,165.151,81.912,164.438,78.668z"/>
		</g>
		
			<linearGradient id="SVGID_29_" gradientUnits="userSpaceOnUse" x1="-1052.541" y1="117.7051" x2="-1049.1538" y2="117.7051" gradientTransform="matrix(0.7741 -0.6331 0.6331 0.7741 902.4648 -673.6182)">
			<stop  offset="0" style="stop-color:#0B65AB"/>
			<stop  offset="1" style="stop-color:#1B75BB"/>
		</linearGradient>
		<path fill="url(#SVGID_29_)" d="M164.797,81.672c0.339,0.383,0.046,1.195-0.652,1.817c-0.699,0.621-1.541,0.815-1.88,0.434
			c-0.684-0.77-0.031-1.208,0.652-1.815C163.632,81.472,164.112,80.902,164.797,81.672z"/>
		
			<ellipse transform="matrix(0.7473 -0.6644 0.6644 0.7473 -13.5034 129.218)" fill="#D0D2D3" cx="163.155" cy="82.365" rx="1.694" ry="0.924"/>
	</g>
	<g>
		<path fill="#231F20" d="M200.224,209.096c1.004,3.41-10.517,12.768-21.656,13.568c-4.439,0.318-20.012,6.268-20.403-4.719
			c-0.322-8.971,2.872-4.699,18.402-7.541C199.263,206.25,197.671,200.432,200.224,209.096z"/>
		
			<linearGradient id="SVGID_30_" gradientUnits="userSpaceOnUse" x1="-499.7378" y1="412.4316" x2="-456.6177" y2="412.4316" gradientTransform="matrix(0.9387 -0.3447 0.3447 0.9387 485.5283 -338.9722)">
			<stop  offset="0" style="stop-color:#404041"/>
			<stop  offset="1" style="stop-color:#58595B"/>
		</linearGradient>
		<path fill="url(#SVGID_30_)" d="M199.748,207.801c1.004,3.408-10.517,12.766-21.657,13.568
			c-4.438,0.316-20.012,6.268-20.402-4.721c-0.322-8.967,2.871-4.697,18.402-7.539C198.786,204.955,197.195,199.137,199.748,207.801
			z"/>
		<path fill="#231F20" d="M197.39,205c0.109,3.15-10.773,10.404-21.344,10.781c-8.672,0.309-17.174,4.748-17.479-3.855
			c-0.094-2.596,1.513-7.414,1.259-9.891c-0.33-3.25-0.2-5.672-0.502-7.123c-0.227-1.082,1.813,1.465,6.102,0.779
			c4.378-0.697,8.416-3.512,8.482-2.883c0.592,5.643,2.172,8.063,4.85,8.982c8.764,3.018,15.471-3.49,17.352-0.58
			C196.815,202.305,197.337,203.543,197.39,205z"/>
		<g>
			
				<linearGradient id="SVGID_31_" gradientUnits="userSpaceOnUse" x1="-498.3521" y1="410.4414" x2="-456.5835" y2="410.4414" gradientTransform="matrix(0.9387 -0.3447 0.3447 0.9387 485.5283 -338.9722)">
				<stop  offset="0" style="stop-color:#58595B"/>
				<stop  offset="1" style="stop-color:#A6A8AB"/>
			</linearGradient>
			<path fill="url(#SVGID_31_)" d="M197.43,204.549c0.108,3.146-9.862,10.336-20.433,10.711c-3.02,0.109-18.045,5.959-18.391-3.787
				c0-0.01,0.001-0.023,0-0.035c-0.449,0.723-0.811,1.143-0.818,2.795c2.984,7.723,13.531,3.121,19.806,2.67
				c12.526-0.9,22.247-9.484,21.287-11.936c-0.549-1.398-0.874-1.277-1.652-1.688C197.38,203.795,197.409,203.965,197.43,204.549z"
				/>
		</g>
		
			<linearGradient id="SVGID_32_" gradientUnits="userSpaceOnUse" x1="-471.6143" y1="412.5449" x2="-468.0726" y2="402.8144" gradientTransform="matrix(0.9387 -0.3447 0.3447 0.9387 485.5283 -338.9722)">
			<stop  offset="0.1935" style="stop-color:#231F20"/>
			<stop  offset="0.7796" style="stop-color:#58595B"/>
		</linearGradient>
		<path fill="url(#SVGID_32_)" d="M192.576,206.164c-1.28,1.104-12.743,4.543-17.558,4.713c-3.451,0.125,1.243-9.957,3.852-9.061
			c8.765,3.016,15.472-3.492,17.354-0.58C196.325,201.391,194.665,204.367,192.576,206.164z"/>
	</g>
	<g>
		
			<radialGradient id="SVGID_33_" cx="277.4131" cy="-1227.4087" r="51.5713" gradientTransform="matrix(1.0004 0.463 -0.42 0.9075 -664.2422 1180.0732)" gradientUnits="userSpaceOnUse">
			<stop  offset="0.4785" style="stop-color:#1B75BB"/>
			<stop  offset="0.69" style="stop-color:#1B75BB"/>
			<stop  offset="0.6935" style="stop-color:#1B75BB"/>
			<stop  offset="0.9247" style="stop-color:#26A9E0"/>
		</radialGradient>
		<path fill="url(#SVGID_33_)" d="M137.147,146.109c-11.59-1.589-22.552,0.478-31.831,7.604
			c-8.243,6.326-15.905,12.773-18.354,15.584c-0.3,0.344,3.491,6.785,7.165,10.508c7.397,7.49,14.789,5.057,30.614,1.721
			c16.046-3.383,26.589,5.381,28.593,21.264c0.426,3.371,24.795-3.309,25.342-5.992C182.151,179.77,167.688,150.291,137.147,146.109
			z"/>
		
			<radialGradient id="SVGID_34_" cx="-372.7358" cy="2062.8281" r="27.5128" gradientTransform="matrix(0.9581 -0.2864 0.1688 0.5647 127.167 -1089.5322)" gradientUnits="userSpaceOnUse">
			<stop  offset="0.3011" style="stop-color:#0660A6"/>
			<stop  offset="1" style="stop-color:#1B75BB"/>
		</radialGradient>
		<path fill="url(#SVGID_34_)" d="M112.589,163.148c-3.342,0.998-6.416,2.336-9.132,3.9c-6.958,5.383-10.892,11.08-10.342,11.615
			c7.66,7.471,12.849,6.869,28.61,2.922c6.363-1.594,9.749-1.709,14.337-1.439c1.519,0.09,7.163,2.279,7.163,2.279
			c0.688-2.107-0.129-9.889-0.729-11.893C140.023,162.258,126.632,158.949,112.589,163.148z"/>
		
			<linearGradient id="SVGID_35_" gradientUnits="userSpaceOnUse" x1="-307.9155" y1="363.9482" x2="-307.9155" y2="316.9668" gradientTransform="matrix(0.7954 -0.2921 0.3447 0.9387 230.168 -245.3877)">
			<stop  offset="0" style="stop-color:#005AA0"/>
			<stop  offset="0.5323" style="stop-color:#1B75BB"/>
			<stop  offset="0.7742" style="stop-color:#1B77BD"/>
			<stop  offset="1" style="stop-color:#1E85C7;stop-opacity:0"/>
		</linearGradient>
		<path fill="url(#SVGID_35_)" d="M109.259,151.467c8.906,24.252,22.934,28.037,13.489,30.176c-2.597,0.59-8.188,1.373-13.13,2.727
			c-8.646,2.367-18.891-4.357-23.4-16.635c-3.034-8.262-4.143-14.234-4.507-18.369c-0.34-3.864,25.692-12.347,25.858-9.19
			C107.811,144.8,107.985,147.999,109.259,151.467z"/>
		
			<linearGradient id="SVGID_36_" gradientUnits="userSpaceOnUse" x1="-4285.3154" y1="-3024.4634" x2="-4285.3154" y2="-3061.5186" gradientTransform="matrix(-0.2921 -0.7954 -0.9387 0.3447 -3995.8584 -2201.3657)">
			<stop  offset="0.3656" style="stop-color:#1872B8"/>
			<stop  offset="0.7742" style="stop-color:#1B77BD"/>
			<stop  offset="1" style="stop-color:#1E85C7;stop-opacity:0"/>
		</linearGradient>
		<path fill="url(#SVGID_36_)" d="M109.313,150.199c-1.102,0.404-2.078,5.068-5.512,8.049c-3.557,3.088-9.483,4.684-9.21,5.43
			c1.743,4.746,4.8,4.701,15.855,0.643c8.262-3.035,15.082-3.648,19.225-3.396c4.346,0.264-0.824-14.904-5.152-14.904
			C120.14,146.02,115.943,147.763,109.313,150.199z"/>
		
			<radialGradient id="SVGID_37_" cx="500.0156" cy="-1141.4956" r="11.2332" gradientTransform="matrix(1.1484 0.911 -0.4381 0.5523 -920.4233 333.1953)" gradientUnits="userSpaceOnUse">
			<stop  offset="0" style="stop-color:#FFFFFF"/>
			<stop  offset="1" style="stop-color:#FFFFFF;stop-opacity:0"/>
		</radialGradient>
		<path opacity="0.5" fill="url(#SVGID_37_)" d="M166.785,168.496c-2.718,3.426-10.698,1.621-17.824-4.031
			c-7.125-5.652-10.698-13.012-7.981-16.438c2.718-3.428,10.698-1.623,17.823,4.031C165.931,157.709,169.503,165.07,166.785,168.496
			z"/>
		<g>
			
				<linearGradient id="SVGID_38_" gradientUnits="userSpaceOnUse" x1="-4088.1582" y1="-354.7256" x2="-4057.948" y2="-354.7256" gradientTransform="matrix(-0.004 -0.6168 0.5874 -0.0037 316.4678 -2353.916)">
				<stop  offset="0" style="stop-color:#0B65AB"/>
				<stop  offset="1" style="stop-color:#1B75BB"/>
			</linearGradient>
			<path fill="url(#SVGID_38_)" d="M136.668,151.219c0,0-0.894,1.578-0.772,5.914c0.152,5.459,1.608,10.449,1.639,10.631
				c0,0-4.418-0.127-8.706,0.148c-5.363,0.344-12.526,1.111-12.526,1.111c-0.036-0.225-3.385-4.664-3.425-10.396
				c-0.017-2.199-4.427-6.297,1.418-7.096c1.2-0.166,1.381-0.234,1.381-0.234s10.436-1.025,13.229-0.984
				C136.375,150.422,136.668,151.219,136.668,151.219z"/>
			
				<linearGradient id="SVGID_39_" gradientUnits="userSpaceOnUse" x1="-4086.1543" y1="-355.1514" x2="-4057.01" y2="-355.1514" gradientTransform="matrix(-0.004 -0.6168 0.5874 -0.0037 316.4678 -2353.916)">
				<stop  offset="0" style="stop-color:#1B75BB"/>
				<stop  offset="0.362" style="stop-color:#1C79BD"/>
				<stop  offset="0.6858" style="stop-color:#1E83C5"/>
				<stop  offset="0.9948" style="stop-color:#2296D2"/>
				<stop  offset="1" style="stop-color:#2296D2"/>
			</linearGradient>
			<path fill="url(#SVGID_39_)" d="M135.869,150.883c0,0-0.894,1.58-0.773,5.914c0.152,5.459,1.272,9.531,1.304,9.713
				c0,0-4.42-0.127-8.707,0.148c-2.381,0.152-4.819,0.391-6.792,0.611c-0.181,0.02,0.542-1.332,0.369-1.313
				c-2.187,0.248-4.587,1.828-4.587,1.828c-0.036-0.223-2.772-3.273-2.813-9.006c-0.022-3.17-2.14-3.48-1.977-6.879
				c0.012-0.258,1.743-2.027,2.069-2.074c0.245-0.033,2.752,1.811,3.02,1.777c1.79-0.215,8.298-1.658,11.125-1.627
				C133.442,150.033,135.869,150.883,135.869,150.883z"/>
			<g>
				
					<linearGradient id="SVGID_40_" gradientUnits="userSpaceOnUse" x1="-519.396" y1="339.4824" x2="-511.0537" y2="339.4824" gradientTransform="matrix(0.9387 -0.3447 0.3447 0.9387 485.5283 -338.9722)">
					<stop  offset="0" style="stop-color:#0B65AB"/>
					<stop  offset="0.3737" style="stop-color:#126CB2"/>
					<stop  offset="0.672" style="stop-color:#1B75BB"/>
					<stop  offset="0.8212" style="stop-color:#1C79BD"/>
					<stop  offset="0.9546" style="stop-color:#1E83C5"/>
					<stop  offset="1" style="stop-color:#1F89C9"/>
				</linearGradient>
				<path fill="url(#SVGID_40_)" d="M117.235,149.324c-0.638-0.379-4.867,1.889-4.513,3.061c2.014,6.664,2.974,4.066,4.061,4.641
					c7.709,4.086,2.819,9.742,4.85,7.896c0.511-0.463,1.317-2.445,1.439-2.465c-0.073-0.33,1.161-5.785-2.034-10.354
					C120.664,151.568,118.128,149.852,117.235,149.324z"/>
			</g>
			<g>
				<path fill="#004678" d="M118.569,148.574c-0.638-0.377-5.708,2.719-5.354,3.891c2.054,6.797,1.1,3.43,3.898,4.91
					c7.71,4.086,2.935,7.928,4.965,6.084c0.511-0.465,2.297-3.275,0.004-8.355C120.948,152.588,119.461,149.104,118.569,148.574z"/>
			</g>
			<g>
				
					<linearGradient id="SVGID_41_" gradientUnits="userSpaceOnUse" x1="-537.0928" y1="329.458" x2="-506.1055" y2="329.458" gradientTransform="matrix(0.9387 -0.3447 0.3447 0.9387 485.5283 -338.9722)">
					<stop  offset="0.5376" style="stop-color:#003C64"/>
					<stop  offset="0.8226" style="stop-color:#1E81C3"/>
					<stop  offset="1" style="stop-color:#26A9E0;stop-opacity:0"/>
				</linearGradient>
				<polygon opacity="0.5" fill="url(#SVGID_41_)" points="129.895,160.764 105.782,142.676 105.147,143.074 105.739,141.877 
					101.907,135.17 94.104,135.47 93.809,136.937 98.217,138.217 99.845,141.942 96.876,145.126 91.56,143.294 91.064,144.916 
					96.509,149.523 103.494,147.173 127.431,163.746 				"/>
				<polygon fill="#E6E7E8" points="102.895,144.585 96.856,146.538 91.146,141.174 91.759,140.627 97.224,142.137 100.193,138.954 
					98.565,135.229 93.69,133.35 94.303,132.804 102.255,132.184 106.086,138.889 				"/>
				<polygon fill="#BBBDBF" points="100.259,134.794 93.69,133.35 94.303,132.804 102.255,132.184 				"/>
				<polygon fill="#A6A8AB" points="96.856,146.538 91.146,141.174 91.641,140.671 97.224,142.137 				"/>
				<polygon fill="#E6E7E8" points="103.535,143.99 127.742,162.881 129.99,157.898 105.877,139.811 103.511,141.292 				"/>
				<polygon fill="#D0D2D3" points="103.025,144.737 127.231,163.629 129.479,158.645 105.367,140.557 103.001,142.037 				"/>
				<polygon fill="#FFFFFF" points="105.207,140.973 129.333,159.111 129.479,158.645 105.367,140.557 				"/>
				<path fill="#FFFFFF" d="M105.92,143.416c-0.651,0.359-0.671,1.523,0.507,2.499c0.767,0.635,21.553,16.339,21.553,16.339
					l0.249-0.551c-0.795-0.617-20.728-15.665-21.421-16.238C105.95,144.754,105.727,143.943,105.92,143.416z"/>
				<path fill="#A6A8AB" d="M129.177,159.67c0,0-20.781-15.494-21.546-16.057c-0.994-0.733-1.77-0.502-1.992,0.103
					c0.369-0.202,0.939-0.149,1.612,0.347c0.765,0.565,21.546,16.057,21.546,16.057L129.177,159.67z"/>
				<polygon fill="#A6A8AB" points="103.025,144.737 103.554,145.174 106.096,141.094 105.367,140.557 103.001,142.037 				"/>
				<polygon fill="#D0D2D3" points="102.133,145.453 96.094,147.404 90.65,142.796 91.146,141.174 96.461,143.007 99.43,139.823 
					97.803,136.098 93.395,134.816 93.69,133.35 101.492,133.051 105.324,139.757 				"/>
				<g>
					<polygon fill="#F1F1F2" points="96.494,142.943 91.213,141.124 91.064,141.612 96.114,143.352 					"/>
				</g>
				<polygon fill="#FFFFFF" points="104.993,140.347 101.322,133.561 93.595,133.835 93.69,133.35 101.492,133.051 105.324,139.757 
									"/>
			</g>
			<g>
				
					<linearGradient id="SVGID_42_" gradientUnits="userSpaceOnUse" x1="-516.8262" y1="340.9082" x2="-506.1201" y2="340.9082" gradientTransform="matrix(0.9387 -0.3447 0.3447 0.9387 485.5283 -338.9722)">
					<stop  offset="0" style="stop-color:#0B65AB"/>
					<stop  offset="0.3737" style="stop-color:#126CB2"/>
					<stop  offset="0.672" style="stop-color:#1B75BB"/>
					<stop  offset="0.8212" style="stop-color:#1C79BD"/>
					<stop  offset="0.9546" style="stop-color:#1E83C5"/>
					<stop  offset="1" style="stop-color:#1F89C9"/>
				</linearGradient>
				<path fill="url(#SVGID_42_)" d="M119.151,148.727c-0.733,0.111,0.104,1,0.527,2.148c-0.011,0.057,2.688,7.133,2.689,7.383
					c0.006,0.791-1.46,9.082-1.447,9.168c0,0,3.077-0.488,3.199-0.51c-0.074-0.33,4.484-8.75,4.479-9.623
					C128.593,156.639,119.509,149.699,119.151,148.727z"/>
			</g>
			
				<linearGradient id="SVGID_43_" gradientUnits="userSpaceOnUse" x1="-4085.0146" y1="-348.9507" x2="-4055.2793" y2="-348.9507" gradientTransform="matrix(-0.004 -0.6168 0.5874 -0.0037 316.4678 -2353.916)">
				<stop  offset="0" style="stop-color:#1B75BB"/>
				<stop  offset="0.362" style="stop-color:#1C79BD"/>
				<stop  offset="0.6858" style="stop-color:#1E83C5"/>
				<stop  offset="0.9948" style="stop-color:#2296D2"/>
				<stop  offset="1" style="stop-color:#2296D2"/>
			</linearGradient>
			<path fill="url(#SVGID_43_)" d="M135.869,150.883c0,0-0.894,1.58-0.773,5.914c0.152,5.459,1.272,9.531,1.304,9.713
				c0,0-4.42-0.127-8.707,0.148c-2.381,0.152-1.781,0.162-3.755,0.379c-0.182,0.021,4.193-9.797,4.193-9.797
				c-0.519-0.574-9.224-8.627-8.979-8.514c2.61,1.205,6.129,1.219,8.956,1.25C133.442,150.033,135.869,150.883,135.869,150.883z"/>
			
				<linearGradient id="SVGID_44_" gradientUnits="userSpaceOnUse" x1="-4070.7473" y1="-349.6221" x2="-4056.9341" y2="-337.3643" gradientTransform="matrix(-0.004 -0.6168 0.5874 -0.0037 316.4678 -2353.916)">
				<stop  offset="0" style="stop-color:#1D80C3;stop-opacity:0"/>
				<stop  offset="0.3229" style="stop-color:#2193D1;stop-opacity:0.3229"/>
				<stop  offset="0.7044" style="stop-color:#25A3DC;stop-opacity:0.7044"/>
				<stop  offset="1" style="stop-color:#26A9E0"/>
			</linearGradient>
			<path fill="url(#SVGID_44_)" d="M135.869,150.883c0,0-0.894,1.58-0.773,5.914c0.152,5.459,1.272,9.531,1.304,9.713
				c0,0-17.5-17.637-17.255-17.52c1.995,0.949,6.136,0.955,8.962,0.986C133.442,150.033,135.869,150.883,135.869,150.883z"/>
			<g>
				
					<linearGradient id="SVGID_45_" gradientUnits="userSpaceOnUse" x1="-520.2021" y1="340.6338" x2="-508.6709" y2="340.6338" gradientTransform="matrix(0.9387 -0.3447 0.3447 0.9387 485.5283 -338.9722)">
					<stop  offset="0" style="stop-color:#1B75BB"/>
					<stop  offset="0.362" style="stop-color:#1C79BD"/>
					<stop  offset="0.6858" style="stop-color:#1E83C5"/>
					<stop  offset="0.9948" style="stop-color:#2296D2"/>
					<stop  offset="1" style="stop-color:#2296D2"/>
				</linearGradient>
				<path fill="url(#SVGID_45_)" d="M122.138,153.783c-0.007,0.037-3.308,1.891-5.497,2.842c-2.473,1.072-3.628-4.297-3.626-4.125
					c0.012,1.775,2.395,9,2.603,10.281c0,0,4.984,3.287,5.105,3.268c-0.074-0.332,5.258-7.604,5.251-8.475
					C125.971,156.92,121.716,152.635,122.138,153.783z"/>
			</g>
			<g>
				<path fill="#005AA0" d="M122.555,156.076c0.739-0.297,1.623,0.164,1.973,1.031c0.349,0.865,0.032,1.813-0.706,2.111
					c-1.493,0.602-1.63-0.186-1.973-1.031C121.491,157.299,121.06,156.678,122.555,156.076z"/>
				
					<ellipse transform="matrix(-0.3738 -0.9275 0.9275 -0.3738 22.0929 330.4163)" fill="#929497" cx="122.588" cy="157.75" rx="1.693" ry="1.444"/>
			</g>
		</g>
	</g>
	<g>
		<g>
			
				<linearGradient id="SVGID_46_" gradientUnits="userSpaceOnUse" x1="212.6689" y1="-501.8477" x2="286.3151" y2="-501.8477" gradientTransform="matrix(1 -0.0066 0.0086 1.29 -174.0366 734.2275)">
				<stop  offset="0.1989" style="stop-color:#D0D2D3"/>
				<stop  offset="0.8441" style="stop-color:#A6A8AB"/>
				<stop  offset="1" style="stop-color:#808184"/>
			</linearGradient>
			<path fill="url(#SVGID_46_)" d="M89.416,95.455c6.395-16.816,21.792-21.11,17.834-21.635c-14.357-1.904-46.991-6.3-55.692-5.864
				c-1.07,0.053-1.674,2.141,0.341,4.365c3.817,4.21-1.305,3.078,0.536,7.621c0.858,2.115,6.473,6.851,7.734,9.013
				c1.343,2.304-0.063,7.719,1.792,9.664c0.976,1.02,5.839,1.95,6.966,2.418c7.297,3.033,15.345,1.211,19.677-2.727
				C88.597,98.316,89.294,95.774,89.416,95.455z"/>
		</g>
		<g>
			
				<linearGradient id="SVGID_47_" gradientUnits="userSpaceOnUse" x1="217.2871" y1="-499.9893" x2="274.9318" y2="-499.9893" gradientTransform="matrix(1 -0.0066 0.0086 1.29 -174.0366 734.2275)">
				<stop  offset="0" style="stop-color:#D0D2D3"/>
				<stop  offset="0.2258" style="stop-color:#A6A8AB"/>
				<stop  offset="1" style="stop-color:#808184"/>
			</linearGradient>
			<path fill="url(#SVGID_47_)" d="M96.47,80.102c-1.622-6.839-20.584-1.765-41.255-4.694c-0.566-0.08-0.978,0-1.426-0.36
				c-0.667-0.536-0.576-0.977-0.641-1.061c-0.017-0.023-0.422,0.139-0.926,0.594c-0.609,0.545-0.6,2.962-0.456,4.403
				c0.04,0.395,0.646,0.901,0.668,0.958c0.452,1.112,1.382,3.839,3.171,5.282c2.167,1.748,3.974,2.768,4.89,4.34
				c0.76,1.303,0.02,3.419-0.077,5.096c-0.074,1.291,0.736,3.114,1.542,3.959c0.057,0.059-0.812-1.187-0.812-1.187
				s-0.408,1.29,0.523,1.729c1.839,0.87,4.309,2.171,5.704,2.186c0.856,0.008,1.773-0.096,2.24-0.079
				C77.865,101.575,97.982,86.475,96.47,80.102z"/>
		</g>
		<g opacity="0.4">
			
				<radialGradient id="SVGID_48_" cx="-773.1567" cy="-4295.1143" r="6.2016" gradientTransform="matrix(6.0469 0.0122 1.0093 -0.972 9073.1797 -4089.8276)" gradientUnits="userSpaceOnUse">
				<stop  offset="0.1828" style="stop-color:#404041"/>
				<stop  offset="0.5879" style="stop-color:#5E5E60;stop-opacity:0.5043"/>
				<stop  offset="1" style="stop-color:#808184;stop-opacity:0"/>
			</radialGradient>
			<path fill="url(#SVGID_48_)" d="M94.133,76.7c0.218-4.838-16.399-7.236-43.608-6.919c0.342,1.085,0.494,1.567,1.236,2.388
				c0.595,0.656,1.063,1.302,1.367,1.831c0.021,0.04-0.175-0.102-1.056,0.738c-0.527,0.502-0.395,3.552-0.291,4.246
				c0.05,0.336,0.545,0.928,0.653,0.958c3.758,1.03,9.115,2.014,12.656,2.037C78.078,82.064,93.946,80.841,94.133,76.7z"/>
			
				<radialGradient id="SVGID_49_" cx="-899.9453" cy="-4857.5146" r="7.1042" gradientTransform="matrix(5.0912 -3.2628 0.3225 -1.3636 6226.2969 -9462.7891)" gradientUnits="userSpaceOnUse">
				<stop  offset="0.1828" style="stop-color:#404041"/>
				<stop  offset="0.5879" style="stop-color:#5E5E60;stop-opacity:0.5043"/>
				<stop  offset="1" style="stop-color:#808184;stop-opacity:0"/>
			</radialGradient>
			<path fill="url(#SVGID_49_)" d="M63.733,98.683c-0.126,0.083-1.724,0.509-1.827,0.601c1.474,0.523,3.741,1.815,4.499,1.906
				c1.309,0.156,2.542,0.037,2.836,0.143c5.174,1.876,11.975,1.624,15.758-0.731c1.108-0.69,2.685-1.299,3.451-2.338
				c0.489-0.662,0.714-2.32,1.025-3.137c3.003-7.897,8.347-13.06,12.384-16.34C95.436,80.161,81.073,87.184,63.733,98.683z"/>
		</g>
		<g opacity="0.7">
			
				<radialGradient id="SVGID_50_" cx="-613.5264" cy="-4694.2998" r="6.243" gradientTransform="matrix(3.1431 -0.8711 0.3225 -1.0973 3521.4648 -5598.9365)" gradientUnits="userSpaceOnUse">
				<stop  offset="0.1828" style="stop-color:#404041"/>
				<stop  offset="0.5879" style="stop-color:#5E5E60;stop-opacity:0.5043"/>
				<stop  offset="1" style="stop-color:#808184;stop-opacity:0"/>
			</radialGradient>
			<path opacity="0.7" fill="url(#SVGID_50_)" d="M75.762,94.342c-2.531,0.958-7.486-10.82-4.7-11.679
				c14.536-4.481,23.577-5.759,24.484-0.909C96.523,86.979,84.504,91.038,75.762,94.342z"/>
			<g>
				
					<linearGradient id="SVGID_51_" gradientUnits="userSpaceOnUse" x1="244.4785" y1="-506.8682" x2="245.4324" y2="-491.6544" gradientTransform="matrix(1 -0.0066 0.0086 1.29 -174.0366 734.2275)">
					<stop  offset="0.1989" style="stop-color:#98D6F0"/>
					<stop  offset="0.3817" style="stop-color:#26A9E0"/>
					<stop  offset="0.586" style="stop-color:#1B75BB"/>
					<stop  offset="0.7312" style="stop-color:#98D6F0"/>
					<stop  offset="1" style="stop-color:#26A9E0"/>
				</linearGradient>
				<path fill="url(#SVGID_51_)" d="M80.077,86.927c-1.374-3.744-7.929-5.098-14.117-5.164c-10.344-0.115-13.535-1.753-13.556-1.81
					c0.439,1.193,1.22,3.739,3.201,5.27c1.774,1.372,3.953,2.998,4.783,4.384c0.762,1.274,0.075,3.307,0.063,5.102
					c-0.01,1.498,0.715,3.078,1.508,3.909C62.936,99.639,82.937,94.717,80.077,86.927z"/>
			</g>
			<g>
				
					<radialGradient id="SVGID_52_" cx="-538.375" cy="263.4961" r="8.0095" gradientTransform="matrix(0.9387 -0.3447 0.3447 0.9387 485.5283 -338.9722)" gradientUnits="userSpaceOnUse">
					<stop  offset="0.6667" style="stop-color:#FFFFFF"/>
					<stop  offset="1" style="stop-color:#E6E7E8"/>
				</radialGradient>
				<path fill="url(#SVGID_52_)" d="M61.176,97.437c0.012,0.02-0.679,1.14,0.56,1.756c1.608,0.801,21.365-3.833,18.505-11.625
					c-0.037-0.102-0.079-0.197-0.123-0.291c1.995,7.19-17.282,12.097-18.566,10.917C61.411,98.063,61.153,97.433,61.176,97.437z"/>
			</g>
		</g>
		<g>
			
				<linearGradient id="SVGID_53_" gradientUnits="userSpaceOnUse" x1="-546.9316" y1="249.5156" x2="-481.3887" y2="249.5156" gradientTransform="matrix(0.9387 -0.3447 0.3447 0.9387 485.5283 -338.9722)">
				<stop  offset="0" style="stop-color:#A6A8AB"/>
				<stop  offset="1" style="stop-color:#404041"/>
			</linearGradient>
			<path fill="url(#SVGID_53_)" d="M121.708,70.682c-6.777-2.702-9.489-4.466-23.68-6.564c-23.529-3.481-45.584,0.139-45.456,4.26
				c0.162,5.09,20.533,1.206,45.404,5.876c5.705,1.071,12.968,5.496,18.184,6.605C120.349,81.748,127.9,73.148,121.708,70.682z"/>
			<g>
				
					<linearGradient id="SVGID_54_" gradientUnits="userSpaceOnUse" x1="-871.3818" y1="-4160.354" x2="-870.2057" y2="-4155.0664" gradientTransform="matrix(0.8895 -0.4568 -0.5894 -1.1475 -1604.6245 -5097.1143)">
					<stop  offset="0" style="stop-color:#98D6F0"/>
					<stop  offset="1" style="stop-color:#26A9E0"/>
				</linearGradient>
				<path fill="url(#SVGID_54_)" d="M58.453,70.68c0.008-0.03,23.276-4.257,25.885,1.89c0.083,0.198-9.716-1.045-17.305-1.081
					C61.473,71.462,58.134,71.783,58.453,70.68z"/>
			</g>
			<path fill="#E6E7E8" d="M122.455,70.56c-6.913-2.06-13.052-6.378-25.655-7.875c-26.988-3.203-46.471,0.564-46.271,6.887
				c0.146,4.595,21.522,1.519,40.649,4.773c6.279,1.067,11.39,3.06,16.781,5.097c3.011,1.137,9.273,3.03,11.691,3.05
				C133.953,82.618,133.567,73.871,122.455,70.56z M112.183,78.923c-4.665-0.992-10.003-4.333-15.106-5.292
				c-1.897-0.356-3.96-1.248-5.924-1.682c-12.838-2.84-36.82,0.261-36.948-3.782c-0.116-3.685,19.638-6.468,40.682-3.354
				c12.692,1.877,14.967,3.044,21.028,5.459C121.454,72.479,115.93,79.719,112.183,78.923z"/>
		</g>
		
			<radialGradient id="SVGID_55_" cx="-142.1235" cy="-4519.4365" r="10.2662" gradientTransform="matrix(1.9466 -0.2095 0.3475 -1.0077 1908.2793 -4495.4121)" gradientUnits="userSpaceOnUse">
			<stop  offset="0.1828" style="stop-color:#1B75BB"/>
			<stop  offset="0.6918" style="stop-color:#2294D1;stop-opacity:0.3771"/>
			<stop  offset="1" style="stop-color:#26A9E0;stop-opacity:0"/>
		</radialGradient>
		<path fill="url(#SVGID_55_)" d="M67.861,97.263c-6.903,1.8-6.372,2.096-7.351-1.623c-0.401-1.521,0.497-4.527,0.091-5.613
			c-0.722-1.928-3.122-3.143-4.995-4.805c-1.557-1.381-1.889-2.794-2.533-3.879c-0.287-0.487-0.5-0.98-0.323-1.044
			c0.629-0.235,5.403,1.638,12.307,1.669c11.655,0.052,10.587,1.008,12.741,6.791C79.106,92.277,75.938,95.158,67.861,97.263z"/>
		<g>
			<path fill="#58595B" d="M91.481,81.381c-1.304-2.799-4.454-4.091-7.034-2.889c-0.485,0.227-0.916,0.525-1.286,0.88
				c2.303-0.427,4.765,0.86,5.88,3.251c1.06,2.272,0.119,5.005-1.48,6.534c-0.164,0.031,1.223,1.153,2.084,0.752
				C92.145,88.744,93.226,85.119,91.481,81.381z"/>
			
				<linearGradient id="SVGID_56_" gradientUnits="userSpaceOnUse" x1="283.5967" y1="1456.2168" x2="282.4731" y2="1471.6663" gradientTransform="matrix(0.5886 -0.2745 0.2977 0.6384 -514.9512 -773.4526)">
				<stop  offset="0" style="stop-color:#25A5DD"/>
				<stop  offset="0.1398" style="stop-color:#8FCBE4"/>
				<stop  offset="0.4785" style="stop-color:#26A9E0"/>
				<stop  offset="0.7258" style="stop-color:#1B75BB"/>
				<stop  offset="0.957" style="stop-color:#25A5DD"/>
			</linearGradient>
			<path fill="url(#SVGID_56_)" d="M83.99,78.925c-0.765,0.357-1.4,0.686-1.924,0.994c0.983-0.577,5.693,9.278,4.385,9.7
				c0.604-0.196,1.307-0.477,2.125-0.858c2.504-1.168,3.508-4.317,2.241-7.032C89.55,79.013,86.494,77.757,83.99,78.925z"/>
			
				<radialGradient id="SVGID_57_" cx="280.582" cy="1461.2168" r="10.4218" gradientTransform="matrix(0.5886 -0.2745 0.2977 0.6384 -514.9512 -773.4526)" gradientUnits="userSpaceOnUse">
				<stop  offset="0.1559" style="stop-color:#D4EEF9"/>
				<stop  offset="0.7258" style="stop-color:#26A9E0"/>
				<stop  offset="0.9946" style="stop-color:#98D6F0"/>
			</radialGradient>
			<path fill="url(#SVGID_57_)" d="M82.049,79.897c-1.228,0.573-1.54,1.473-1.685,2.445c-0.159,1.056,3.229,1.581,3.728,2.649
				c0.563,1.209-1.722,4.078-0.655,4.622c1.176,0.602,1.915,0.717,3.198,0.119c2.504-1.168,3.507-4.316,2.241-7.032
				C87.609,79.985,84.553,78.729,82.049,79.897z"/>
			
				<radialGradient id="SVGID_58_" cx="-521.0693" cy="259.3828" r="4.4361" gradientTransform="matrix(0.9387 -0.3447 0.3447 0.9387 485.5283 -338.9722)" gradientUnits="userSpaceOnUse">
				<stop  offset="0" style="stop-color:#D4EEF9"/>
				<stop  offset="0.9946" style="stop-color:#98D6F0"/>
			</radialGradient>
			<path fill="url(#SVGID_58_)" d="M88.876,82.701c-1.267-2.716-4.323-3.972-6.827-2.804c-0.623,0.291-0.96,0.543-1.115,0.779
				c0.18-0.125,0.414-0.257,0.717-0.399c2.504-1.168,5.561,0.086,6.828,2.803c0.985,2.113,0.592,4.485-0.81,5.985
				C89.388,87.61,89.949,85.002,88.876,82.701z"/>
			
				<radialGradient id="SVGID_59_" cx="-86.0493" cy="-4417.1265" r="3.5458" gradientTransform="matrix(1.4824 -0.2118 0.1243 -1.0577 759.9355 -4605.2129)" gradientUnits="userSpaceOnUse">
				<stop  offset="0.3441" style="stop-color:#1B75BB"/>
				<stop  offset="0.5658" style="stop-color:#1E83C5;stop-opacity:0.6592"/>
				<stop  offset="0.9842" style="stop-color:#26A8DF;stop-opacity:0.0161"/>
				<stop  offset="0.9946" style="stop-color:#26A9E0;stop-opacity:0"/>
			</radialGradient>
			<path fill="url(#SVGID_59_)" d="M88.088,83.521c-0.861-2.089-2.49-2.589-5.609-1.401c-0.563,0.214-1.131,0.604-1.548,1.02
				c0.961,0.597,2.776,1.084,3.131,1.844c0.396,0.85-0.61,2.515-0.876,3.622c0.543-0.016,1.251-0.148,2.088-0.454
				C87.254,87.43,88.875,85.432,88.088,83.521z"/>
		</g>
		
			<linearGradient id="SVGID_60_" gradientUnits="userSpaceOnUse" x1="-511.3647" y1="256.543" x2="-500.9155" y2="256.543" gradientTransform="matrix(0.9387 -0.3447 0.3447 0.9387 485.5283 -338.9722)">
			<stop  offset="0.1774" style="stop-color:#A6A8AB"/>
			<stop  offset="0.7903" style="stop-color:#808184"/>
		</linearGradient>
		<path fill="url(#SVGID_60_)" d="M99.06,74.652c-2.752-0.365-4.26-1.182-6.403-1.456c-0.432-0.055-0.931,1.848,3.564,4.166
			c1.233,0.637,0.716,3.671,2.131,4.536c2.256-2.212,4.449-3.86,6.162-5.072C105.131,76.389,99.841,74.755,99.06,74.652z"/>
		<path fill="#E6E7E8" d="M91.138,71.998c0.068,0.77,0.084,1.539,0.049,2.302c1.301,0.198,22.378,7.014,26.829,8.026
			c1.711,0.388,3.32-1.581,1.1-1.904C112.14,79.409,96.504,72.957,91.138,71.998z"/>
		<g>
			
				<linearGradient id="SVGID_61_" gradientUnits="userSpaceOnUse" x1="-597.0273" y1="-4582.749" x2="-600.6139" y2="-4592.603" gradientTransform="matrix(0.9387 -0.3447 -0.3447 -0.9387 -952.5396 -4419.8545)">
				<stop  offset="0" style="stop-color:#FFFFFF;stop-opacity:0"/>
				<stop  offset="0.6344" style="stop-color:#FFFFFF"/>
			</linearGradient>
			<path opacity="0.5" fill="url(#SVGID_61_)" d="M71.517,96.003c-1.228,1.174-7.598,2.239-7.662,2.258
				c-2.951-4.036,1.205-5.214-1.281-8c-3.066-3.438,5.513-3.042,7.686-0.463C71.804,91.63,70.49,92.957,71.517,96.003z"/>
		</g>
		<g>
			<path fill="#231F20" d="M133.987,35.304c13.624-5.447,10.412-21.071,6.784-23.349c0.135,0.085-1.229,10.666-5.625,13.285
				C127.628,29.72,122.858,39.754,133.987,35.304z"/>
			<g>
				<g>
					
						<linearGradient id="SVGID_62_" gradientUnits="userSpaceOnUse" x1="225.5859" y1="-277.6943" x2="245.7393" y2="-277.6943" gradientTransform="matrix(1 0.0085 -0.0085 1 -120.0049 349.4434)">
						<stop  offset="0" style="stop-color:#ECC11D"/>
						<stop  offset="0.172" style="stop-color:#D99D11"/>
						<stop  offset="0.414" style="stop-color:#FCDF27"/>
						<stop  offset="0.7366" style="stop-color:#FDEC7C"/>
						<stop  offset="1" style="stop-color:#FCDF27"/>
					</linearGradient>
					<path fill="url(#SVGID_62_)" d="M127.183,78.256c-0.201,0.569,1.222-3.732,0.854-5.638c-0.703-3.659-17.761-7.079-18.625-3.607
						l-1.43,4.47C106.915,77.777,126.114,82.552,127.183,78.256z"/>
					<g>
						
							<linearGradient id="SVGID_63_" gradientUnits="userSpaceOnUse" x1="225.6045" y1="-274.3813" x2="244.8984" y2="-274.3813" gradientTransform="matrix(1 0.0085 -0.0085 1 -120.0049 349.4434)">
							<stop  offset="0" style="stop-color:#A25800"/>
							<stop  offset="0.0281" style="stop-color:#AD6302"/>
							<stop  offset="0.0844" style="stop-color:#BD7305"/>
							<stop  offset="0.1475" style="stop-color:#C77D06"/>
							<stop  offset="0.2312" style="stop-color:#CA8007"/>
							<stop  offset="1" style="stop-color:#ECC11D"/>
						</linearGradient>
						<path fill="url(#SVGID_63_)" d="M127.217,78.116l-0.015,0.726c-1.158,4.652-20.357-0.123-19.199-4.775l0.014-0.726
							C109.015,78.169,124.75,81.1,127.217,78.116z"/>
					</g>
				</g>
				<g>
					
						<linearGradient id="SVGID_64_" gradientUnits="userSpaceOnUse" x1="225.1514" y1="-280.7036" x2="245.7207" y2="-280.7036" gradientTransform="matrix(1 0.0085 -0.0085 1 -120.0049 349.4434)">
						<stop  offset="0" style="stop-color:#ECC11D"/>
						<stop  offset="0.172" style="stop-color:#D99D11"/>
						<stop  offset="0.414" style="stop-color:#FCDF27"/>
						<stop  offset="0.7366" style="stop-color:#FDEC7C"/>
						<stop  offset="1" style="stop-color:#FCDF27"/>
					</linearGradient>
					<path fill="url(#SVGID_64_)" d="M128.082,72.937c0.043-0.197-0.703-5.556-0.735-5.81c-0.335-1.765-20.143,1.468-19.807,3.233
						l0.628,3.525C108.504,75.651,127.637,74.979,128.082,72.937z"/>
					
						<linearGradient id="SVGID_65_" gradientUnits="userSpaceOnUse" x1="224.9307" y1="-280.1611" x2="245.6025" y2="-280.1611" gradientTransform="matrix(1 0.0085 -0.0085 1 -120.0049 349.4434)">
						<stop  offset="0" style="stop-color:#CA8007"/>
						<stop  offset="0.2742" style="stop-color:#B26803"/>
						<stop  offset="0.8925" style="stop-color:#CA8007"/>
					</linearGradient>
					<path fill="url(#SVGID_65_)" d="M127.978,70.646l-1.012-4.989c-0.336-1.764-19.968,1.285-19.632,3.05l0.488,5.404
						c0.13,0.684,2.12,3.875,4.87,3.256C118.647,76.03,128.26,72.13,127.978,70.646z"/>
				</g>
				<g>
					
						<linearGradient id="SVGID_66_" gradientUnits="userSpaceOnUse" x1="213.2803" y1="-277.3052" x2="256.073" y2="-292.8805" gradientTransform="matrix(1 0.0085 -0.0085 1 -120.0049 349.4434)">
						<stop  offset="0" style="stop-color:#E6B519"/>
						<stop  offset="0.1398" style="stop-color:#CA8007"/>
						<stop  offset="0.3065" style="stop-color:#D89B10"/>
						<stop  offset="0.8172" style="stop-color:#E6B519"/>
					</linearGradient>
					<path fill="url(#SVGID_66_)" d="M93.625,68.146c0.715,3.757,6.706,6.646,23.996,3.811c17.093-2.806,22.158-7.511,21.445-11.267
						c-0.258-1.356,2.76-0.712-22.767,3.476C90.772,68.354,93.367,66.788,93.625,68.146z"/>
					
						<linearGradient id="SVGID_67_" gradientUnits="userSpaceOnUse" x1="1108.8955" y1="-417.1748" x2="1061.6364" y2="-416.9377" gradientTransform="matrix(-0.9854 0.1703 0.1703 0.9854 1254.0469 272.7783)">
						<stop  offset="0.0376" style="stop-color:#F8E16A"/>
						<stop  offset="0.0392" style="stop-color:#F8E169"/>
						<stop  offset="0.1426" style="stop-color:#EFCD4A"/>
						<stop  offset="0.2299" style="stop-color:#EAC037"/>
						<stop  offset="0.2903" style="stop-color:#E8BC30"/>
						<stop  offset="0.3264" style="stop-color:#EAC037"/>
						<stop  offset="0.5974" style="stop-color:#F8E069"/>
						<stop  offset="0.7312" style="stop-color:#FDEC7C"/>
						<stop  offset="0.7809" style="stop-color:#FDEB75"/>
						<stop  offset="0.8545" style="stop-color:#FDE861"/>
						<stop  offset="0.9423" style="stop-color:#FCE340"/>
						<stop  offset="1" style="stop-color:#FCDF27"/>
					</linearGradient>
					<path fill="url(#SVGID_67_)" d="M134.137,26.209c-0.504-2.648-11.389-1.587-19.103-0.322l-9.028,1.482
						c-7.716,1.265-18.533,3.763-18.028,6.413c0,0,5.21,34.016,5.236,34.154c0.167,0.879,6.462,1.504,23.654-1.316
						c17.19-2.821,22.673-5.379,22.506-6.258C139.348,60.224,134.137,26.209,134.137,26.209z"/>
					
						<linearGradient id="SVGID_68_" gradientUnits="userSpaceOnUse" x1="209.4512" y1="-323.1436" x2="246.5107" y2="-323.1436" gradientTransform="matrix(1 0.0085 -0.0085 1 -120.0049 349.4434)">
						<stop  offset="0" style="stop-color:#FCDF27"/>
						<stop  offset="0.4863" style="stop-color:#FCE96B"/>
						<stop  offset="1" style="stop-color:#FDF3AF"/>
					</linearGradient>
					<path fill="url(#SVGID_68_)" d="M92.168,31.281c0.168,0.881,8.611,0.23,18.857-1.451c10.247-1.68,18.418-3.757,18.251-4.637
						c-0.168-0.881-8.611-0.23-18.857,1.451C100.172,28.325,92.002,30.402,92.168,31.281z"/>
				</g>
				
					<linearGradient id="SVGID_69_" gradientUnits="userSpaceOnUse" x1="1108.8477" y1="-421.5444" x2="1061.5902" y2="-421.3074" gradientTransform="matrix(-0.9854 0.1703 0.1703 0.9854 1254.0488 272.7783)">
					<stop  offset="0" style="stop-color:#BE821E"/>
					<stop  offset="0.5376" style="stop-color:#E6B414"/>
					<stop  offset="1" style="stop-color:#E6B414"/>
				</linearGradient>
				<path fill="url(#SVGID_69_)" d="M114.95,25.223l-9.028,1.481c-7.715,1.266-18.532,3.765-18.027,6.414
					c0,0,3.07,20.048,4.508,29.423c0.556-0.545,1.069-1.557,1.373-3.296c1.121-6.438,9.995-15.007,7.533-17.372
					c-3.485-3.356,0.491-7.889,3.052-6.07c2.693,1.912,8.801,0.554,13.671-1.242c13.255-4.882,14.154,1.164,17.359-0.076
					c-0.55-3.587-1.338-8.941-1.338-8.941C133.549,22.896,122.664,23.956,114.95,25.223z"/>
			</g>
			<g>
				<path fill="#0A0403" d="M129.69,42.378c0.035-0.466,0.01-0.978-0.09-1.507c-0.346-1.836-1.433-3.173-2.43-2.984
					c-0.995,0.186-1.521,1.828-1.175,3.664c0.094,0.502,0.245,0.964,0.434,1.372C126.208,43.746,130.004,42.838,129.69,42.378z"/>
				<path fill="#0A0403" d="M118.683,44.412c0.054-0.467,0.041-0.977-0.059-1.501c-0.348-1.835-1.573-3.147-2.738-2.926
					c-1.166,0.219-1.831,1.887-1.485,3.722c0.095,0.501,0.256,0.961,0.463,1.364C114.596,45.881,119.045,44.886,118.683,44.412z"/>
			</g>
			<g>
				<path fill="#0A0403" d="M117.602,36.123c-0.789,0.333-2.611-0.13-4.166-0.116c-2.4,0.023-5.275,1.244-5.276,1.27
					c0.037-0.011,3.202-0.274,5.622,0.502c1.952,0.627,2.853,1.229,4.334,0.762C119.45,38.121,119.42,35.358,117.602,36.123z"/>
				<path fill="#0A0403" d="M124.754,33.826c0.943-0.463,1.48-0.721,2.883-0.792c1.914-0.098,4.016,1.654,4.02,1.682
					c-0.036-0.009-1.979-0.428-3.988,0.099c-0.884,0.229-1.315,0.833-2.194,1.41C124.488,36.87,123.324,34.53,124.754,33.826z"/>
			</g>
			<g>
				<g>
					<g>
						<path fill="#DDDBDD" d="M122.095,57.075c6.593-0.658,8.065-4.927,7.753-5.679c-0.575-1.387-2.261-0.357-6.975,0.268
							c-4.617,0.609-9.796-2.195-10.85-2.462c-0.651-0.166-1.95,3.856-1.388,4.458C113.201,56.402,118.906,57.392,122.095,57.075z"
							/>
						<path fill="#231F20" d="M121.201,57.533c-5.715,0.138-10.42-2.765-10.609-3.023c0,0-0.783-3.634-0.573-3.987
							c0.347-0.588,2.043-1.898,2.043-1.898c0.579,0.153,4.867,2.421,9.35,2.313c0.426-0.012,1.816-0.061,2.201-0.099
							c4.449-0.442,5.729-1,6.716,0.375c1.027,1.433-2.364,5.736-7.47,6.245C122.546,57.489,121.201,57.533,121.201,57.533z
							 M110.506,53.057c0.91,1.095,5.591,3.37,10.625,3.248c0,0,1.284-0.042,1.565-0.069c5.13-0.51,7.229-3.556,6.7-4.536
							c-0.496-0.92-2.419,0.258-5.863,0.397c-0.42,0.016-1.595,0.086-2.053,0.097c-4.456,0.109-8.979-2.343-9.877-2.587
							L110.506,53.057z"/>
						<path fill="#231F20" d="M115.987,53.198c-2.485-0.782-3.868-1.298-5.446-2.496c-0.053,0.446,0.091,0.376-0.041,0.791
							c1.753,1.24,2.944,1.775,5.263,2.505C117.007,54.387,117.243,53.592,115.987,53.198z"/>
					</g>
				</g>
				<g>
					<path fill="#231F20" d="M110.915,55.327c-0.479,0.001-1.526-4.178-1.419-4.734c0.253-1.34,2.931-2.527,3.17-2.4
						c0,0-1.161,1.988-1.598,3.33C110.837,52.233,111.406,55.319,110.915,55.327z"/>
				</g>
			</g>
			<path fill="#0A0403" d="M123.005,59.831c0.14-0.52-0.905,0.054-2.289,0.313c-1.063,0.2-2.108-0.38-2.535-0.179
				c-0.124,0.059,0.889,1.752,2.39,1.65C121.613,61.544,122.787,60.657,123.005,59.831z"/>
			<path fill="#404041" d="M98.424,42.416c-5.361-5.158,0.033-14.249,4.385-11.16c4.715,3.349,8.578,2.209,14.579-1.846
				c7.326-4.951,9.188,3.233,19.55-2.792c8.554-4.975,5.311-13.371,3.348-14.604c0.135,0.086-1.591,3.821-5.985,6.439
				c-3.324,1.981-7.366-11.17-19.719-1.928c-2.037,1.524-20.66-8.969-23.614,7.141c-0.413,2.253-7.862,3.909-8.79,14.391
				C81.137,49.86,87.17,48.322,89.522,59.08c0.192,0.877,2.953,2.125,3.853-3.048C94.496,49.593,100.885,44.783,98.424,42.416z"/>
			<g>
				<g>
					<g>
						<path fill="#231F20" d="M89.088,57.427c0.206,0.665,0.206,1.402,0.377,2.186c0.192,0.878,2.952,2.125,3.853-3.047
							c1.122-6.438,7.509-11.25,5.049-13.616c-0.324-0.312-0.605-0.638-0.854-0.974c-0.58,2.654-4.663,6.688-5.539,11.715
							C91.351,57.278,90.024,57.751,89.088,57.427z"/>
					</g>
				</g>
			</g>
			<g>
				<g>
					<g>
						<path fill="#231F20" d="M98.513,44.349c0.085,0.083,0.154,0.163,0.21,0.244c0.191-0.782,0.094-1.452-0.467-1.991
							c-5.362-5.157,0.034-14.247,4.385-11.159c1.557,1.106,3.263,1.683,4.741,1.865c-0.253-0.158,2.315-3.163,1.999-3.388
							C97.657,21.598,86.414,32.708,98.513,44.349z"/>
					</g>
				</g>
			</g>
			<path fill="#58595B" d="M91.053,36.986c-3.292-6.386-1.669-11.093-1.141-11.306c-2.598,1.05-4.876,4.169-5.681,6.931
				c-1.873,6.425,1.035,6.298,0.82,12.553c-0.018,0.509,1.081,1.535,2.102-1.228C88.425,40.497,91.883,38.596,91.053,36.986z"/>
			<g>
				<path fill="#6D6E70" d="M105.477,21.604c4.185,0.949,10.607-4.455,7.641-4.983c-3.717-0.661-13.391-4.5-18.81,0.218
					C103.167,15.205,101.327,20.663,105.477,21.604z"/>
				<path fill="#6D6E70" d="M127.922,21.715c2.671,0.926,6.262-2.881,4.625-3.308c-3.007-1.489-7.253-8.952-16.694-2.843
					C125.121,13.182,123.064,20.031,127.922,21.715z"/>
			</g>
			<g>
				<path fill="#231F20" d="M140.413,11.805c0.097,0.062,0.332,3.285-0.208,6.223c-0.622,3.39-4.997,7.696-13.234,9.381
					c-3.9,1.133,4.527,2.882,10.537-0.614C146.062,21.821,142.375,13.037,140.413,11.805z"/>
				<path fill="#231F20" d="M118.394,28.353c-0.222,0.227,2.815-0.565,2.559-0.4c4.794-0.7,7.894,4.033,16.31-0.86
					c0.161-0.093-1.084-3.463-0.931-3.559C127.2,29.516,126.295,20.23,118.394,28.353z"/>
				<path fill="#231F20" d="M107.273,28.732c-3.257-1.837-6.091-0.792-7.939,1.977c0.501,0.175,1.81-0.46,3.357,0.636
					c4.129,2.933,7.606,2.422,12.439-0.476C112.364,31.66,110.212,30.391,107.273,28.732z"/>
			</g>
		</g>
	</g>
	<g>
		<g>
			
				<linearGradient id="SVGID_70_" gradientUnits="userSpaceOnUse" x1="-3104.8945" y1="-2466.6021" x2="-3111.1282" y2="-2463.3171" gradientTransform="matrix(-0.6363 -0.7715 0.7715 -0.6363 97.5806 -3898.4102)">
				<stop  offset="0" style="stop-color:#FCDF27"/>
				<stop  offset="0.0763" style="stop-color:#F4D022"/>
				<stop  offset="0.2801" style="stop-color:#E2AD16"/>
				<stop  offset="0.4727" style="stop-color:#D5940E"/>
				<stop  offset="0.648" style="stop-color:#CD8509"/>
				<stop  offset="0.7903" style="stop-color:#CA8007"/>
			</linearGradient>
			<path fill="url(#SVGID_70_)" d="M171.179,65.296c-2.063,1.11-0.373,4.969-0.755,8.98c-0.062,0.647,6.507-3.975,6.782-6.328
				c0.213-1.808,1.906-6.663,0.21-5.924C175.095,63.034,172.401,64.64,171.179,65.296z"/>
		</g>
		<g>
			
				<linearGradient id="SVGID_71_" gradientUnits="userSpaceOnUse" x1="-3111.813" y1="-2450.7305" x2="-3117.5774" y2="-2447.6929" gradientTransform="matrix(-0.6363 -0.7715 0.7715 -0.6363 97.5806 -3898.4102)">
				<stop  offset="0" style="stop-color:#FCDF27"/>
				<stop  offset="0.0763" style="stop-color:#F4D022"/>
				<stop  offset="0.2801" style="stop-color:#E2AD16"/>
				<stop  offset="0.4727" style="stop-color:#D5940E"/>
				<stop  offset="0.648" style="stop-color:#CD8509"/>
				<stop  offset="0.7903" style="stop-color:#CA8007"/>
			</linearGradient>
			<path fill="url(#SVGID_71_)" d="M188.797,65.22c1.405,0.201,4.007,0.702,4.282-1.649c0.117-1.008-2.59-3.148-3.563-3.509
				C187.144,59.183,184.809,64.649,188.797,65.22z"/>
		</g>
		
			<linearGradient id="SVGID_72_" gradientUnits="userSpaceOnUse" x1="-1251.9595" y1="-80.2788" x2="-1252.9797" y2="-60.8109" gradientTransform="matrix(0.6781 -0.735 0.735 0.6781 1083.1357 -804.3823)">
			<stop  offset="0.0968" style="stop-color:#FCDF27"/>
			<stop  offset="0.5161" style="stop-color:#FDEC7C"/>
			<stop  offset="0.7903" style="stop-color:#FCDF27"/>
			<stop  offset="0.914" style="stop-color:#CA8007"/>
			<stop  offset="1" style="stop-color:#DDA413"/>
		</linearGradient>
		<path fill="url(#SVGID_72_)" d="M189.375,59.861c-0.591-0.192-7.257-0.876-10.066-0.558c-0.259,0.029-2.989,3.04-3.138,3.33
			c-0.694,0.277-2.229,1.122-5.046,2.767c-0.411,0.241-0.675,0.566-0.945,1.349c-0.112,0.322,0.196,4.387,0.188,4.504
			c-0.066,0.952,0.31,3.446-0.246,4.617c-1.193,2.526,10.285,9.441,11.564,6.241c1.537-3.844,6.484-6.581,8.596-10.466
			c1.42-2.614,3.073-6.766,4.852-9.381c1.195-1.759-0.736-1.719-2.938-0.816c-1.044,0.428-2.884,1.61-3.356,1.521
			C187.954,62.8,190.769,60.31,189.375,59.861z M172.772,71.199c-0.021,0.057-1.641-0.417-1.646-0.87
			c-0.011-0.86,0.596-1.937,1.408-3.015c0.943-1.25,1.813-1.92,2.678-2.83C174.261,66.618,173.704,68.653,172.772,71.199z"/>
		
			<linearGradient id="SVGID_73_" gradientUnits="userSpaceOnUse" x1="-1245.6753" y1="-78.6377" x2="-1246.3739" y2="-65.3064" gradientTransform="matrix(0.6781 -0.735 0.735 0.6781 1083.1357 -804.3823)">
			<stop  offset="0.172" style="stop-color:#FDEC7C"/>
			<stop  offset="0.7312" style="stop-color:#FDEC7C"/>
		</linearGradient>
		<path fill="url(#SVGID_73_)" d="M189.375,59.861c-0.591-0.192-7.257-0.876-10.066-0.558c-0.362,0.04-3.659,3.492-4.228,4.759
			c-0.105,0.233,7.863,1.943,11.717,4.337c0.65,0.406,7.252-4.542,8.336-6.136c1.195-1.759-0.736-1.719-2.938-0.816
			c-1.044,0.428-2.884,1.61-3.356,1.521C187.954,62.8,190.769,60.31,189.375,59.861z"/>
	</g>
</g>
</svg>
